<svg viewBox="0 0 988 1069" fill="none" xmlns="http://www.w3.org/2000/svg">
<g clip-path="url(#clip0_2_2)">
<path d="M763.612 498.497C758.206 498.497 752.938 495.721 749.961 490.718L515.225 94.0082L442.968 294.402C439.991 302.661 430.89 306.944 422.679 303.928C414.434 300.947 410.192 291.866 413.168 283.608L496.819 51.6198C498.906 45.8287 504.14 41.7851 510.23 41.2369C516.32 40.4487 522.239 43.6698 525.353 48.947L777.195 474.579C781.642 482.117 779.179 491.849 771.652 496.304C769.12 497.777 766.349 498.497 763.612 498.497Z" fill="#307C9C"/>
<path d="M763.611 515.529C752.081 515.529 741.27 509.361 735.351 499.458L518.988 133.759L458.978 300.194C456.001 308.487 449.946 315.101 441.974 318.836C434.071 322.571 425.141 322.948 416.862 319.932C408.685 316.985 402.082 310.92 398.352 302.97C394.623 294.986 394.213 286.076 397.223 277.818L480.84 45.8297C485.117 33.9047 496.031 25.4408 508.689 24.2414C520.732 22.6651 533.289 28.9017 539.994 40.2099L791.871 465.841C796.352 473.415 797.584 482.255 795.429 490.788C793.273 499.32 787.902 506.448 780.341 510.937C775.277 513.953 769.495 515.529 763.611 515.529Z" fill="#307C9C"/>
<path d="M768.198 2074.79L394.421 1983.81V589.65L768.198 680.595V2074.79Z" fill="#307C9C"/>
<path d="M785.238 2096.44L377.419 1997.21V567.96L785.203 667.197V2096.44H785.238ZM411.46 1970.44L751.23 2053.13V693.994L411.46 611.308V1970.44Z" fill="#307C9C"/>
<path d="M768.197 2090.66C766.931 2090.66 765.699 2090.48 764.467 2090.21L390.69 1999.23C383.574 1997.52 378.579 1991.11 378.579 1983.81V589.654C378.579 584.788 380.803 580.196 384.635 577.181C388.466 574.165 393.427 573.137 398.149 574.234L771.926 665.179C779.042 666.892 784.037 673.3 784.037 680.599V2074.76C784.037 2079.62 781.813 2084.21 777.982 2087.23C775.176 2089.46 771.721 2090.66 768.197 2090.66ZM410.294 1971.34L752.356 2054.57V693.072L410.294 609.837V1971.34V1971.34Z" fill="#307C9C"/>
<path d="M768.199 2107.69C765.667 2107.69 763.067 2107.38 760.466 2106.76L386.689 2015.82C371.943 2012.29 361.577 1999.16 361.577 1983.85V589.655C361.577 579.477 366.161 570.054 374.167 563.783C382.105 557.581 392.232 555.319 402.085 557.649L775.965 648.663C790.711 652.227 801.043 665.351 801.043 680.634V2074.83C801.043 2084.93 796.493 2094.36 788.521 2100.66C782.636 2105.22 775.486 2107.69 768.199 2107.69ZM427.3 1957.97L735.354 2032.95V706.471L427.3 631.529V1957.97V1957.97Z" fill="#307C9C"/>
<path d="M767.269 489.801L769.151 680.943L444.949 601.854" fill="#307C9C"/>
<path d="M786.396 702.703L440.913 618.405L448.953 585.303L751.944 659.218L750.267 489.972L784.275 489.664L786.396 702.703Z" fill="#307C9C"/>
<path d="M769.152 696.805C767.886 696.805 766.655 696.634 765.389 696.36L441.186 617.271C432.667 615.181 427.467 606.614 429.554 598.116C431.607 589.583 440.194 584.306 448.713 586.431L753.141 660.688L751.464 489.935C751.396 481.162 758.409 474 767.134 473.898C767.202 473.898 767.236 473.898 767.305 473.898C775.995 473.898 783.043 480.888 783.145 489.626L785.027 680.768C785.061 685.668 782.872 690.329 779.04 693.344C776.166 695.606 772.711 696.805 769.152 696.805Z" fill="#307C9C"/>
<path d="M769.154 713.838C766.554 713.838 763.953 713.529 761.387 712.912L437.151 633.824C419.565 629.506 408.72 611.687 412.996 594.108C415.117 585.473 420.42 578.208 427.982 573.651C435.474 569.128 444.301 567.791 452.82 569.95L735.864 638.998L734.393 490.142C734.291 481.37 737.609 473.077 743.768 466.806C749.926 460.501 758.137 457.006 766.93 456.937C785.2 456.937 799.945 471.535 800.117 489.525L801.998 680.667C802.101 690.879 797.585 700.371 789.613 706.744C783.763 711.336 776.51 713.838 769.154 713.838Z" fill="#307C9C"/>
<path d="M218.669 2080.78L394.421 1983.81V589.65L218.669 686.626V2080.78Z" fill="#307C9C"/>
<path d="M201.631 2109.67V676.55L411.425 560.796V1993.88L201.631 2109.67ZM235.673 696.699V2051.96L377.451 1973.77V618.468L235.673 696.699Z" fill="#307C9C"/>
<path d="M218.668 2096.69C215.863 2096.69 213.091 2095.94 210.594 2094.5C205.77 2091.62 202.827 2086.44 202.827 2080.82V686.632C202.827 680.841 205.975 675.53 211.039 672.72L386.825 575.744C391.717 573.003 397.705 573.14 402.529 575.984C407.353 578.862 410.295 584.037 410.295 589.657V1983.81C410.295 1989.6 407.148 1994.92 402.084 1997.73L226.298 2094.7C223.937 2096.04 221.302 2096.69 218.668 2096.69ZM234.509 696.022V2053.96L378.614 1974.46V616.522L234.509 696.022Z" fill="#307C9C"/>
<path d="M185.788 686.631C185.788 674.638 192.289 663.604 202.792 657.813L378.579 560.837C388.637 555.251 401.125 555.388 411.115 561.317C421.106 567.211 427.264 578.073 427.264 589.656V1983.85C427.264 1995.87 420.763 2006.91 410.26 2012.67L234.474 2109.64C229.581 2112.35 224.107 2113.72 218.633 2113.72C212.885 2113.72 207.137 2112.14 202.074 2109.23C191.947 2103.17 185.788 2092.34 185.788 2080.82" fill="#307C9C"/>
<path d="M251.513 706.055V2025.1L361.576 1964.38V645.333L251.513 706.055Z" fill="#307C9C"/>
<path d="M217.846 563.748L218.667 686.629L394.83 597.261L393.632 507.036" fill="#307C9C"/>
<path d="M201.836 714.279L200.844 563.846L234.852 563.607L235.467 659.006L377.691 586.874L376.63 507.271L410.638 506.826L411.972 607.674L201.836 714.279Z" fill="#307C9C"/>
<path d="M218.666 702.494C215.792 702.494 212.953 701.706 210.421 700.164C205.734 697.319 202.86 692.214 202.826 686.731L202.039 563.815C201.97 555.042 209.018 547.915 217.777 547.846C226.33 547.435 233.652 554.837 233.72 563.609L234.336 660.894L378.852 587.562L377.791 507.24C377.688 498.467 384.668 491.306 393.426 491.169C393.495 491.169 393.563 491.169 393.632 491.169C402.288 491.169 409.37 498.159 409.472 506.829L410.67 597.02C410.738 603.085 407.385 608.67 401.98 611.412L225.817 700.78C223.559 701.911 221.095 702.494 218.666 702.494Z" fill="#307C9C"/>
<path d="M185.001 563.949C184.898 545.822 199.541 530.95 217.606 530.813C225.714 530.744 233.891 533.554 240.323 539.654C246.858 545.856 250.621 554.526 250.69 563.47L251.134 633.272L361.677 577.176L360.753 507.477C360.513 489.35 375.054 474.409 393.118 474.135C411.456 474.135 426.202 488.699 426.442 506.586L427.605 596.811C427.776 609.25 420.728 620.936 409.609 626.59L233.412 715.992C228.759 718.323 223.627 719.522 218.564 719.522C212.542 719.522 206.623 717.843 201.457 714.725C191.809 708.865 185.753 698.174 185.685 686.831" fill="#307C9C"/>
<path d="M581.699 1279.96C577.32 1279.96 573.796 1276.84 573.762 1273.04L573.283 1016.72C573.283 1012.88 576.807 1009.76 581.186 1009.76C585.018 1009.56 589.123 1012.88 589.123 1016.68L589.602 1273C589.602 1276.84 586.078 1279.96 581.699 1279.96Z" fill="#307C9C"/>
<path d="M581.701 1297.03C567.982 1297.03 556.794 1286.3 556.76 1273.14L556.281 1016.79C556.281 1003.19 568.05 992.735 582.248 992.735C587.722 992.735 593.915 995.202 598.602 999.657C603.392 1004.18 606.129 1010.38 606.129 1016.72L606.608 1273.01C606.642 1279.21 604.179 1285.1 599.731 1289.63C595.044 1294.32 588.475 1297.03 581.701 1297.03Z" fill="#307C9C"/>
<path d="M221.339 939.523C218.397 939.523 215.592 937.878 214.223 935.068C212.307 931.128 213.949 926.399 217.884 924.48L285.112 891.652C289.047 889.733 293.802 891.343 295.718 895.318C297.634 899.259 295.992 903.988 292.058 905.907L224.829 938.735C223.666 939.283 222.503 939.523 221.339 939.523Z" fill="#307C9C"/>
<path d="M221.338 956.553C211.724 956.553 203.137 951.173 198.928 942.537C196.02 936.575 195.576 929.79 197.765 923.485C199.955 917.18 204.437 912.074 210.458 909.161L277.653 876.333C290.072 870.302 304.989 875.511 310.976 887.813C313.884 893.81 314.329 900.594 312.139 906.9C309.95 913.205 305.468 918.276 299.48 921.189L232.286 954.017C228.796 955.696 225.136 956.553 221.338 956.553Z" fill="#307C9C"/>
<path d="M471.914 1341.16L377.418 1319.47V1057.73L471.914 1079.39V1341.16ZM411.46 1292.33L437.907 1298.39V1106.56L411.46 1100.5V1292.33Z" fill="#307C9C"/>
<path d="M454.909 1344.72L449.435 1344.14L388.878 1330.26C377.451 1327.63 369.479 1317.62 369.479 1305.9V1079.12C369.479 1071.44 372.934 1064.28 378.922 1059.55C384.943 1054.79 392.675 1053.04 400.1 1054.82L460.417 1068.63C471.81 1071.2 479.816 1081.21 479.816 1092.96V1319.78C479.816 1327.39 476.395 1334.51 470.407 1339.28C466.062 1342.81 460.554 1344.72 454.909 1344.72ZM419.362 1285.99L429.968 1288.42V1112.84L419.362 1110.41V1285.99Z" fill="#307C9C"/>
<path d="M250.894 1398.97V1134.12L415.732 1051.57V1316.42L250.894 1398.97ZM284.936 1155.13V1343.84L381.725 1295.35V1106.64L284.936 1155.13Z" fill="#307C9C"/>
<path d="M267.933 1396.37C263.348 1396.37 258.866 1395.1 254.966 1392.74C247.405 1388.01 242.991 1380.09 242.991 1371.43V1144.65C242.991 1135.19 248.226 1126.66 256.642 1122.34L387.575 1056.78C395.273 1052.98 404.306 1053.32 411.696 1057.78C419.291 1062.58 423.67 1070.49 423.67 1079.13V1305.91C423.67 1315.4 418.436 1323.93 409.951 1328.25L279.052 1393.77C275.699 1395.45 271.833 1396.37 267.933 1396.37ZM292.84 1160.03V1331.02L373.788 1290.49V1119.49L292.84 1160.03Z" fill="#307C9C"/>
<path d="M394.45 650.273C385.692 650.273 378.61 643.18 378.61 634.407V454.402C378.61 445.63 385.692 438.537 394.45 438.537C403.209 438.537 410.291 445.63 410.291 454.402V634.407C410.291 643.18 403.175 650.273 394.45 650.273Z" fill="#307C9C"/>
<path d="M394.452 667.301C376.319 667.301 361.608 652.532 361.608 634.405V454.4C361.608 436.238 376.354 421.504 394.452 421.504C412.551 421.504 427.297 436.273 427.297 454.4V634.405C427.297 652.532 412.551 667.301 394.452 667.301Z" fill="#307C9C"/>
<path d="M384.325 513.987C380.322 523.856 346.349 607.125 296.09 605.549C267.522 604.658 243.128 576.593 231.906 552.332C225.03 537.494 204.981 484.963 282.85 348.957C345.391 239.713 439.614 131.669 460.176 144.691C478.445 156.273 402.766 240.776 400.098 392.853C399.413 430.992 403.45 467.041 384.325 513.987Z" fill="#307C9C"/>
<path d="M297.562 622.58C296.912 622.58 296.227 622.58 295.543 622.545C260.543 621.414 230.607 590.06 216.443 559.494C194.854 512.891 212.713 437.16 268.07 340.527C321.169 247.8 408.343 137.563 448.612 127.557C458.294 125.124 465.205 127.728 469.243 130.333C488.47 142.498 478.754 164.703 465.308 195.406C447.859 235.19 418.676 301.805 417.102 393.196C416.999 399.501 417.033 405.737 417.033 411.974C417.136 444.562 417.239 478.281 400.064 520.429V520.464C387.439 551.373 352.405 622.58 297.562 622.58ZM437.903 173.132C406.12 200.786 346.999 271.136 297.596 357.421C231.599 472.661 237.791 524.507 247.337 545.136C257.088 566.21 277.136 587.867 296.638 588.484C324.693 588.347 353.124 545.41 368.554 507.545L384.292 513.987L368.554 507.511C383.197 471.599 383.094 442.677 382.992 412.042C382.957 405.566 382.957 399.09 383.06 392.545C384.771 294.301 415.665 223.779 434.14 181.665C435.406 178.889 436.672 176.011 437.903 173.132Z" fill="#307C9C"/>
<path d="M282.814 348.963C357.262 254.9 431.675 160.836 506.088 66.739Z" fill="#307C9C"/>
<path d="M492.727 56.1594L269.507 338.425L296.193 359.595L519.413 77.3294L492.727 56.1594Z" fill="#307C9C"/>
<path d="M282.817 364.828C279.362 364.828 275.906 363.697 272.998 361.401C266.156 355.953 264.993 345.981 270.432 339.094L493.672 56.904C499.112 50.0506 509.068 48.8855 515.945 54.2997C522.788 59.7482 523.951 69.7199 518.511 76.6076L295.237 358.831C292.123 362.772 287.505 364.828 282.817 364.828Z" fill="#307C9C"/>
<path d="M282.815 381.889C275.357 381.889 268.309 379.456 262.424 374.796C248.226 363.488 245.831 342.756 257.053 328.535L480.327 46.3115C491.617 32.1249 512.282 29.7605 526.446 40.9316C540.679 52.2397 543.074 73.0056 531.818 87.1922L308.578 369.382C302.317 377.332 292.942 381.889 282.815 381.889Z" fill="#307C9C"/>
<path d="M217.914 574.571C217.503 564.359 217.298 548.356 218.975 528.893C221.985 493.598 232.283 432.636 270.26 369.311C278.711 355.193 291.917 335.352 311.247 313.627" fill="#307C9C"/>
<path d="M200.945 575.224C200.33 559.393 200.706 543.288 202.075 527.422C205.53 486.301 217.676 423.969 255.721 360.507C268.037 339.947 282.475 320.38 298.624 302.253L324.01 324.938C309.264 341.454 296.126 359.307 284.904 378.052C250.246 435.929 239.161 492.778 235.98 530.335C234.748 544.795 234.406 559.462 234.953 573.888L200.945 575.224Z" fill="#307C9C"/>
<path d="M217.914 590.438C209.464 590.438 202.416 583.722 202.108 575.189C201.492 559.392 201.868 543.39 203.203 527.524C206.692 486.506 218.804 424.346 256.678 361.123C268.926 340.665 283.33 321.133 299.444 303.04C305.26 296.529 315.285 295.947 321.819 301.772C328.354 307.598 328.901 317.638 323.085 324.183C308.271 340.803 295.099 358.724 283.843 377.468C249.082 435.482 237.963 492.571 234.747 530.231C233.515 544.76 233.173 559.461 233.755 573.956C234.097 582.728 227.289 590.096 218.53 590.438C218.325 590.438 218.12 590.438 217.914 590.438Z" fill="#307C9C"/>
<path d="M186.234 526.118C189.86 483.318 202.519 418.416 242.069 352.384C254.865 331.035 269.885 310.612 286.717 291.731C298.795 278.161 319.596 277.065 333.076 289.058C346.59 301.189 347.753 322.023 335.71 335.524C321.615 351.356 309.058 368.421 298.384 386.24C265.3 441.444 254.728 495.792 251.649 531.703C250.486 545.479 250.178 559.494 250.691 573.304C251.375 591.431 237.245 606.748 219.181 607.468L217.881 607.502C200.158 607.502 185.755 593.624 185.07 575.874" fill="#307C9C"/>
<path d="M217.914 573.41V590.44L217.982 573.478L217.914 573.41Z" fill="#307C9C"/>
<path d="M394.218 538.419C392.165 504.803 392.268 464.128 398.016 418.416C404.79 364.582 417.38 319.041 429.971 283.506" fill="#307C9C"/>
<path d="M377.247 539.483C374.715 498.499 376.05 457.036 381.148 416.292C387.032 369.244 398.083 322.64 413.958 277.819L446.015 289.196C430.962 331.721 420.492 375.926 414.916 420.542C410.058 459.161 408.792 498.499 411.221 537.358L377.247 539.483Z" fill="#307C9C"/>
<path d="M394.214 554.287C385.9 554.287 378.921 547.81 378.408 539.381C375.876 498.432 377.21 457.071 382.308 416.396C388.192 369.416 399.243 322.915 415.05 278.163C417.992 269.904 427.058 265.587 435.27 268.499C443.515 271.412 447.826 280.493 444.918 288.751C429.83 331.345 419.361 375.618 413.75 420.337C408.891 459.024 407.66 498.397 410.055 537.393C410.602 546.131 403.965 553.67 395.206 554.218C394.864 554.287 394.522 554.287 394.214 554.287Z" fill="#307C9C"/>
<path d="M394.216 571.354C376.904 571.354 362.5 557.785 361.44 540.445C358.84 498.502 360.208 456.046 365.443 414.308C371.498 366.163 382.789 318.463 399.04 272.511C405.096 255.412 423.913 246.536 440.951 252.465C458.057 258.53 466.987 277.377 460.966 294.476C446.288 335.939 436.093 379.013 430.653 422.498C425.931 460.123 424.734 498.468 427.06 536.368C428.155 554.461 414.367 570.121 396.303 571.252L394.216 571.354Z" fill="#307C9C"/>
<path d="M767.277 506.281C766.661 506.281 766.011 506.212 765.395 506.041L405.063 418.146C400.821 417.118 398.221 412.834 399.247 408.585C400.274 404.336 404.584 401.766 408.827 402.76L769.158 490.655C773.401 491.683 776.001 495.966 774.975 500.215C774.085 503.848 770.835 506.281 767.277 506.281Z" fill="#307C9C"/>
<path d="M767.275 523.313L761.391 522.593L401.059 434.698C394.661 433.156 389.187 429.181 385.698 423.527C382.208 417.804 381.147 411.088 382.721 404.577C385.937 391.384 399.28 383.023 412.589 386.142L773.126 474.105C779.524 475.647 784.998 479.622 788.488 485.31C791.977 491.033 793.038 497.749 791.464 504.226C788.761 515.466 778.805 523.313 767.275 523.313ZM765.12 507.207C765.12 507.207 765.154 507.207 765.188 507.207H765.12ZM408.997 401.562H409.099C409.065 401.596 409.031 401.562 408.997 401.562Z" fill="#307C9C"/>
<path d="M312.716 518.309H312.681C299.543 518.309 288.937 507.618 288.937 494.459L289.382 219.432C289.416 206.273 300.022 195.65 313.16 195.65H313.194C326.332 195.65 336.938 206.342 336.938 219.5L336.494 494.528C336.459 507.687 325.819 518.309 312.716 518.309Z" fill="#307C9C"/>
<path d="M312.683 535.374C301.769 535.374 291.505 531.091 283.807 523.346C276.109 515.636 271.901 505.356 271.935 494.459L272.38 219.431C272.414 196.952 290.684 178.654 313.162 178.654C324.076 178.654 334.34 182.937 342.037 190.647C349.735 198.391 353.978 208.637 353.944 219.534L353.499 494.596C353.43 517.075 335.161 535.374 312.683 535.374ZM313.162 212.715C309.432 212.715 306.387 215.731 306.387 219.466L305.943 494.528C305.943 496.961 307.174 498.571 307.893 499.291C308.646 500.045 310.219 501.278 312.648 501.278V518.309L312.683 501.278C316.412 501.278 319.457 498.263 319.457 494.528L319.902 219.466C319.902 216.313 316.343 212.715 313.162 212.715Z" fill="#307C9C"/>
<path d="M353.021 499.596L280.49 567.376L288.872 369.484L336.804 306.672L353.021 499.596Z" fill="#307C9C"/>
<path d="M261.741 608.189L272.107 363.419L350.044 261.268L370.641 506.484L261.741 608.189ZM305.636 375.583L299.238 526.564L335.367 492.777L323.529 352.076L305.636 375.583Z" fill="#307C9C"/>
<path d="M329.165 910.147C341.655 888.481 338.647 863.322 322.447 853.954C306.248 844.586 282.99 854.556 270.5 876.223C258.011 897.89 261.018 923.048 277.218 932.416C293.417 941.784 316.675 931.814 329.165 910.147Z" fill="#307C9C"/>
<path d="M290.857 953.121C283.193 953.121 275.632 951.237 268.721 947.227C244.019 932.904 238.374 898.02 255.788 867.762C273.203 837.504 306.287 824.928 330.954 839.218C355.656 853.507 361.301 888.425 343.887 918.683C331.331 940.511 310.666 953.121 290.857 953.121ZM309.024 867.556C301.702 867.556 291.678 873.656 285.246 884.793C277.172 898.808 278.848 913.714 285.725 917.689C292.704 921.698 306.355 915.667 314.43 901.652C322.504 887.637 320.827 872.696 313.951 868.721C312.582 867.933 310.906 867.556 309.024 867.556Z" fill="#307C9C"/>
<path d="M290.683 943.939C284.491 943.939 278.572 942.397 273.269 939.313C263.21 933.521 256.812 923.07 255.273 909.911C253.802 897.61 256.812 884.245 263.689 872.286C270.566 860.327 280.625 851.041 292.018 846.175C304.163 840.966 316.411 841.309 326.47 847.1C336.529 852.891 342.927 863.343 344.466 876.501C345.937 888.803 342.961 902.167 336.05 914.126C329.173 926.086 319.114 935.372 307.721 940.238C301.974 942.705 296.226 943.939 290.683 943.939ZM308.987 858.408C305.566 858.408 301.939 859.196 298.244 860.807C289.999 864.336 282.609 871.258 277.409 880.27C272.208 889.283 269.95 899.152 271.011 908.061C271.969 916.114 275.595 922.35 281.206 925.606C286.817 928.861 294.002 928.861 301.495 925.674C309.74 922.145 317.13 915.223 322.33 906.211C327.531 897.198 329.789 887.329 328.728 878.42C327.77 870.333 324.144 864.131 318.533 860.875C315.659 859.23 312.443 858.408 308.987 858.408Z" fill="#307C9C"/>
<path d="M290.684 960.969C281.344 960.969 272.62 958.638 264.717 954.047C249.971 945.548 240.596 930.574 238.373 911.967C236.491 896.032 240.22 878.933 248.944 863.821C257.669 848.71 270.601 836.887 285.313 830.582C302.488 823.146 320.142 823.797 334.956 832.433C349.736 840.931 359.11 855.906 361.334 874.547C363.216 890.515 359.487 907.58 350.762 922.692C342.072 937.838 329.14 949.626 314.394 955.931C306.559 959.255 298.588 960.969 290.684 960.969ZM308.988 875.438C308.201 875.438 306.867 875.609 304.985 876.432C300.127 878.522 295.44 883.011 292.121 888.768C288.803 894.49 287.263 900.796 287.913 906.004C288.255 908.951 289.213 910.527 289.761 910.836C290.069 911.007 291.779 911.316 294.858 909.979C299.614 907.923 304.301 903.468 307.586 897.712C310.904 891.955 312.478 885.649 311.828 880.441C311.486 877.494 310.528 875.918 309.98 875.609L308.988 875.438Z" fill="#307C9C"/>
<path d="M708.054 994.003L709.901 770.581L518.137 720.311" fill="#307C9C"/>
<path d="M725.092 994.136L691.05 993.862L692.795 783.668L513.861 736.79L522.448 703.825L727.042 757.419L725.092 994.136Z" fill="#307C9C"/>
<path d="M708.055 1002.81C708.021 1002.81 708.021 1002.81 707.986 1002.81C703.128 1002.77 699.228 998.799 699.262 993.933L701.041 777.33L515.914 728.808C511.227 727.574 508.388 722.777 509.619 718.048C510.851 713.319 515.641 710.475 520.362 711.777L712.126 762.013C716.026 763.041 718.729 766.57 718.695 770.58L716.847 994.035C716.813 998.936 712.879 1002.81 708.055 1002.81Z" fill="#307C9C"/>
<path d="M708.053 1019.84H707.951C701.005 1019.81 694.505 1017.03 689.647 1012.1C684.823 1007.16 682.222 1000.65 682.257 993.762L683.933 790.456L511.636 745.292C504.999 743.578 499.422 739.363 495.933 733.401C492.443 727.438 491.451 720.448 493.196 713.766C494.94 707.015 499.251 701.361 505.273 697.9C511.226 694.473 518.205 693.548 524.877 695.399L716.436 745.566C727.863 748.547 735.8 758.896 735.697 770.786L733.85 994.242C733.747 1008.33 722.183 1019.84 708.053 1019.84ZM516.084 728.295C516.118 728.295 516.187 728.329 516.255 728.329L516.084 728.295ZM520.19 712.327H520.224H520.19Z" fill="#307C9C"/>
<path d="M470.339 981.735L658.955 1030.09L707.162 995.099" fill="#307C9C"/>
<path d="M662.479 1048.55L466.131 998.248L474.547 965.249L655.432 1011.58L697.171 981.286L717.152 1008.87L662.479 1048.55Z" fill="#307C9C"/>
<path d="M658.958 1038.86C658.239 1038.86 657.486 1038.75 656.768 1038.58L468.152 990.264C463.464 989.065 460.625 984.268 461.822 979.539C463.02 974.81 467.775 972 472.531 973.199L657.144 1020.49L701.998 987.934C705.932 985.124 711.44 985.947 714.28 989.922C717.12 993.862 716.264 999.379 712.33 1002.22L664.124 1037.21C662.618 1038.31 660.805 1038.86 658.958 1038.86Z" fill="#307C9C"/>
<path d="M658.956 1055.89L652.661 1055.1L463.942 1006.78C450.188 1003.22 441.84 989.135 445.33 975.36C448.888 961.55 463.052 953.257 476.669 956.684L653.585 1002.02L691.972 974.16C703.672 965.799 719.787 968.472 728.032 979.986C732.035 985.503 733.677 992.356 732.582 999.175C731.488 1005.99 727.827 1011.96 722.216 1016L674.044 1050.95C669.665 1054.21 664.464 1055.89 658.956 1055.89Z" fill="#307C9C"/>
<path d="M517.829 720.549L471.334 753.856L469.315 977.415" fill="#307C9C"/>
<path d="M486.319 977.55L452.277 977.276L454.398 745.048L507.942 706.669L527.751 734.391L488.269 762.661L486.319 977.55Z" fill="#307C9C"/>
<path d="M469.313 986.219C469.279 986.219 469.245 986.219 469.245 986.219C464.387 986.15 460.486 982.209 460.52 977.343L462.539 753.785C462.573 750.975 463.942 748.337 466.2 746.726L512.695 713.384C516.63 710.506 522.138 711.431 524.944 715.406C527.783 719.347 526.859 724.864 522.925 727.674L480.056 758.411L478.072 977.515C478.038 982.347 474.137 986.219 469.313 986.219Z" fill="#307C9C"/>
<path d="M469.314 1003.26H469.143C454.91 1003.12 443.415 991.437 443.517 977.216L445.536 753.623C445.57 745.399 449.641 737.586 456.381 732.823L502.809 699.55C508.317 695.54 515.125 693.861 522.002 695.026C528.845 696.157 534.832 699.892 538.835 705.546C547.08 717.06 544.446 733.234 532.882 741.561L497.027 767.261L495.145 977.696C494.974 991.779 483.376 1003.26 469.314 1003.26ZM522.686 727.169L522.584 727.238C522.618 727.203 522.652 727.203 522.686 727.169Z" fill="#307C9C"/>
<path d="M635.455 931.576C663.669 915.003 668.617 870.958 646.507 833.198C624.396 795.439 583.601 778.264 555.387 794.837C527.173 811.41 522.225 855.455 544.336 893.215C566.446 930.974 607.242 948.149 635.455 931.576Z" fill="#307C9C"/>
<path d="M611.913 954.793C581.703 954.793 549.201 935.158 529.665 901.816C502.842 856.035 510.54 801.448 546.806 780.134C565.178 769.305 587.588 768.517 609.826 777.906C630.423 786.576 648.658 803.127 661.18 824.544C673.736 845.961 679.245 869.982 676.747 892.187C674.044 916.243 662.446 935.398 644.039 946.192C634.186 952.052 623.204 954.793 611.913 954.793ZM564.015 809.535C544.274 821.151 541.982 855.521 559.02 884.614C576.092 913.707 607.124 928.51 626.865 916.894C635.794 911.651 641.508 901.542 642.979 888.452C644.655 873.512 640.687 856.96 631.86 841.849C622.998 826.737 610.511 815.223 596.654 809.363C584.44 804.223 572.945 804.292 564.015 809.535Z" fill="#307C9C"/>
<path d="M611.604 945.482C602.88 945.482 593.813 943.563 584.713 939.725C566.032 931.843 549.371 916.697 537.875 897.028C513.721 855.736 519.879 807.008 551.629 788.333C567.367 779.081 586.731 778.498 606.198 786.688C624.879 794.569 641.54 809.715 653.036 829.385C677.225 870.677 671.032 919.404 639.282 938.08C630.9 942.98 621.492 945.482 611.604 945.482ZM579.307 796.077C572.02 796.077 565.211 797.825 559.224 801.354C534.625 815.781 530.896 855.291 550.842 889.386C560.729 906.246 574.791 919.199 590.529 925.812C605.514 932.117 620.089 931.843 631.653 925.058C656.252 910.632 659.981 871.122 640.001 837.026C630.113 820.167 616.052 807.248 600.314 800.635C593.129 797.585 586.013 796.077 579.307 796.077ZM555.392 794.878H555.529H555.392Z" fill="#307C9C"/>
<path d="M611.604 962.51C600.519 962.51 589.229 960.146 578.075 955.417C556.042 946.131 536.541 928.483 523.163 905.627C494.253 856.248 503.149 797.034 542.973 773.63C563.466 761.602 588.168 760.643 612.733 770.957C634.835 780.278 654.336 797.925 667.679 820.747C696.589 870.126 687.694 929.34 647.87 952.744C636.853 959.221 624.639 962.51 611.604 962.51ZM579.307 813.106C574.996 813.106 571.13 814.099 567.846 816.018C551.594 825.579 550.534 855.22 565.519 880.783C573.559 894.49 584.781 904.907 597.098 910.081C607.019 914.228 616.189 914.365 623.031 910.356C632.542 904.77 635.006 893.188 635.587 886.814C636.819 873.895 633.09 858.886 625.323 845.625C617.283 831.918 606.062 821.501 593.711 816.327C588.681 814.202 583.857 813.106 579.307 813.106Z" fill="#307C9C"/>
<path d="M767.273 489.802L769.155 680.944C644.38 653.05 519.605 625.157 394.83 597.263C393.804 561.146 393.975 512.726 398.593 455.809C402.836 403.449 407.762 343.344 427.503 272.206C441.257 222.655 466.472 152.545 515.362 74.8957" fill="#97D0ED"/>
<path d="M763.58 482.637C679.622 340.771 595.663 198.906 511.738 57.0056C501.919 84.2136 494.255 105.459 487.652 123.758C475.712 156.86 463.806 189.996 451.866 223.098C447.863 234.201 432.056 277.994 428.087 289.028" fill="#97D0ED"/>
<path d="M763.613 498.505C758.207 498.505 752.938 495.73 749.962 490.727L515.226 94.0166L442.968 294.411C439.992 302.669 430.891 306.952 422.68 303.937C414.435 300.956 410.192 291.875 413.169 283.616L496.82 51.6282C498.907 45.837 504.141 41.7935 510.231 41.2452C516.321 40.4571 522.24 43.6782 525.353 48.9553L777.195 474.587C781.643 482.126 779.18 491.858 771.653 496.312C769.121 497.786 766.35 498.505 763.613 498.505Z" fill="#307C9C"/>
<path d="M768.197 2074.79L394.419 1983.81V589.65L768.197 680.595V2074.79Z" fill="#97D0ED"/>
<path d="M768.196 2090.66C766.93 2090.66 765.698 2090.48 764.466 2090.21L390.689 1999.23C383.573 1997.52 378.578 1991.11 378.578 1983.81V589.654C378.578 584.788 380.802 580.196 384.633 577.181C388.465 574.165 393.426 573.137 398.148 574.234L771.925 665.179C779.041 666.892 784.036 673.3 784.036 680.599V2074.76C784.036 2079.62 781.812 2084.21 777.98 2087.23C775.175 2089.46 771.719 2090.66 768.196 2090.66ZM410.293 1971.34L752.355 2054.57V693.072L410.293 609.837V1971.34V1971.34Z" fill="#307C9C"/>
<path d="M769.156 696.806C767.89 696.806 766.658 696.635 765.393 696.36L441.19 617.272C432.671 615.182 427.471 606.615 429.558 598.117C431.61 589.584 440.198 584.307 448.717 586.432L753.144 660.688L751.468 489.935C751.399 481.163 758.413 474.001 767.137 473.898C767.206 473.898 767.24 473.898 767.309 473.898C775.999 473.898 783.047 480.889 783.149 489.627L785.031 680.769C785.065 685.669 782.875 690.329 779.044 693.345C776.17 695.607 772.714 696.806 769.156 696.806Z" fill="#307C9C"/>
<path d="M218.669 2080.79L394.421 1983.82V589.659L218.669 686.634V2080.79Z" fill="#80C6DD"/>
<path d="M218.668 2096.69C215.863 2096.69 213.091 2095.94 210.594 2094.5C205.77 2091.62 202.827 2086.44 202.827 2080.82V686.632C202.827 680.841 205.975 675.53 211.039 672.72L386.825 575.744C391.717 573.003 397.705 573.14 402.529 575.984C407.353 578.862 410.295 584.037 410.295 589.657V1983.81C410.295 1989.6 407.148 1994.92 402.084 1997.73L226.298 2094.7C223.937 2096.04 221.302 2096.69 218.668 2096.69ZM234.509 696.022V2053.96L378.614 1974.46V616.522L234.509 696.022Z" fill="#307C9C"/>
<path d="M217.845 563.747L218.666 686.629L394.829 597.261L393.632 507.035" fill="#80C6DD"/>
<path d="M218.666 702.494C215.792 702.494 212.953 701.706 210.421 700.164C205.734 697.319 202.86 692.214 202.826 686.731L202.039 563.815C201.97 555.042 209.018 547.915 217.777 547.846C226.33 547.435 233.652 554.837 233.72 563.609L234.336 660.894L378.852 587.562L377.791 507.24C377.688 498.467 384.668 491.306 393.426 491.169C393.495 491.169 393.563 491.169 393.632 491.169C402.288 491.169 409.37 498.159 409.472 506.829L410.67 597.02C410.738 603.085 407.385 608.67 401.98 611.412L225.817 700.78C223.559 701.911 221.095 702.494 218.666 702.494Z" fill="#307C9C"/>
<path d="M581.699 1279.97C577.32 1279.97 573.796 1276.85 573.762 1273.05L573.283 1016.73C573.283 1012.89 576.807 1009.77 581.186 1009.77C585.018 1009.57 589.124 1012.89 589.124 1016.69L589.603 1273.01C589.603 1276.85 586.079 1279.97 581.699 1279.97Z" fill="#307C9C"/>
<path d="M581.701 1284.25C574.996 1284.25 569.556 1279.25 569.522 1273.11L569.043 1016.76C569.043 1010.45 574.893 1005.45 581.701 1005.55C584.473 1005.55 587.552 1006.79 589.844 1008.98C592.136 1011.14 593.368 1013.88 593.368 1016.76L593.847 1273.08C593.847 1275.89 592.718 1278.56 590.665 1280.65C588.373 1282.91 585.088 1284.25 581.701 1284.25ZM581.565 1014.05C579.238 1014.09 577.562 1015.25 577.562 1016.76L578.041 1273.08C578.041 1275.03 582.591 1276.68 584.678 1274.62C584.986 1274.28 585.362 1273.76 585.362 1273.08L584.883 1016.72C584.883 1016.25 584.575 1015.66 584.028 1015.15C583.309 1014.46 582.351 1014.05 581.565 1014.05Z" fill="#307C9C"/>
<path d="M221.335 939.524C218.393 939.524 215.587 937.879 214.219 935.069C212.303 931.128 213.945 926.399 217.879 924.48L285.108 891.652C289.042 889.733 293.798 891.344 295.714 895.319C297.63 899.26 295.988 903.989 292.053 905.908L224.825 938.736C223.661 939.284 222.498 939.524 221.335 939.524Z" fill="#307C9C"/>
<path d="M221.334 943.771C216.647 943.771 212.438 941.132 210.386 936.917C208.949 934.005 208.743 930.681 209.804 927.631C210.865 924.547 213.088 922.045 215.997 920.64L283.225 887.812C289.212 884.831 296.534 887.367 299.511 893.432C300.947 896.345 301.153 899.669 300.092 902.753C299.032 905.837 296.842 908.304 293.9 909.709L226.671 942.537C224.995 943.36 223.181 943.771 221.334 943.771ZM288.528 895.077C287.981 895.077 287.433 895.18 286.92 895.454L219.692 928.282C218.802 928.728 218.152 929.447 217.81 930.407C217.502 931.332 217.57 932.326 217.981 933.182C218.836 934.964 221.163 935.684 222.908 934.896L290.136 902.068C291.026 901.622 291.676 900.903 291.984 899.977C292.292 899.052 292.257 898.058 291.813 897.167C291.231 895.865 289.897 895.077 288.528 895.077Z" fill="#307C9C"/>
<path d="M454.909 1331.94C453.986 1331.94 453.13 1331.84 452.207 1331.63L391.718 1317.79C386.141 1316.49 382.241 1311.59 382.241 1305.86V1079.09C382.241 1075.32 383.917 1071.85 386.825 1069.52C389.768 1067.19 393.565 1066.37 397.158 1067.19L457.578 1081.04C463.155 1082.31 467.055 1087.21 467.055 1092.93V1319.74C467.055 1323.41 465.344 1326.97 462.47 1329.27C460.349 1331.02 457.681 1331.94 454.909 1331.94ZM394.421 1075.42C393.6 1075.42 392.813 1075.69 392.128 1076.21C391.239 1076.89 390.76 1077.95 390.76 1079.09V1305.86C390.76 1307.58 391.923 1309.09 393.634 1309.46L454.909 1323.41C455.73 1323.41 456.552 1323.1 457.202 1322.62C458.091 1321.94 458.604 1320.87 458.604 1319.74V1092.93C458.604 1091.22 457.407 1089.74 455.765 1089.37L395.276 1075.52C394.968 1075.45 394.694 1075.42 394.421 1075.42ZM451.249 1315.19L398.116 1302.99V1083.75L451.249 1095.91V1315.19ZM406.601 1296.17L442.73 1304.46V1102.66L406.601 1094.4V1296.17Z" fill="#307C9C"/>
<path d="M267.935 1383.59C265.677 1383.59 263.487 1383.01 261.571 1381.84C257.945 1379.55 255.789 1375.64 255.789 1371.42V1144.65C255.789 1140.02 258.355 1135.84 262.495 1133.75L393.36 1068.23C397.055 1066.34 401.537 1066.52 405.163 1068.74C408.824 1071.04 410.979 1074.95 410.979 1079.16V1305.94C410.979 1310.57 408.413 1314.75 404.274 1316.84L273.409 1382.32C271.732 1383.14 269.817 1383.59 267.935 1383.59ZM398.731 1075.43C398.15 1075.43 397.602 1075.53 397.055 1075.8L266.224 1141.29C264.992 1141.9 264.206 1143.21 264.206 1144.61V1371.39C264.206 1372.66 264.856 1373.86 265.95 1374.51C266.908 1375.09 268.414 1375.13 269.474 1374.68L400.339 1309.2C401.571 1308.54 402.358 1307.28 402.358 1305.87V1079.09C402.358 1077.82 401.673 1076.63 400.613 1075.94C400.1 1075.6 399.415 1075.43 398.731 1075.43ZM271.596 1365.46V1146.91L273.956 1145.74L395.07 1085.05V1303.64L392.71 1304.81L271.596 1365.46ZM280.08 1152.15V1351.69L386.551 1298.4V1098.86L280.08 1152.15Z" fill="#307C9C"/>
<path d="M394.455 650.273C385.696 650.273 378.614 643.18 378.614 634.407V454.402C378.614 445.63 385.696 438.537 394.455 438.537C403.214 438.537 410.296 445.63 410.296 454.402V634.407C410.296 643.18 403.179 650.273 394.455 650.273Z" fill="#307C9C"/>
<path d="M384.326 513.987C380.323 523.856 346.349 607.125 296.09 605.549C267.522 604.658 243.129 576.593 231.907 552.332C225.03 537.494 204.981 484.963 282.85 348.957C345.391 239.713 439.614 131.669 460.176 144.691C478.446 156.273 402.766 240.776 400.098 392.853C399.414 430.992 403.451 467.041 384.326 513.987Z" fill="#80C6DD"/>
<path d="M282.817 348.963C357.265 254.899 431.678 160.836 506.092 66.7389Z" fill="#97D0ED"/>
<path d="M282.817 364.828C279.361 364.828 275.906 363.697 272.998 361.401C266.155 355.953 264.992 345.981 270.432 339.093L493.672 56.9038C499.111 50.0504 509.067 48.8853 515.944 54.2995C522.787 59.748 523.95 69.7197 518.51 76.6074L295.236 358.831C292.123 362.772 287.504 364.828 282.817 364.828Z" fill="#307C9C"/>
<path d="M217.914 574.571C217.504 564.359 217.299 548.356 218.975 528.893C221.986 493.598 232.284 432.636 270.26 369.311C278.711 355.193 291.917 335.352 311.248 313.627" fill="#80C6DD"/>
<path d="M217.914 590.438C209.464 590.438 202.416 583.722 202.108 575.189C201.492 559.392 201.868 543.39 203.203 527.524C206.692 486.506 218.804 424.346 256.678 361.123C268.926 340.665 283.33 321.133 299.444 303.04C305.26 296.529 315.285 295.947 321.819 301.772C328.354 307.598 328.901 317.638 323.085 324.183C308.271 340.803 295.099 358.724 283.843 377.468C249.082 435.482 237.963 492.571 234.747 530.231C233.515 544.76 233.173 559.461 233.755 573.956C234.097 582.728 227.289 590.096 218.53 590.438C218.325 590.438 218.12 590.438 217.914 590.438Z" fill="#307C9C"/>
<path d="M394.214 538.419C392.161 504.803 392.264 464.128 398.012 418.416C404.786 364.582 417.376 319.041 429.967 283.506" fill="#97D0ED"/>
<path d="M394.214 554.287C385.901 554.287 378.921 547.81 378.408 539.381C375.876 498.431 377.21 457.071 382.308 416.396C388.193 369.416 399.244 322.915 415.05 278.162C417.992 269.904 427.059 265.586 435.27 268.499C443.515 271.412 447.826 280.493 444.918 288.751C429.83 331.345 419.361 375.618 413.75 420.337C408.892 459.024 407.66 498.397 410.055 537.393C410.602 546.131 403.965 553.67 395.206 554.218C394.864 554.287 394.522 554.287 394.214 554.287Z" fill="#307C9C"/>
<path d="M767.273 506.281C766.657 506.281 766.007 506.212 765.391 506.041L405.059 418.146C400.817 417.118 398.217 412.834 399.243 408.585C400.27 404.336 404.58 401.766 408.823 402.76L769.154 490.655C773.397 491.683 775.997 495.966 774.971 500.215C774.081 503.848 770.831 506.281 767.273 506.281Z" fill="#307C9C"/>
<path d="M767.274 510.529C766.316 510.529 765.358 510.426 764.4 510.186L404.069 422.291C400.955 421.537 398.287 419.584 396.61 416.842C394.9 414.067 394.387 410.777 395.139 407.59C396.713 401.148 403.35 397.207 409.782 398.612L770.182 486.542C773.296 487.296 775.964 489.249 777.675 491.99C779.386 494.8 779.899 498.09 779.146 501.242C777.778 506.725 772.919 510.529 767.274 510.529ZM407.011 406.768C405.335 406.768 403.795 407.899 403.419 409.544C403.179 410.537 403.35 411.531 403.864 412.388C404.377 413.21 405.164 413.793 406.087 413.998L767.308 502.031C769.019 502.031 770.456 500.9 770.867 499.221C771.106 498.261 770.935 497.267 770.422 496.411C769.909 495.588 769.122 495.006 768.164 494.766L407.798 406.871C407.559 406.802 407.251 406.768 407.011 406.768Z" fill="#307C9C"/>
<path d="M312.719 518.31H312.685C299.547 518.31 288.941 507.618 288.941 494.46L289.386 219.432C289.42 206.274 300.026 195.651 313.164 195.651H313.198C326.336 195.651 336.942 206.342 336.942 219.501L336.497 494.528C336.463 507.687 325.823 518.31 312.719 518.31Z" fill="#307C9C"/>
<path d="M353.02 499.596L280.489 567.377L288.871 369.484L336.803 306.673L353.02 499.596Z" fill="#80C6DD"/>
<path d="M329.166 910.148C341.655 888.481 338.648 863.323 322.448 853.955C306.248 844.587 282.991 854.557 270.501 876.223C258.011 897.89 261.019 923.048 277.219 932.416C293.418 941.784 316.676 931.814 329.166 910.148Z" fill="#80C6DD"/>
<path d="M290.688 943.939C284.496 943.939 278.577 942.397 273.274 939.313C263.215 933.522 256.817 923.07 255.278 909.912C253.807 897.61 256.817 884.246 263.694 872.286C270.571 860.327 280.63 851.041 292.023 846.175C304.168 840.966 316.417 841.309 326.475 847.1C336.534 852.891 342.932 863.343 344.471 876.501C345.942 888.803 342.966 902.167 336.055 914.127C329.178 926.086 319.119 935.372 307.726 940.238C301.979 942.705 296.231 943.939 290.688 943.939ZM308.992 858.408C305.571 858.408 301.944 859.196 298.249 860.807C290.004 864.336 282.614 871.258 277.414 880.271C272.213 889.283 269.955 899.152 271.016 908.061C271.974 916.114 275.6 922.351 281.211 925.606C286.822 928.861 294.007 928.861 301.5 925.675C309.745 922.145 317.135 915.223 322.335 906.211C327.536 897.199 329.794 887.33 328.733 878.42C327.775 870.333 324.149 864.131 318.538 860.876C315.664 859.231 312.448 858.408 308.992 858.408Z" fill="#307C9C"/>
<path d="M290.686 948.189C283.638 948.189 277.035 946.442 271.116 942.981C259.895 936.539 252.778 924.956 251.033 910.427C249.46 897.234 252.641 882.911 259.997 870.163C267.353 857.416 278.13 847.513 290.31 842.27C303.721 836.513 317.27 836.89 328.56 843.401C339.782 849.877 346.932 861.46 348.677 876.023C350.251 889.216 347.069 903.54 339.713 916.253C332.358 929 321.581 938.937 309.367 944.146C303.14 946.853 296.845 948.189 290.686 948.189ZM308.99 846.793C304.029 846.793 298.863 847.924 293.663 850.117C283.125 854.64 273.785 863.276 267.353 874.447C260.921 885.618 258.115 898.023 259.45 909.433C260.852 921.221 266.532 930.542 275.393 935.648C284.186 940.754 295.168 941.028 306.014 936.367C316.551 931.844 325.891 923.209 332.323 912.038C338.756 900.867 341.561 888.462 340.227 877.085C338.824 865.263 333.145 855.943 324.283 850.871C319.63 848.13 314.43 846.793 308.99 846.793ZM290.72 932.29C286.512 932.29 282.578 931.296 279.088 929.274C272.28 925.299 267.935 917.966 266.806 908.542C265.642 898.708 268.071 887.914 273.717 878.113C279.396 868.313 287.504 860.774 296.571 856.902C305.09 853.167 313.848 853.27 320.623 857.176C327.465 861.151 331.81 868.484 332.939 877.908C334.103 887.742 331.639 898.537 325.994 908.337C320.349 918.103 312.24 925.642 303.14 929.548C298.897 931.399 294.689 932.29 290.72 932.29ZM308.99 862.693C306.082 862.693 303.037 863.379 299.924 864.715C292.5 867.902 285.794 874.173 281.072 882.397C276.351 890.587 274.264 899.565 275.222 907.583C276.009 914.265 278.917 919.371 283.33 921.941C287.744 924.477 293.594 924.442 299.821 921.77C307.245 918.583 313.917 912.312 318.638 904.122C323.394 895.898 325.481 886.954 324.523 878.936C323.736 872.254 320.828 867.148 316.414 864.578C314.225 863.31 311.727 862.693 308.99 862.693Z" fill="#307C9C"/>
<path d="M708.049 994.003L709.897 770.581L518.133 720.311" fill="#98CFEC"/>
<path d="M708.05 1002.82C708.016 1002.82 708.016 1002.82 707.982 1002.82C703.124 1002.78 699.223 998.806 699.258 993.941L701.037 777.338L515.91 728.816C511.223 727.582 508.383 722.785 509.615 718.056C510.847 713.327 515.636 710.483 520.358 711.785L712.122 762.021C716.022 763.049 718.725 766.578 718.691 770.588L716.843 994.043C716.809 998.944 712.874 1002.82 708.05 1002.82Z" fill="#307C9C"/>
<path d="M708.049 1007.06H707.98C704.456 1007.06 701.172 1005.66 698.743 1003.15C696.314 1000.65 694.979 997.364 695.014 993.869L696.758 780.59L514.814 732.925C511.461 732.068 508.621 729.909 506.876 726.928C505.097 723.912 504.618 720.383 505.508 716.99C506.397 713.564 508.587 710.72 511.632 708.972C514.608 707.224 518.166 706.745 521.485 707.704L713.181 757.94C718.963 759.447 722.966 764.69 722.897 770.687L721.05 994.143C721.05 1001.24 715.199 1007.06 708.049 1007.06ZM518.064 715.757C517.311 715.757 516.558 715.962 515.874 716.339C514.814 716.956 514.061 717.95 513.753 719.149C513.445 720.314 513.616 721.548 514.232 722.61C514.848 723.672 515.84 724.392 517.003 724.701L705.346 774.045L703.533 993.971C703.533 995.171 703.977 996.336 704.833 997.192C705.688 998.049 706.817 998.529 708.049 998.529L708.083 1002.78V998.529C710.581 998.529 712.599 996.507 712.633 994.006L714.481 770.55C714.481 768.46 713.112 766.643 711.094 766.129L519.33 715.894C518.885 715.825 518.474 715.757 518.064 715.757Z" fill="#307C9C"/>
<path d="M470.339 981.743L658.955 1030.09L707.161 995.107" fill="#98CFEC"/>
<path d="M658.953 1038.86C658.235 1038.86 657.482 1038.76 656.764 1038.59L468.147 990.272C463.46 989.073 460.62 984.275 461.818 979.547C463.015 974.818 467.771 972.008 472.526 973.207L657.14 1020.5L701.993 987.942C705.928 985.132 711.436 985.955 714.276 989.93C717.115 993.87 716.26 999.387 712.325 1002.23L664.119 1037.22C662.614 1038.31 660.801 1038.86 658.953 1038.86Z" fill="#307C9C"/>
<path d="M658.955 1043.15C657.86 1043.15 656.799 1043.01 655.739 1042.74L467.122 994.42C460.143 992.638 455.935 985.476 457.714 978.52C459.493 971.564 466.609 967.383 473.588 969.096L656.286 1015.91L699.531 984.517C705.45 980.268 713.559 981.638 717.767 987.464C719.82 990.274 720.641 993.735 720.059 997.196C719.512 1000.62 717.664 1003.67 714.824 1005.73L666.618 1040.68C664.395 1042.29 661.726 1043.15 658.955 1043.15ZM470.338 977.184C468.285 977.184 466.472 978.554 465.959 980.61C465.343 983.009 466.814 985.51 469.243 986.127L657.826 1034.44C659.023 1034.75 660.528 1034.51 661.623 1033.72L709.829 998.738C710.822 998.018 711.472 996.99 711.643 995.791C711.814 994.591 711.54 993.392 710.822 992.398C709.385 990.411 706.511 989.931 704.458 991.37L657.997 1025.09L471.467 977.286C471.091 977.252 470.68 977.184 470.338 977.184Z" fill="#307C9C"/>
<path d="M517.825 720.557L471.33 753.864L469.311 977.423" fill="#98CFEC"/>
<path d="M469.309 986.227C469.275 986.227 469.24 986.227 469.24 986.227C464.382 986.159 460.482 982.218 460.516 977.352L462.535 753.793C462.569 750.983 463.937 748.345 466.195 746.734L512.691 713.392C516.625 710.514 522.134 711.439 524.939 715.414C527.779 719.355 526.855 724.872 522.921 727.682L480.052 758.419L478.067 977.523C478.033 982.355 474.133 986.227 469.309 986.227Z" fill="#307C9C"/>
<path d="M469.31 990.515H469.242C462.023 990.446 456.206 984.518 456.275 977.322L458.293 753.763C458.293 749.617 460.346 745.676 463.767 743.243L510.229 709.935C513.034 707.879 516.421 707.023 519.945 707.64C523.401 708.222 526.411 710.073 528.464 712.951C532.638 718.776 531.304 726.966 525.454 731.147L484.329 760.617L482.379 977.562C482.277 984.689 476.426 990.515 469.31 990.515ZM517.824 715.966C516.9 715.966 515.976 716.275 515.224 716.823L468.694 750.165C467.531 751.022 466.812 752.358 466.812 753.797L464.794 977.356C464.794 979.858 466.812 981.948 469.31 981.948V986.197V981.948C471.807 981.948 473.826 979.926 473.86 977.425L475.845 756.196L520.458 724.191C522.477 722.717 522.956 719.873 521.519 717.851C520.801 716.823 519.74 716.172 518.542 716.001C518.303 716.001 518.063 715.966 517.824 715.966Z" fill="#307C9C"/>
<path d="M635.456 931.585C663.67 915.011 668.617 870.966 646.507 833.207C624.397 795.447 583.601 778.273 555.387 794.846C527.174 811.419 522.226 855.464 544.336 893.223C566.446 930.983 607.242 948.158 635.456 931.585Z" fill="#C4E8F1"/>
<path d="M611.605 945.482C602.88 945.482 593.814 943.563 584.713 939.725C566.033 931.843 549.371 916.697 537.876 897.028C513.721 855.736 519.88 807.008 551.629 788.333C567.367 779.081 586.732 778.498 606.199 786.688C624.879 794.569 641.541 809.715 653.037 829.385C677.225 870.676 671.033 919.404 639.283 938.08C630.901 942.98 621.492 945.482 611.605 945.482ZM579.308 796.077C572.02 796.077 565.212 797.825 559.225 801.354C534.625 815.781 530.896 855.291 550.842 889.386C560.73 906.246 574.791 919.199 590.529 925.812C605.515 932.117 620.09 931.843 631.654 925.058C656.253 910.632 659.982 871.122 640.002 837.026C630.114 820.167 616.052 807.248 600.314 800.635C593.13 797.585 586.013 796.077 579.308 796.077ZM555.393 794.878H555.53H555.393Z" fill="#307C9C"/>
<path d="M611.603 949.734C602.229 949.734 592.615 947.678 583.035 943.634C563.5 935.41 546.154 919.613 534.179 899.19C508.827 855.876 515.67 804.51 549.438 784.669C566.374 774.732 587.107 774.081 607.806 782.785C627.341 791.043 644.687 806.84 656.662 827.229C682.014 870.543 675.171 921.909 641.403 941.784C632.405 947.061 622.346 949.734 611.603 949.734ZM555.391 791.077C554.81 791.386 554.262 791.694 553.715 792.037C523.984 809.479 518.51 855.636 541.501 894.906C552.552 913.788 568.461 928.317 586.32 935.821C604.35 943.429 622.517 942.983 637.126 934.451C666.857 916.975 672.331 870.851 649.34 831.581C638.289 812.734 622.38 798.205 604.521 790.666C587.073 783.333 569.761 783.47 555.562 791.043V798.65C556.076 798.342 556.555 798.033 557.068 797.725C569.658 790.289 585.944 789.946 601.989 796.731C618.549 803.688 633.363 817.257 643.695 834.905C653.788 852.175 658.441 871.331 656.799 888.875C655.088 906.934 646.911 921.087 633.808 928.797C621.115 936.233 605.171 936.644 588.886 929.79C572.361 922.834 557.547 909.299 547.18 891.617C526.447 856.15 530.313 814.996 555.562 798.685L555.391 791.077ZM579.306 800.329C572.669 800.329 566.647 801.906 561.379 805.024C538.798 818.285 535.719 855.157 554.502 887.265C563.945 903.336 577.322 915.638 592.17 921.875C605.89 927.632 619.164 927.426 629.497 921.361C640.171 915.09 646.877 903.233 648.314 887.985C649.819 872.222 645.577 854.883 636.339 839.154C626.931 823.083 613.519 810.781 598.671 804.544C592.068 801.769 585.567 800.329 579.306 800.329Z" fill="#307C9C"/>
</g>
<defs>
<clipPath id="clip0_2_2">
<rect width="988" height="1069" fill="white"/>
</clipPath>
</defs>
</svg>
