<svg viewBox="0 0 988 1069" fill="none" xmlns="http://www.w3.org/2000/svg">
<path d="M241.563 568.079L183.781 622.457C181.954 624.202 180.5 626.3 179.506 628.624C178.512 630.948 178 633.449 178 635.977C178 638.505 178.512 641.006 179.506 643.33C180.5 645.654 181.954 647.752 183.781 649.497C215.038 679.622 262.188 721.149 262.188 721.149C262.188 721.149 397.163 839.405 455.443 923.16L488.708 971.01C490.449 973.505 492.772 975.536 495.475 976.928C498.179 978.32 501.181 979.031 504.221 978.999C507.261 978.967 510.247 978.192 512.921 976.743C515.594 975.294 517.873 973.214 519.561 970.683L551.72 921.991C607.946 837.084 745.707 714.825 745.707 714.825C745.707 714.825 787.362 677.846 816.238 650.385C818.085 648.625 819.552 646.504 820.549 644.155C821.55 641.791 822.043 639.244 821.997 636.678C821.966 634.114 821.404 631.584 820.347 629.248C819.287 626.913 817.762 624.819 815.864 623.095L757.195 569.637C753.686 566.443 749.091 564.711 744.349 564.795C739.606 564.879 735.075 566.773 731.682 570.089L515.171 780.526C511.694 783.858 507.065 785.718 502.251 785.718C497.437 785.718 492.808 783.858 489.331 780.526L267.247 568.157C263.788 564.86 259.198 563.015 254.421 563C249.644 562.986 245.042 564.803 241.563 568.079Z" fill="#FF686B"/>
<path d="M276.099 91.7876C213.662 98.8313 155.825 128.019 113.099 174.047C70.3726 220.075 45.5916 279.888 43.2589 342.62C40.0546 435.207 66.8556 505.293 109.134 565.153C109.873 566.206 110.827 567.091 111.934 567.749C113.045 568.411 114.286 568.825 115.573 568.961C116.855 569.079 118.147 568.93 119.369 568.526C120.586 568.108 121.7 567.435 122.635 566.552L195.323 498.176C196.842 496.776 197.822 494.888 198.092 492.841C198.362 490.794 197.905 488.717 196.801 486.971C171.848 448.438 158.815 403.413 159.329 357.523C159.399 317.183 175.477 278.517 204.037 250.001C232.598 221.485 271.311 205.446 311.689 205.401C343.756 206.403 374.847 216.657 401.207 234.927C412.204 243.132 432.519 259.9 446.316 271.508C447.293 272.326 448.433 272.926 449.661 273.267C450.889 273.609 452.176 273.684 453.435 273.489C454.694 273.293 455.897 272.831 456.963 272.133C458.029 271.435 458.933 270.517 459.615 269.442C460.531 268.002 461.012 266.33 461 264.624V138.454C461.011 136.228 460.19 134.078 458.698 132.425C448.245 120.863 400.103 77.7239 276.099 91.7876Z" fill="#FF686B"/>
<path d="M712.451 91.7876C775.017 98.8459 832.968 128.041 875.775 174.068C918.582 220.095 943.405 279.9 945.733 342.619C948.992 435.206 922.129 505.292 879.925 565.152C879.184 566.205 878.228 567.089 877.119 567.747C876.005 568.41 874.761 568.824 873.471 568.959C872.186 569.08 870.89 568.932 869.667 568.524C868.442 568.107 867.32 567.434 866.377 566.55L793.319 498.174C791.815 496.763 790.846 494.877 790.576 492.835C790.306 490.794 790.752 488.722 791.838 486.97C816.875 448.45 829.941 403.417 829.396 357.522C829.351 317.183 813.25 278.509 784.629 249.989C756.007 221.47 717.203 205.434 676.733 205.401C644.592 206.405 613.431 216.659 587.009 234.927C575.986 243.132 555.625 259.899 541.796 271.508C540.46 272.608 538.838 273.309 537.118 273.528C535.425 273.74 533.707 273.47 532.161 272.751C530.618 272.02 529.311 270.874 528.388 269.441C527.477 267.999 526.996 266.328 527 264.624V138.454C526.99 136.223 527.825 134.069 529.339 132.425C539.862 120.863 588.24 77.7239 712.451 91.7876Z" fill="#FF686B"/>
</svg>
