<svg viewBox="0 0 22 24" fill="none" xmlns="http://www.w3.org/2000/svg">
<path d="M15.4939 12.848V7.24729L18.8811 9.20373V14.7986L15.4939 12.848ZM20.3353 7.24729L8.23166 0.259578C7.93764 0.0887964 7.60368 -0.00115967 7.26366 -0.00115967C6.92364 -0.00115967 6.58967 0.0887964 6.29566 0.259578L0.969461 3.33441C0.674725 3.50457 0.429971 3.74932 0.259796 4.04405C0.0896212 4.33878 2.09472e-05 4.67311 0 5.01344L0 18.9801C0.000237528 19.32 0.089956 19.6538 0.260135 19.9481C0.430314 20.2423 0.674955 20.4865 0.969461 20.6562L6.29566 23.7398C6.58967 23.9106 6.92364 24.0005 7.26366 24.0005C7.60368 24.0005 7.93764 23.9106 8.23166 23.7398L20.3353 16.7521C20.6318 16.583 20.8786 16.3388 21.0508 16.044C21.2231 15.7493 21.3147 15.4144 21.3165 15.0731V8.92341C21.3153 8.5823 21.224 8.24757 21.0517 7.95319C20.8793 7.65881 20.6322 7.41527 20.3353 7.24729ZM9.68293 3.89506L13.0731 5.83982V11.4434L9.68293 9.49574V3.89506ZM2.42073 5.29085L7.2622 2.49635V6.42383L2.42073 9.20373V5.29085ZM2.42073 12.007L7.2622 9.21249V13.1195L2.42073 15.9111V12.007ZM7.2622 21.503L2.42073 18.7056L5.81093 16.7521L10.6524 19.5466L7.2622 21.503ZM13.0731 18.1508L8.22874 15.3534L11.6102 13.3911L16.4604 16.1914L13.0731 18.1508Z" />
</svg>
