<svg viewBox="0 0 500 500" fill="none" xmlns="http://www.w3.org/2000/svg">
<path fill-rule="evenodd" clip-rule="evenodd" d="M113.289 393.088C108.946 398.386 106.774 401.034 104.526 401.121C102.279 401.208 100.043 398.874 95.5722 394.207C77.7824 375.636 74.4277 380.565 73.3252 354.064C70.6417 289.776 108.931 241.804 165.808 207.25C225.63 170.904 287.154 161.883 346.976 134.787C375.003 122.109 408.099 101.836 461.037 60.4757C466.082 56.5347 468.604 54.5641 471.308 55.7006C474.012 56.8372 474.328 59.6504 474.96 65.2767C480.702 116.416 421.227 188.792 329.37 228.614C355.663 229.635 383.672 222.984 413.836 206.657C421.527 202.494 425.372 200.412 427.932 202.321C430.493 204.231 429.676 208.124 428.042 215.91C416.756 269.698 364.88 303.361 262.446 317.23C282.422 323.875 305.644 325.28 333.982 319.62C342.262 317.967 346.401 317.14 348.293 319.65C350.184 322.159 348.434 325.55 344.934 332.33C302.122 415.28 172.383 321.016 113.289 393.088Z" fill="#B7C8FF"/>
<path fill-rule="evenodd" clip-rule="evenodd" d="M72.4374 436.019C68.1984 441.509 66.0788 444.253 63.5804 444.219C61.082 444.185 59.2527 441.678 55.594 436.663C35.3116 408.861 25.2564 381.439 24.1326 354.396C21.4491 290.037 59.738 242.012 116.615 207.42C176.437 171.035 237.961 162.004 297.783 134.878C325.81 122.186 358.904 101.893 411.839 60.4894C416.885 56.5425 419.408 54.5691 422.114 55.7055C424.819 56.8418 425.135 59.6579 425.767 65.2901C431.51 116.486 372.035 188.942 280.177 228.808C306.469 229.83 334.477 223.172 364.638 206.829C372.331 202.661 376.178 200.577 378.739 202.485C381.3 204.393 380.484 208.289 378.852 216.08C367.57 269.933 315.694 303.637 213.253 317.522C233.23 324.174 256.452 325.58 284.791 319.914C293.02 318.269 297.135 317.446 299.031 319.887C300.928 322.327 299.272 325.785 295.96 332.699C254.046 420.184 130.905 360.305 72.4374 436.019Z" fill="#4772FF"/>
</svg>
