<?xml version="1.0" standalone="no"?>
<!DOCTYPE svg PUBLIC "-//W3C//DTD SVG 1.1//EN" "http://www.w3.org/Graphics/SVG/1.1/DTD/svg11.dtd">
<svg xmlns="http://www.w3.org/2000/svg">
<defs >
<font id="Newsreader" horiz-adv-x="1042" ><font-face
    font-family="Newsreader 16pt 16pt"
    units-per-em="2000"
    panose-1="2 0 0 0 0 0 0 0 0 0"
    ascent="1470"
    descent="-530"
    alphabetic="0" />
<glyph unicode=" " horiz-adv-x="466" />
<glyph unicode="!" horiz-adv-x="537" d="M624 1329L575 1181Q565 1151 548 1104T508 996T458 864T403 716T345 560T290 403H223Q244 480 263 559T301 716T336 863T367 995T392 1104T413 1181L456 1332Q460 1346 470 1353T498 1363T547 1366Q579 1366 597 1363T622
1353T624 1329ZM184 230Q233 230 262 202T292 130Q292 91 274 58T223 5T145 -15Q96 -15 67 13T38 85Q38 124 56 157T108 210T184 230Z" />
<glyph unicode="&quot;" horiz-adv-x="690" d="M276 875L357 1306L372 1352H554L539 1306L355 875H276ZM584 875L665 1306L680 1352H862L847 1306L663 875H584Z" />
<glyph unicode="#" horiz-adv-x="1133" d="M904 1352L203 0H115L815 1352H904ZM1192 1352L491 0H403L1104 1352H1192ZM1157 794H259L284 873H1181L1157 794ZM1001 486H102L126 565H1025L1001 486Z" />
<glyph unicode="$" horiz-adv-x="1133" d="M446 -197L979 1550H1062L529 -197H446ZM210 -197L743 1550H827L294 -197H210ZM469 65Q591 65 675 105T803 219T845 391Q844 473 806 522T707 602T579 662T452 728T354 826T316 986Q316 1066 347 1136T440 1259T590 1342T796
1372Q914 1372 994 1349T1115 1288T1156 1203Q1156 1159 1132 1134T1069 1109Q1039 1109 1021 1127T985 1172T942 1225T874 1270T759 1288Q661 1288 593 1256T488 1164T451 1022Q451 950 489 906T588 832T716 774T844 706T943 603T982 438Q982 339 944 255T834
110T662 14T436 -20Q317 -20 236 3T113 66T71 150Q71 181 82 202T113 235T159 246Q189 246 208 228T244 183T287 129T356 84T469 65Z" />
<glyph unicode="%" horiz-adv-x="1614" d="M159 0L1460 1352H1570L269 0H159ZM671 664Q717 664 759 698T836 788T899 912T940 1047T955 1171Q955 1237 933 1265T875 1293Q829 1293 787 1259T709 1168T647 1045T606 910T591 786Q591 720 613 692T671 664ZM880 1363Q941
1363 985 1337T1055 1260T1080 1131Q1080 1043 1050 950T965 776T834 645T665 594Q606 594 561 620T490 697T465 826Q465 914 495 1007T581 1181T712 1312T880 1363ZM1140 60Q1186 60 1228 94T1305 184T1368 308T1409 443T1424 567Q1424 633 1402 661T1344 689Q1298
689 1256 655T1178 564T1116 441T1075 306T1060 182Q1060 116 1082 88T1140 60ZM1349 759Q1410 759 1454 733T1524 656T1549 527Q1549 439 1519 346T1434 172T1303 41T1134 -10Q1075 -10 1030 16T959 93T934 222Q934 310 964 403T1050 577T1181 708T1349 759Z"
/>
<glyph unicode="&amp;" horiz-adv-x="1374" d="M962 219L918 176Q844 103 768 61T615 0T466 -19Q344 -19 262 23T140 139T99 309Q99 379 120 444T192 568T334 679T565 778L634 807Q751 856 822 909T924 1024T955 1154Q955 1215 917 1252T803 1289Q718 1289 665
1258T587 1174T561 1062Q561 1006 578 949T629 836L1073 103L1255 47L1243 0H965L523 740Q491 794 470 844T439 940T428 1031Q428 1133 476 1210T611 1329T810 1372Q902 1372 962 1343T1053 1263T1083 1147Q1083 1063 1042 995T909 864T659 737L591 715Q448 664
373 601T271 469T244 330Q244 225 312 161T516 96Q602 96 691 125T870 238L912 278Q956 327 997 391T1076 538T1149 732L1007 775L1022 822H1443L1429 775L1267 732Q1195 557 1119 432T962 219Z" />
<glyph unicode="&apos;" horiz-adv-x="382" d="M276 875L357 1306L372 1352H554L539 1306L355 875H276Z" />
<glyph unicode="(" horiz-adv-x="553" d="M781 1388Q613 1215 503 1060T331 758T242 462T216 154Q216 91 222 27T243 -105T281 -246L225 -270Q178 -160 149 -64T106 119T92 285Q92 389 107 489T163 693T276 910T463 1151T743 1430L781 1388Z" />
<glyph unicode=")" horiz-adv-x="553" d="M-145 -227Q24 -54 133 100T306 403T395 699T421 1007Q421 1070 415 1134T394 1267T355 1406L412 1430Q459 1321 488 1225T531 1042T545 875Q545 772 530 672T474 468T361 251T174 10T-106 -270L-145 -227Z" />
<glyph unicode="*" horiz-adv-x="863" d="M765 728L705 702L583 934L367 786L327 836L509 1023L300 1183L335 1237L570 1121L657 1369L720 1353L682 1094L944 1087L949 1023L691 978L765 728Z" />
<glyph unicode="+" horiz-adv-x="1033" d="M359 81L584 818H678L452 81H359ZM165 495H899L871 404H137L165 495Z" />
<glyph unicode="," horiz-adv-x="463" d="M-139 -294Q-42 -236 11 -189T86 -102T108 -29Q108 -2 95 16T65 49T36 74T23 99Q23 135 40 164T89 211T163 228Q211 228 242 198T274 111Q274 58 257 5T197 -103T81 -220T-107 -351L-139 -294Z" />
<glyph unicode="-" horiz-adv-x="687" d="M150 515H580L541 386H112L150 515Z" />
<glyph unicode="." horiz-adv-x="449" d="M164 230Q213 230 242 202T271 130Q271 91 253 58T202 5T124 -15Q75 -15 46 13T17 85Q17 124 35 157T87 210T164 230Z" />
<glyph unicode="/" horiz-adv-x="812" d="M-54 0L886 1352H1009L68 0H-54Z" />
<glyph unicode="0" horiz-adv-x="1133" d="M279 366Q279 217 330 142T484 67Q562 67 630 110T755 228T857 397T933 594T980 799T997 988Q997 1137 947 1211T792 1286Q714 1286 646 1243T521 1126T419 957T343 759T296 555T279 366ZM800 1372Q909 1372 988 1322T1110
1174T1153 930Q1153 806 1122 674T1032 418T890 195T703 38T476 -20Q368 -20 289 30T166 179T123 423Q123 547 154 679T244 935T386 1157T573 1314T800 1372Z" />
<glyph unicode="1" horiz-adv-x="1133" d="M472 102L826 1260L862 1188L393 1060L377 1115L969 1372H1014L624 100L869 47L854 0H169L183 47L472 102Z" />
<glyph unicode="2" horiz-adv-x="1133" d="M322 933L257 945Q312 1154 437 1263T734 1372Q837 1372 911 1333T1026 1223T1067 1060Q1067 990 1046 925T975 788T836 630T614 432L155 53L210 142H810L750 128L964 366H1013L828 -28H796L706 0H34L47 44L559 508Q661
603 727 675T831 806T883 914T898 1010Q898 1113 842 1174T674 1235Q558 1235 466 1169T322 933Z" />
<glyph unicode="3" horiz-adv-x="1133" d="M454 60Q527 60 592 88T707 170T785 299T814 467Q814 576 748 630T536 669L456 658L451 730Q591 758 686 801T828 908T876 1055Q876 1141 828 1195T678 1249Q573 1249 496 1191T374 988L311 1005Q344 1129 404 1210T548
1332T732 1372Q834 1372 901 1335T1002 1237T1036 1101Q1036 1004 990 934T859 816T654 737L651 753Q761 751 833 716T942 620T978 473Q978 369 937 279T821 122T641 18T410 -20Q311 -20 236 -2T120 50T78 131Q78 173 105 197T173 222Q203 222 224 206T264 166T308
117T367 76T454 60Z" />
<glyph unicode="4" horiz-adv-x="1133" d="M1135 1228L1215 1256L421 506L408 548H1218L1408 576L1309 415H264L282 470L1218 1369H1332L941 94L1111 47L1097 0H572L587 47L789 96L1135 1228Z" />
<glyph unicode="5" horiz-adv-x="1133" d="M592 1211L642 1245L437 825L461 912Q601 880 694 837T843 742T923 628T947 500Q947 379 902 284T777 120T591 16T363 -20Q229 -20 140 20T51 131Q51 173 78 197T146 222Q175 222 196 207T238 168T282 120T341 81T427
65Q506 65 575 91T696 168T777 288T806 446Q806 502 785 551T710 643T565 721T329 783L613 1352H990L1249 1391L1141 1211H592Z" />
<glyph unicode="6" horiz-adv-x="1133" d="M1172 1400L1190 1330Q982 1276 831 1201T577 1034T413 840T326 628T299 409Q299 219 361 141T536 62Q630 62 708 112T832 253T879 467Q879 556 826 615T643 675Q587 675 526 661T407 619T300 549L262 573Q334 633 398
674T519 740T628 777T728 789Q832 789 900 752T1001 652T1035 511Q1035 397 995 300T885 132T724 20T531 -20Q414 -20 330 26T199 166T152 402Q152 520 179 635T273 859T456 1066T748 1249T1172 1400Z" />
<glyph unicode="7" horiz-adv-x="1300" d="M548 1211L625 1232L440 985H392L521 1380H548L631 1352H1376L1370 1333L501 0H323L1213 1231L1230 1211H548Z" />
<glyph unicode="8" horiz-adv-x="1133" d="M682 711L653 747Q812 784 893 878T975 1099Q975 1186 922 1238T755 1290Q676 1290 613 1260T514 1176T477 1048Q477 976 508 924T593 831T709 749Q756 719 803 685T891 609T956 512T980 382Q980 257 920 168T753 29T504
-20Q377 -20 287 19T149 129T101 292Q101 388 151 471T307 617T582 715L605 674Q481 645 402 592T286 468T248 317Q248 238 277 182T365 95T512 64Q607 64 679 96T792 188T833 333Q833 406 801 458T715 552T598 634Q552 666 506 698T423 772T364 865T341 987Q341
1096 392 1183T541 1321T774 1373Q887 1373 962 1335T1076 1235T1114 1099Q1114 996 1060 915T909 782T682 711Z" />
<glyph unicode="9" horiz-adv-x="1133" d="M102 -48L85 22Q293 76 445 151T700 318T864 513T952 724T979 944Q979 1071 946 1147T853 1256T717 1290Q627 1290 556 1247T444 1124T403 935Q403 819 464 759T657 698Q713 698 767 710T876 750T988 819L1028 797Q955
739 894 699T780 634T677 598T580 587Q475 587 401 624T288 731T249 895Q249 999 285 1086T387 1237T537 1337T722 1372Q848 1372 938 1322T1077 1178T1125 950Q1125 833 1098 718T1004 494T821 287T528 104T102 -48Z" />
<glyph unicode=":" horiz-adv-x="512" d="M174 230Q223 230 252 202T282 130Q282 91 264 58T212 5T135 -15Q86 -15 57 13T27 85Q27 124 45 157T97 210T174 230ZM374 893Q423 893 452 865T482 793Q482 754 464 721T413 668T335 648Q286 648 257 676T228 748Q228
787 246 820T298 873T374 893Z" />
<glyph unicode=";" horiz-adv-x="531" d="M-125 -294Q-28 -236 26 -189T101 -102T122 -29Q122 -2 110 16T80 49T51 74T38 99Q38 135 55 164T103 211T178 228Q225 228 256 198T288 111Q288 58 271 5T211 -103T95 -220T-93 -351L-125 -294ZM384 893Q433 893 462
865T491 793Q491 754 473 721T422 668T345 648Q296 648 267 676T237 748Q237 787 255 820T307 873T384 893Z" />
<glyph unicode="&lt;" horiz-adv-x="1033" d="M149 428L157 453L847 89L819 -4L53 408L77 490L1096 903L1061 791L149 428Z" />
<glyph unicode="=" horiz-adv-x="1033" d="M218 668H953L925 577H190L218 668ZM112 323H847L819 232H84L112 323Z" />
<glyph unicode="&gt;" horiz-adv-x="1033" d="M887 471L879 446L190 810L218 903L984 490L959 408L-59 -4L-25 108L887 471Z" />
<glyph unicode="?" horiz-adv-x="893" d="M321 230Q370 230 399 202T429 130Q429 91 411 58T359 5T282 -15Q233 -15 204 13T174 85Q174 124 192 157T244 210T321 230ZM549 1372Q629 1372 698 1344T821 1264T905 1142T936 990Q936 874 888 790T726 664T418 628L511
737L405 403H352L400 762Q561 753 657 778T797 865T841 1022Q841 1089 816 1144T745 1233T636 1267Q579 1267 541 1255T478 1225T431 1196T384 1183Q348 1183 328 1202T307 1254Q307 1287 328 1314T403 1356T549 1372Z" />
<glyph unicode="@" horiz-adv-x="1818" d="M1292 272Q1369 272 1441 314T1571 433T1661 614T1695 842Q1695 940 1666 1029T1573 1188T1403 1298T1146 1339Q976 1339 836 1287T588 1144T407 932T295 676T257 399Q257 229 327 102T534 -97T866 -168Q963 -168 1063
-151T1262 -97T1457 -1L1491 -63Q1397 -120 1297 -163T1081 -230T826 -254Q614 -254 453 -178T201 41T110 385Q110 536 156 684T291 965T508 1201T800 1362T1161 1421Q1379 1421 1527 1349T1752 1151T1828 864Q1828 723 1781 602T1656 390T1479 249T1277 198Q1164
198 1115 236T1066 349Q1066 379 1073 414T1092 491L1109 551H1129Q1062 451 1007 383T907 275T822 217T743 199Q659 199 609 244T559 387Q559 456 584 539T657 704T768 854T911 964T1077 1006Q1136 1006 1173 980T1242 911L1206 863Q1195 892 1172 911T1110 930Q1054
930 999 895T897 800T813 670T757 529T736 400Q736 358 757 337T817 315Q851 315 895 342T985 419T1072 533T1137 676L1213 911L1247 1000H1397L1252 547Q1231 482 1222 436T1212 358Q1212 309 1233 291T1292 272Z" />
<glyph unicode="A" horiz-adv-x="1354" d="M375 500L406 593H1044L1012 500H375ZM1121 95L1251 48L1236 0H761L775 48L959 93L856 1219H913L169 93L310 48L296 0H-132L-117 48L48 93L913 1372H994L1121 95Z" />
<glyph unicode="B" horiz-adv-x="1250" d="M591 1255L623 1352H916Q1038 1352 1112 1317T1220 1221T1254 1090Q1254 993 1209 912T1077 779T864 716L855 732Q997 722 1072 647T1147 460Q1147 343 1085 238T897 66T583 0H210L241 98H548Q685 98 780 144T925 274T975
471Q975 562 917 615T727 669H411L445 767H763Q866 767 941 807T1057 918T1098 1079Q1098 1136 1073 1175T998 1234T872 1255H591ZM499 1252L357 1303L373 1352H691L278 0H-39L-23 49L147 100L499 1252Z" />
<glyph unicode="C" horiz-adv-x="1363" d="M1071 131L997 82L1209 367H1272L1163 55Q1083 21 970 1T751 -20Q558 -20 426 44T227 226T160 509Q160 659 202 790T325 1029T515 1213T762 1331T1053 1372Q1108 1372 1160 1368T1264 1353T1363 1323L1305 1324L1446
1412H1479L1381 940H1322L1278 1238L1322 1189Q1248 1238 1180 1257T1017 1276Q891 1276 785 1239T595 1133T453 972T363 769T332 536Q332 384 383 282T530 127T762 75Q841 75 916 88T1071 131Z" />
<glyph unicode="D" horiz-adv-x="1487" d="M528 98Q672 98 792 131T1004 227T1160 381T1257 586T1291 838Q1291 972 1240 1065T1081 1207T804 1255H560L592 1352H848Q1063 1352 1200 1294T1402 1120T1467 834Q1467 658 1406 506T1227 241T934 64T532 0H179L211
98H528ZM500 1259L354 1304L369 1352H690L279 0H-35L-20 48L147 96L500 1259Z" />
<glyph unicode="E" horiz-adv-x="1248" d="M500 1259L354 1304L369 1352H690L279 0H-35L-20 48L147 96L500 1259ZM1174 1283L1216 1255H560L592 1352H1211L1329 1405H1359L1279 971H1217L1174 1283ZM927 -61L841 0H179L211 98H905L819 69L1118 388L1169 370L960
-61H927ZM870 448H790L835 661H381L410 757H864L949 969H1029L949 708L870 448Z" />
<glyph unicode="F" horiz-adv-x="1149" d="M1028 931L948 671L869 410H789L834 623H379L409 719H863L948 931H1028ZM1254 967H1192L1149 1282L1191 1255H560L592 1352H1186L1304 1405H1334L1254 967ZM307 93L453 48L438 0H-35L-20 48L147 96L500 1259L354 1304L369
1352H690L307 93Z" />
<glyph unicode="G" horiz-adv-x="1466" d="M761 75Q818 75 883 88T1011 126T1120 183L1015 67L1153 519L981 564L996 612H1469L1454 564L1314 516L1212 183L1226 91L1221 75Q1151 44 1074 23T915 -9T754 -20Q556 -20 424 44T225 227T158 509Q158 659 201 790T326
1029T520 1213T773 1331T1071 1372Q1126 1372 1178 1368T1282 1353T1382 1323L1323 1324L1465 1412H1498L1399 940H1340L1296 1238L1340 1189Q1266 1238 1197 1257T1032 1276Q903 1276 794 1239T599 1134T453 974T362 771T331 539Q331 385 381 282T528 127T761
75Z" />
<glyph unicode="H" horiz-adv-x="1543" d="M374 640L404 738H1317L1288 640H374ZM500 1259L354 1304L369 1352H843L828 1304L661 1257L307 93L453 48L438 0H-35L-20 48L147 96L500 1259ZM1378 1259L1232 1304L1247 1352H1720L1705 1304L1538 1257L1185 93L1331
48L1316 0H842L857 48L1024 96L1378 1259Z" />
<glyph unicode="I" horiz-adv-x="666" d="M500 1259L354 1304L369 1352H843L828 1304L661 1257L307 93L453 48L438 0H-35L-20 48L147 96L500 1259Z" />
<glyph unicode="J" horiz-adv-x="847" d="M612 387Q583 289 533 214T415 86T269 8T101 -19Q13 -19 -36 13T-85 98Q-85 131 -62 156T5 181Q23 181 40 167T79 133T129 100T194 85Q266 85 326 130T424 295L716 1259L570 1304L585 1352H1058L1043 1304L876 1257L612 387Z" />
<glyph unicode="K" horiz-adv-x="1391" d="M1145 89L1282 49L1267 0H825L838 43L963 86L619 653H422L453 749H646L1286 1263L1151 1304L1165 1352H1590L1576 1304L1413 1258L694 680L729 766L1145 89ZM500 1259L354 1304L369 1352H843L828 1304L661 1257L307 93L453
48L438 0H-35L-20 48L147 96L500 1259Z" />
<glyph unicode="L" horiz-adv-x="1140" d="M661 1257L279 0H-35L-20 48L147 96L500 1259L354 1304L369 1352H843L828 1304L661 1257ZM743 68L1034 395L1086 377L883 -61H851L764 0H186L218 98H828L743 68Z" />
<glyph unicode="M" horiz-adv-x="1883" d="M626 1217L208 93L351 48L336 0H-69L-54 48L110 96L543 1247L393 1304L408 1352H751L863 140H805L1667 1352H1756L1755 1322L796 -16H723L606 1211L626 1217ZM1694 1352H2013L1998 1304L1826 1252L1553 93L1696 48L1681
0H1210L1225 48L1392 96L1694 1352Z" />
<glyph unicode="N" horiz-adv-x="1484" d="M1110 205L1076 188L1404 1259L1258 1304L1272 1352H1683L1668 1304L1501 1257L1112 -17H1034L561 1252L596 1231L248 93L394 48L380 0H-31L-16 48L151 96L502 1245L343 1304L357 1352H686L1110 205Z" />
<glyph unicode="O" horiz-adv-x="1506" d="M332 499Q332 294 427 186T705 77Q789 77 866 104T1012 183T1136 304T1232 462T1294 648T1316 854Q1316 1059 1221 1167T943 1275Q859 1275 782 1248T636 1169T511 1048T415 891T354 705T332 499ZM1486 832Q1486 696
1448 570T1338 337T1169 149T952 25T699 -20Q533 -20 413 45T227 231T162 521Q162 657 200 783T310 1016T478 1203T695 1328T949 1372Q1115 1372 1235 1308T1421 1122T1486 832Z" />
<glyph unicode="P" horiz-adv-x="1180" d="M732 682Q820 682 891 705T1012 773T1090 883T1117 1032Q1117 1104 1088 1153T996 1229T832 1255H515L558 1352H870Q1017 1352 1109 1314T1243 1208T1286 1054Q1286 950 1247 864T1131 715T947 618T699 584H321L343 682H732ZM307
93L453 48L438 0H-35L-20 48L147 96L500 1259L354 1304L369 1352H690L307 93Z" />
<glyph unicode="Q" horiz-adv-x="1503" d="M737 -250L343 89Q285 138 245 201T183 343T162 521Q162 657 200 783T310 1016T478 1203T695 1328T949 1372Q1115 1372 1235 1308T1421 1122T1486 832Q1486 705 1448 578T1335 338T1154 143T912 21T613 1L570 48L913
-198Q981 -248 1032 -275T1128 -313T1217 -324T1318 -317L1304 -366Q1263 -379 1227 -388T1153 -401T1068 -405Q1004 -405 956 -392T858 -345T737 -250ZM332 499Q332 294 427 186T705 77Q789 77 866 104T1012 183T1136 304T1232 462T1294 648T1316 854Q1316 1059
1221 1167T943 1275Q859 1275 782 1248T636 1169T511 1048T415 891T354 705T332 499Z" />
<glyph unicode="R" horiz-adv-x="1264" d="M716 732Q828 732 908 774T1031 891T1074 1066Q1074 1158 1012 1206T799 1255H538L572 1352H848Q988 1352 1074 1321T1200 1228T1239 1077Q1239 968 1188 880T1036 736T791 671V677Q856 673 893 650T951 580T987 458L1041
207Q1055 142 1072 111T1116 71T1184 62L1167 0Q1086 -5 1037 -2T960 19T916 73T888 171L823 489Q812 551 794 582T748 623T674 634H352L381 732H716ZM307 93L453 48L438 0H-35L-20 48L147 96L500 1259L354 1304L369 1352H690L307 93Z" />
<glyph unicode="S" horiz-adv-x="1082" d="M997 1193Q936 1240 878 1262T729 1285Q632 1285 566 1255T467 1169T433 1031Q433 951 475 904T582 825T714 759Q781 726 838 683T931 575T966 407Q966 281 901 185T715 34T430 -20Q325 -20 253 -6T102 43L88 394H145L294
52L243 100Q290 83 333 77T430 71Q557 71 643 107T774 210T819 367Q819 444 789 494T712 576T611 632T508 680Q444 713 395 751T317 844T289 983Q289 1095 345 1183T508 1321T767 1372Q843 1372 907 1361T1046 1319L977 1324L1116 1412H1149L1055 944H998L944 1274L997
1193Z" />
<glyph unicode="T" horiz-adv-x="1267" d="M1364 1248H387L493 1272L271 974L217 990L379 1424H411L498 1335L425 1352H1388L1297 1335L1445 1424H1477L1381 973H1328L1293 1270L1364 1248ZM811 1291H972L608 93L754 48L739 0H266L281 48L448 96L811 1291Z" />
<glyph unicode="U" horiz-adv-x="1474" d="M405 515Q363 378 379 286T473 148T689 102Q799 102 892 138T1058 260T1174 491L1409 1259L1262 1304L1277 1352H1687L1673 1304L1506 1257L1267 472Q1214 296 1127 188T920 30T650 -20Q477 -20 367 39T225 222T250 535L471
1259L325 1304L340 1352H813L798 1304L631 1257L405 515Z" />
<glyph unicode="V" horiz-adv-x="1323" d="M374 1257L244 1304L258 1352H734L719 1304L536 1259L630 134H573L1295 1259L1154 1304L1168 1352H1595L1581 1304L1415 1259L573 -20H492L374 1257Z" />
<glyph unicode="W" horiz-adv-x="1838" d="M1818 1257L1668 1305L1683 1352H2103L2089 1305L1932 1257L1259 -17H1178L1117 1167L1183 1187L376 -17H293L387 1255L258 1305L272 1352H750L736 1305L553 1257L469 204H418L1189 1369H1270L1332 170L1243 140L1818 1257Z" />
<glyph unicode="X" horiz-adv-x="1359" d="M752 649L179 96L322 48L307 0H-121L-106 48L57 99L710 720L767 758L1274 1257L1129 1304L1144 1352H1573L1558 1304L1395 1253L805 684L752 649ZM927 96L705 643L694 668L449 1257L311 1304L326 1352H807L792 1304L622
1258L818 776L832 745L1100 98L1242 48L1227 0H746L761 48L927 96Z" />
<glyph unicode="Y" horiz-adv-x="1304" d="M1267 1265L1119 1304L1134 1352H1559L1544 1304L1386 1262L788 589L638 93L784 48L769 0H295L311 48L478 96L625 581L387 1259L252 1304L267 1352H739L724 1304L556 1261L771 633L722 634L1267 1265Z" />
<glyph unicode="Z" horiz-adv-x="1220" d="M1386 1352L1374 1313L204 72L197 98H834L1071 366L1125 360L939 -53H906L823 0H-27L-15 39L1150 1281L1157 1255H557L298 965L247 980L437 1413H472L563 1352H1386Z" />
<glyph unicode="[" horiz-adv-x="636" d="M-17 -252L490 1410H900L875 1331H605L145 -173H415L391 -252H-17Z" />
<glyph unicode="\" horiz-adv-x="751" d="M561 0H463L333 1352H432L561 0Z" />
<glyph unicode="]" horiz-adv-x="639" d="M739 1411L232 -251H-177L-153 -172H117L577 1332H307L331 1411H739Z" />
<glyph unicode="^" horiz-adv-x="1033" d="M770 1259H786L309 601H203L752 1352H842L935 601H847L770 1259Z" />
<glyph unicode="_" horiz-adv-x="781" d="M-197 -203H583L554 -297H-226L-197 -203Z" />
<glyph unicode="`" horiz-adv-x="1000" d="M738 1031H671L474 1340L476 1361H669L738 1031Z" />
<glyph unicode="a" horiz-adv-x="988" d="M534 53L646 389H664Q583 269 519 190T403 66T306 1T220 -18Q162 -18 119 3T51 70T27 188Q27 267 57 360T140 546T266 716T425 840T605 887Q671 887 712 861T784 784L750 729Q736 763 704 785T625 807Q550 807 484 762T362
645T266 490T204 331T182 201Q182 153 209 130T278 106Q315 106 371 139T486 231T597 367T679 533L781 850L902 881H936L670 72L649 114Q684 109 729 121T825 162T925 232L956 193Q839 72 756 26T608 -20Q561 -20 542 -1T534 53Z" />
<glyph unicode="b" horiz-adv-x="937" d="M240 322Q227 281 222 247T216 184Q216 120 247 87T336 54Q392 54 449 89T558 182T650 315T713 470T736 627Q736 696 707 732T621 768Q583 768 541 747T455 689T374 602T305 497T258 382L240 322ZM381 1267Q362 1282 341
1296T296 1322T243 1344L252 1377L539 1430H566L293 533L290 563Q365 683 435 757T571 866T693 901Q793 901 844 835T895 669Q895 566 864 466T777 279T651 124T498 19T333 -20Q216 -20 151 45T85 220Q85 250 91 283T107 351L381 1267Z" />
<glyph unicode="c" horiz-adv-x="756" d="M494 817Q433 817 382 771T293 649T234 481T213 297Q213 188 249 144T356 99Q401 99 443 116T526 175T605 287H667Q615 173 561 106T447 9T311 -20Q191 -20 126 47T61 255Q61 389 101 506T210 712T372 851T569 901Q666
901 715 861T765 767Q765 725 739 703T677 680Q661 680 642 700T599 749Q575 777 549 797T494 817Z" />
<glyph unicode="d" horiz-adv-x="995" d="M759 737Q745 771 713 793T634 816Q558 816 490 771T366 652T269 496T206 335T183 203Q183 154 210 130T279 106Q311 106 356 129T450 193T546 289T632 409T692 545L915 1268Q897 1283 877 1296T834 1322T781 1345L790
1378L1079 1430H1105L680 72L658 114Q693 109 738 121T834 162T934 232L965 193Q849 72 766 26T617 -20Q570 -20 551 -1T543 53L655 389H673Q591 268 526 189T408 65T309 1T221 -18Q163 -18 120 3T52 71T28 190Q28 270 58 364T143 553T271 724T432 849T614 897Q680
897 721 871T793 793L759 737Z" />
<glyph unicode="e" horiz-adv-x="794" d="M527 825Q467 825 418 792T331 702T266 577T227 435T213 297Q213 188 255 144T371 99Q419 99 462 116T544 173T621 287H685Q633 169 580 102T465 8T325 -20Q243 -20 184 11T93 103T61 255Q61 363 87 460T160 638T269 777T404
868T556 901Q632 901 679 875T748 807T770 714Q770 670 752 626T705 554Q642 530 579 507T452 464T325 424T199 387L203 464Q311 491 386 517T510 567T584 617T621 669T631 723Q631 754 619 776T584 812T527 825Z" />
<glyph unicode="f" horiz-adv-x="615" d="M113 794L126 881H716L703 794H113ZM344 197Q305 -1 252 -138T132 -359T-13 -481T-179 -519Q-268 -519 -312 -485T-357 -396Q-357 -359 -332 -331T-263 -302Q-246 -312 -230 -332T-193 -377Q-172 -401 -148 -412T-97 -423Q-55
-423 -18 -403T53 -329T118 -180T178 66L343 910Q375 1075 446 1191T622 1368T862 1430Q938 1430 989 1413T1067 1365T1094 1296Q1094 1257 1067 1231T988 1205Q965 1216 946 1246T905 1299Q884 1324 857 1335T791 1347Q717 1347 661 1313T568 1207T508 1026L344
197Z" />
<glyph unicode="g" horiz-adv-x="839" d="M865 748Q846 748 831 756T797 777T752 801T688 823T593 835L572 887Q651 877 712 881T821 892T908 899Q931 899 942 889T954 857Q954 835 946 816T924 782T896 757T865 748ZM352 326Q390 326 425 344T493 395T548 473T585
574T599 694Q599 766 573 798T497 831Q459 831 423 814T356 763T301 684T263 583T249 463Q249 392 275 359T352 326ZM508 901Q585 901 636 871T714 789T741 666Q741 585 709 511T622 380T494 290T340 257Q263 257 212 287T134 370T108 491Q108 573 139 647T226
778T354 868T508 901ZM313 -519Q212 -519 134 -504T1 -458T-81 -384T-109 -284Q-109 -220 -69 -174T53 -96T258 -48L331 -33L365 -70Q284 -73 222 -87T117 -127T52 -187T30 -264Q30 -320 62 -361T159 -425T320 -448Q417 -448 479 -424T571 -361T602 -278Q602 -239
583 -209T524 -156T422 -113T274 -69Q193 -49 151 -20T95 43T80 109Q80 154 106 189T183 250T301 294L341 271Q271 262 237 236T203 177Q203 160 211 145T240 115T302 82T409 45Q535 7 605 -35T704 -126T733 -237Q733 -299 705 -350T622 -439T490 -498T313 -519Z"
/>
<glyph unicode="h" horiz-adv-x="995" d="M232 235L161 0H18L400 1268Q382 1283 362 1296T318 1322T265 1345L274 1378L563 1430H590L289 483L285 485Q333 572 387 647T498 779T618 866T743 898Q830 898 864 860T899 762Q899 729 889 687T857 592L654 73L652 115Q688
114 730 127T819 168T912 232L945 193Q869 112 805 65T687 -1T586 -20Q522 -20 507 0T514 80L730 626Q740 653 746 675T752 714Q752 741 735 756T673 772Q620 772 558 730T433 614T319 442T232 235Z" />
<glyph unicode="i" horiz-adv-x="570" d="M79 53L347 791L378 762Q344 763 300 748T207 701T110 623L77 660Q155 757 218 809T333 881T430 901Q474 901 493 883T499 828L230 73L210 115Q245 112 290 124T384 163T482 232L513 192Q437 110 374 64T259 -1T161 -20Q103
-20 84 -3T79 53ZM414 1304Q414 1338 429 1365T473 1409T539 1425Q593 1425 625 1393T658 1312Q658 1278 642 1251T599 1207T533 1191Q478 1191 446 1223T414 1304Z" />
<glyph unicode="j" horiz-adv-x="512" d="M392 1304Q392 1338 408 1365T451 1409T517 1425Q572 1425 604 1393T636 1312Q636 1278 621 1251T577 1207T511 1191Q457 1191 425 1223T392 1304ZM244 44Q190 -136 102 -262T-91 -453T-294 -519Q-363 -519 -397 -486T-431
-406Q-431 -363 -405 -336T-347 -308Q-338 -308 -324 -319T-286 -356Q-261 -381 -238 -393T-193 -405Q-158 -405 -124 -388T-56 -329T13 -211T84 -16L326 791L357 762Q324 763 281 747T189 700T91 621L57 658Q128 746 188 799T303 876T409 901Q439 901 456 893T478
869T477 828L244 44Z" />
<glyph unicode="k" horiz-adv-x="952" d="M589 1430L158 0H17L400 1269Q382 1284 362 1297T319 1323T266 1346L275 1378L563 1430H589ZM300 492L305 509Q428 628 514 705T661 824T771 884T867 901Q920 901 949 869T979 794Q979 754 960 726T912 682T850 666Q838
666 828 678T803 714Q789 739 778 749T752 760Q730 760 691 742T603 689T498 607T386 501L415 561Q477 405 517 312T583 174T628 113T666 98Q688 98 719 116T786 168T861 247L897 214Q831 127 780 76T686 3T604 -20Q571 -20 543 -2T483 69T408 223T300 492Z" />
<glyph unicode="l" horiz-adv-x="521" d="M410 1268Q392 1283 372 1296T328 1322T275 1345L285 1378L573 1430H599L191 82L175 115Q211 112 256 124T350 163T448 232L479 192Q403 110 340 64T225 -1T127 -20Q76 -20 54 -4T43 53L410 1268Z" />
<glyph unicode="m" horiz-adv-x="1534" d="M1194 73L1192 115Q1227 114 1269 127T1359 168T1452 232L1485 193Q1408 112 1344 65T1226 -1T1126 -20Q1061 -20 1046 0T1054 80L1270 630Q1280 656 1285 676T1291 714Q1291 741 1274 756T1215 771Q1165 771 1108 732T995
624T888 464T800 267L715 0H568L776 630Q783 648 787 663T793 690T795 714Q795 741 779 756T721 771Q670 771 613 730T500 615T396 444T313 235L240 0H96L328 767Q324 767 321 767T314 767Q273 767 236 753T163 705T90 607L59 620Q98 729 147 789T255 875T375 900Q394
900 412 898T448 893T484 883L359 485V485Q427 608 484 689T593 816T691 881T786 901Q868 901 901 869T935 785Q935 750 923 704T891 594L869 525H868Q928 631 982 703T1088 819T1188 882T1287 902Q1370 902 1405 868T1440 777Q1440 743 1429 698T1394 590L1194
73Z" />
<glyph unicode="n" horiz-adv-x="1076" d="M90 607L59 620Q98 729 147 789T255 875T375 900Q394 900 412 898T448 893T484 883L352 462H353Q404 555 459 634T573 773T695 865T824 898Q911 898 945 860T980 762Q980 729 970 687T938 592L735 73L733 115Q768 114
810 127T900 168T993 232L1026 193Q949 112 885 65T767 -1T667 -20Q602 -20 587 0T595 80L810 626Q821 653 827 675T833 714Q833 741 815 756T754 772Q701 772 638 730T513 614T399 442T313 235L240 0H96L328 767Q324 767 321 767T314 767Q273 767 236 753T163
705T90 607Z" />
<glyph unicode="o" horiz-adv-x="902" d="M557 901Q645 901 707 865T802 761T835 599Q835 478 798 367T694 168T538 31T343 -20Q257 -20 195 16T99 120T65 282Q65 403 102 514T207 712T363 850T557 901ZM346 57Q402 57 452 91T545 183T619 315T668 472T686 635Q686
731 654 777T555 824Q499 824 448 790T355 698T281 566T232 409T214 245Q214 151 246 104T346 57Z" />
<glyph unicode="p" horiz-adv-x="1018" d="M322 286Q311 245 308 221T305 183Q305 129 337 91T445 53Q496 53 547 84T646 171T730 298T788 450T809 612Q809 693 781 731T690 769Q650 769 608 746T524 684T448 593T386 487T346 378L322 286ZM199 86H270L132 -406L306
-454L290 -499H-175L-159 -454L-9 -406L319 767Q318 767 316 767T312 767Q272 767 234 753T160 705T89 607L57 620Q96 729 145 790T250 876T366 902Q393 902 419 897T472 885L374 529L372 554Q437 676 502 752T631 865T752 901Q864 901 915 829T966 659Q966 557
940 459T865 274T751 121T604 18T433 -20Q363 -20 296 6T199 86Z" />
<glyph unicode="q" horiz-adv-x="928" d="M383 -406L634 364H651Q574 251 512 177T399 60T304 0T220 -18Q162 -18 119 3T51 70T27 188Q27 267 57 360T140 546T266 716T425 840T605 887Q671 887 712 861T784 784L750 729Q736 763 704 785T625 807Q550 807 484 762T362
645T266 490T204 331T182 201Q182 153 209 130T279 106Q317 106 372 137T486 224T595 355T674 518L760 782L798 881H931L524 -406L658 -454L644 -499H175L188 -454L383 -406Z" />
<glyph unicode="r" horiz-adv-x="792" d="M328 767Q324 767 321 767T314 767Q273 767 236 753T163 705T90 607L59 620Q98 729 147 789T255 875T375 900Q394 900 412 898T448 893T484 883L370 520H372Q442 654 505 738T629 861T754 901Q815 901 843 872T871 799Q871
763 853 736T808 693T751 678Q744 678 734 687T708 715Q694 735 680 746T652 758Q625 758 591 733T521 663T448 557T380 422T322 268L240 0H96L328 767Z" />
<glyph unicode="s" horiz-adv-x="696" d="M112 219Q125 205 138 185T178 124Q205 84 231 69T286 54Q332 54 369 69T427 116T449 192Q449 223 438 253T399 320T317 404Q265 453 235 493T193 569T180 642Q180 715 215 774T317 867T479 901Q549 901 594 884T661 836T684
767Q684 742 672 722T639 690T588 678Q578 689 564 704T525 754Q499 789 472 805T417 822Q359 822 325 792T290 706Q290 682 302 655T343 591T424 504Q476 454 506 410T549 327T562 249Q562 171 519 111T402 15T235 -20Q156 -20 106 0T32 54T7 126Q7 153 19 174T54
207T112 219Z" />
<glyph unicode="t" horiz-adv-x="637" d="M130 794L146 881H672L659 794H130ZM283 227Q278 209 275 195T269 169T267 149Q267 131 273 123T292 115Q313 115 349 138T432 203T529 307L571 273Q523 206 477 153T386 61T302 2T224 -18Q179 -18 153 8T126 96Q126 123
132 160T152 246L384 1061H525L283 227Z" />
<glyph unicode="u" horiz-adv-x="1033" d="M588 44L701 402V402Q625 268 563 184T449 56T350 -4T256 -20Q180 -20 145 14T110 105Q110 138 121 183T157 293L352 807L378 763Q342 765 296 749T199 701T99 621L63 659Q142 754 206 806T326 879T429 901Q475 901 494
883T500 827L277 236Q269 213 264 194T259 159Q259 134 275 121T326 107Q367 107 421 141T533 242T643 401T733 612L821 881H966L719 79L713 114Q748 110 793 122T889 162T989 232L1019 193Q905 69 821 25T672 -20Q616 -20 597 -5T588 44Z" />
<glyph unicode="v" horiz-adv-x="940" d="M901 748Q901 655 870 550T784 343T655 160T497 29T320 -20Q232 -20 182 23T132 140Q132 183 149 231L334 767Q330 767 327 767T320 767Q279 767 242 753T168 705T96 607L64 620Q95 701 132 755T211 841T299 886T396 900Q415
900 434 898T473 893T512 883L293 243Q286 222 282 205T278 173Q278 131 303 112T374 92Q432 92 490 127T600 220T692 344T755 478T778 596Q778 634 761 664T721 717T681 759T663 790Q663 845 700 873T781 901Q838 901 869 862T901 748Z" />
<glyph unicode="w" horiz-adv-x="1331" d="M769 881H907L720 234Q714 212 711 195T708 162Q708 124 728 108T788 92Q843 92 897 127T998 220T1083 345T1142 479T1163 596Q1163 634 1146 664T1106 717T1066 759T1048 790Q1048 845 1085 873T1166 901Q1204 901 1231
883T1271 832T1285 748Q1285 656 1257 551T1177 344T1057 161T909 29T744 -20Q671 -20 632 11T593 117Q593 143 598 174T613 243L637 324H648Q610 230 566 165T476 59T383 -1T293 -20Q220 -20 177 21T134 137Q134 190 156 255L333 767Q329 767 326 767T319 767Q278
767 241 753T167 705T95 607L63 620Q94 701 131 755T210 841T298 886T395 900Q414 900 433 898T472 893T511 883L289 234Q283 214 280 197T276 166Q276 129 297 111T358 92Q412 92 468 141T572 275T651 470L769 881Z" />
<glyph unicode="x" horiz-adv-x="973" d="M527 424L474 389L296 144Q250 82 212 46T136 -5T57 -20Q-1 -20 -30 11T-60 87Q-60 123 -43 150T-1 192T49 207Q61 207 72 197T95 170Q108 153 119 145T141 137Q160 137 184 150T242 197T320 291L452 468L504 502L672
737Q716 798 754 834T830 885T910 901Q968 901 997 869T1027 794Q1027 759 1011 732T969 689T919 673Q908 673 898 681T874 709Q860 728 849 736T827 744Q807 744 782 731T724 685T647 590L527 424ZM914 314Q846 176 795 104T698 6T603 -20Q579 -20 563 -13T535
11T515 61L362 734Q357 756 354 762T340 769Q304 769 258 722T166 557L117 566Q157 695 201 768T293 871T394 901Q417 901 433 894T459 869T477 819L625 161Q633 126 638 118T655 109Q679 109 707 125T773 188T868 325L914 314Z" />
<glyph unicode="y" horiz-adv-x="954" d="M110 524L62 530Q83 640 110 712T170 825T241 884T323 901Q346 901 362 890T393 851T419 771Q433 719 450 615T492 342T546 -71L414 -169Q394 -6 378 116T348 328T324 485T305 602Q293 669 285 701T271 742T253 752Q232
752 208 731T159 661T110 524ZM458 -65L496 -27Q572 88 624 191T709 399T757 621T774 883Q808 894 833 897T884 900Q912 900 927 889T941 852Q938 791 925 725T887 583T824 420T731 232T604 13Q484 -184 383 -301T191 -468T10 -519Q-65 -519 -98 -485T-131 -397Q-131
-353 -106 -326T-45 -298Q-37 -298 -25 -307T15 -345Q43 -371 66 -383T111 -395Q149 -395 206 -355T329 -241T458 -65Z" />
<glyph unicode="z" horiz-adv-x="841" d="M-11 24L816 918L873 867L50 -21L-11 24ZM148 593L97 614Q144 718 185 778T266 864T349 891T445 877L759 787L659 660L424 729Q372 744 338 748T276 739T219 691T148 593ZM428 0L156 123L269 247L461 149Q504 126 534
119T591 121T653 164T740 255L780 222Q711 127 662 73T575 -2T502 -21T428 0Z" />
<glyph unicode="{" horiz-adv-x="631" d="M70 540L93 616L177 619Q223 621 255 634T309 676T343 749Q365 828 370 892T381 1013T402 1131Q431 1239 521 1321T757 1415L870 1423L857 1354L766 1345Q667 1337 622 1284T556 1155Q542 1101 534 1044T516 924T488 793Q467
721 404 655T234 562L241 586Q290 572 320 547T364 490T378 420Q378 380 359 315T314 175T269 34T249 -75Q249 -122 271 -155T345 -202L380 -210L356 -267L307 -259Q215 -243 166 -183T116 -44Q116 3 138 71T189 212T240 349T263 454Q263 495 236 515T156 537L70
540Z" />
<glyph unicode="|" horiz-adv-x="499" d="M-88 -519L501 1481H610L21 -519H-88Z" />
<glyph unicode="}" horiz-adv-x="630" d="M644 616L620 539L536 537Q491 536 458 522T404 479T370 406Q350 328 344 264T333 142T312 24Q282 -83 192 -165T-44 -259L-156 -267L-144 -198L-53 -190Q46 -181 91 -128T157 1Q173 55 181 113T198 233T226 363Q246 434
310 501T480 593L472 570Q424 584 394 609T350 666T336 736Q336 775 355 841T400 981T445 1121T464 1231Q464 1278 442 1311T369 1358L333 1366L357 1423L407 1415Q499 1400 548 1340T598 1200Q598 1153 576 1085T524 944T473 806T451 702Q451 661 478 641T558
619L644 616Z" />
<glyph unicode="~" horiz-adv-x="1033" d="M921 556Q894 470 854 422T766 354T666 335Q613 335 575 355T505 404T439 452T357 473Q304 473 270 441T211 342H117Q144 429 184 477T272 544T372 564Q425 564 463 543T533 495T600 446T681 425Q734 425 768 457T828 556H921Z" />
<glyph unicode="&#xa0;" horiz-adv-x="466" />
<glyph unicode="&#xa1;" horiz-adv-x="493" d="M-111 -452L-62 -303Q-53 -274 -36 -227T5 -118T55 14T110 161T168 317T223 474H289Q269 397 250 318T212 162T177 14T146 -118T121 -226T100 -303L57 -455Q53 -469 43 -476T15 -486T-34 -489Q-65 -489 -84 -486T-109
-475T-111 -452ZM328 647Q279 647 250 675T221 747Q221 786 239 819T291 872T367 892Q416 892 445 864T475 792Q475 753 457 720T406 667T328 647Z" />
<glyph unicode="&#xa2;" horiz-adv-x="1133" d="M201 0L1040 1352H1130L290 0H201ZM743 1050Q682 1050 631 1004T542 882T483 714T462 530Q462 421 497 377T604 332Q649 332 691 349T775 408T854 520H916Q864 406 810 339T695 242T560 213Q439 213 375 280T310
488Q310 622 350 739T459 945T621 1084T818 1134Q915 1134 964 1094T1014 1000Q1014 959 988 937T926 914Q910 913 891 933T848 982Q824 1010 798 1030T743 1050Z" />
<glyph unicode="&#xa3;" horiz-adv-x="1133" d="M911 718L888 641H185L208 718H911ZM207 142H816L749 128L964 366H1012L828 -28H795L705 0H43L55 40Q171 142 245 219T362 356T422 465T439 559Q439 607 423 649T386 736T349 833T332 954Q332 1066 383 1161T533
1314T776 1372Q893 1372 969 1325T1083 1183T1125 949L1057 946Q1041 1101 973 1177T772 1253Q676 1253 614 1218T521 1122T490 983Q490 906 512 842T557 718T580 596Q580 555 559 503T493 387T376 249T204 89L207 142Z" />
<glyph unicode="&#xa4;" horiz-adv-x="872" d="M202 723L273 774L352 657L281 603L202 723ZM727 754L779 689L658 586L606 649L727 754ZM674 176L602 124L524 242L594 296L674 176ZM96 209L217 313L269 249L148 145L96 209ZM486 726Q557 726 610 697T692 617T722
501Q722 415 681 340T565 219T389 172Q319 172 266 201T183 281T153 398Q153 484 194 559T310 680T486 726ZM400 255Q470 255 522 287T604 372T633 489Q633 559 592 601T476 644Q405 644 353 612T271 526T242 409Q242 340 283 298T400 255Z" />
<glyph unicode="&#xa5;" horiz-adv-x="1133" d="M610 1261L476 1306L489 1352H953L940 1306L780 1262L1024 875L974 885L1388 1262L1259 1306L1272 1352H1691L1677 1306L1515 1262L1033 845L803 94L956 46L942 0H452L467 46L649 94L877 839L610 1261ZM1281 582L1257
504H440L464 582H1281ZM1364 854L1340 777H524L547 854H1364Z" />
<glyph unicode="&#xa6;" horiz-adv-x="499" d="M374 677H265L502 1481H611L374 677ZM-87 -519L150 285H258L22 -519H-87Z" />
<glyph unicode="&#xa7;" horiz-adv-x="1007" d="M567 810Q455 804 385 771T283 687T251 576Q251 516 283 476T367 404T475 344T583 280T666 192T699 64Q699 -31 651 -106T510 -225T283 -270Q184 -270 116 -251T13 -197T-22 -120Q-22 -74 4 -49T67 -24Q100 -24
120 -48T163 -106T229 -163T347 -188Q416 -188 464 -161T538 -90T563 4Q563 62 531 102T449 174T342 235T235 302T152 392T120 522Q120 656 223 750T533 868L567 810ZM820 557Q820 615 788 653T706 721T599 779T491 843T408 929T376 1056Q376 1144 421 1215T559
1329T795 1372Q907 1372 971 1348T1064 1288T1092 1216Q1092 1175 1063 1149T997 1122Q961 1122 941 1147T899 1206T843 1264T742 1289Q664 1289 612 1264T533 1196T507 1103Q507 1046 539 1006T623 934T732 874T841 808T924 720T957 595Q957 453 850 362T542 255L508
314Q610 319 679 351T784 437T820 557Z" />
<glyph unicode="&#xa8;" horiz-adv-x="1000" d="M547 1087Q498 1087 468 1117T438 1194Q438 1224 452 1249T492 1290T552 1305Q602 1305 631 1275T661 1199Q661 1168 647 1143T608 1103T547 1087ZM907 1087Q858 1087 829 1117T799 1194Q799 1224 813 1249T852
1290T913 1305Q962 1305 992 1275T1022 1199Q1022 1168 1008 1143T969 1103T907 1087Z" />
<glyph unicode="&#xa9;" horiz-adv-x="1672" d="M903 358Q945 358 976 364T1058 394L981 345L1141 547H1188L1090 326Q1033 307 989 298T884 289Q766 289 683 328T555 438T511 609Q511 704 546 788T649 936T812 1038T1026 1075Q1074 1075 1130 1069T1223 1052L1172
1045L1268 1101H1287L1232 805H1193L1152 1004L1195 956Q1162 979 1113 990T1009 1002Q917 1002 850 969T740 880T675 752T654 605Q654 489 715 424T903 358ZM835 71Q990 71 1116 130T1332 290T1470 518T1519 780Q1519 932 1453 1045T1265 1220T980 1282Q825 1282
699 1223T483 1062T345 835T296 573Q296 420 362 308T550 133T835 71ZM985 1372Q1179 1372 1323 1301T1545 1100T1624 791Q1624 633 1568 488T1407 228T1155 47T829 -20Q636 -20 492 51T269 252T190 561Q190 719 246 864T408 1124T659 1305T985 1372Z" />
<glyph unicode="&#xaa;" horiz-adv-x="900" d="M171 472L201 569H793L764 472H171ZM625 755L699 979H722Q647 866 591 803T489 714T401 688Q337 688 296 724T254 842Q254 915 288 1003T382 1172T516 1305T673 1357Q729 1357 758 1330T804 1264L772 1213Q760 1246
740 1265T687 1285Q637 1285 593 1253T512 1171T448 1063T407 950T392 856Q392 821 406 804T451 787Q479 787 515 809T591 870T663 962T718 1081L800 1334L906 1352H942L748 750L718 785Q759 780 807 793T919 852L941 819Q881 762 836 734T755 696T685 687Q646
687 630 704T625 755Z" />
<glyph unicode="&#xab;" horiz-adv-x="983" d="M242 510L389 59L330 31L63 419L80 473L581 861L623 807L192 350L242 510ZM632 510L779 59L720 31L453 419L470 473L971 861L1013 807L582 350L632 510Z" />
<glyph unicode="&#xac;" horiz-adv-x="1033" d="M210 669H946L811 228H718L825 578H182L210 669Z" />
<glyph unicode="&#xad;" horiz-adv-x="687" d="M150 515H580L541 386H112L150 515Z" />
<glyph unicode="&#xae;" horiz-adv-x="1117" d="M892 767L881 732Q832 729 807 732T772 749T759 794L753 869Q750 905 741 916T705 927H576L595 977H729Q775 977 801 1003T828 1075Q828 1100 813 1113T757 1126H633L644 1177H790Q865 1177 895 1150T926 1082Q926
1022 887 989T760 948L762 955Q802 954 821 938T844 881L851 815Q855 783 863 775T892 767ZM722 1177L600 779L647 762L638 732H439L448 762L507 779L615 1132L566 1149L574 1177H722ZM667 588Q797 588 887 647T1023 801T1070 1001Q1070 1092 1035 1159T929 1265T748
1303Q619 1303 529 1244T393 1090T346 890Q346 799 381 731T487 626T667 588ZM756 1372Q951 1372 1050 1271T1149 1008Q1149 884 1092 772T925 589T659 518Q465 518 366 619T267 883Q267 1006 324 1118T491 1301T756 1372Z" />
<glyph unicode="&#xaf;" horiz-adv-x="1000" d="M469 1144L501 1248H993L961 1144H469Z" />
<glyph unicode="&#xb0;" horiz-adv-x="777" d="M610 1364Q732 1364 805 1294T879 1115Q879 1018 836 939T714 813T534 766Q413 766 339 836T265 1016Q265 1112 308 1191T430 1317T610 1364ZM544 842Q625 842 681 879T765 976T794 1102Q794 1187 743 1237T599 1288Q519
1288 463 1251T379 1154T350 1028Q350 943 401 893T544 842Z" />
<glyph unicode="&#xb1;" horiz-adv-x="1033" d="M604 882H697L472 145H378L604 882ZM185 559H919L891 468H157L185 559ZM42 91H777L748 0H14L42 91Z" />
<glyph unicode="&#xb2;" horiz-adv-x="690" d="M556 685L722 853H758L631 579H610L559 604H158L168 635L425 861Q503 928 543 976T599 1061T615 1134Q615 1185 585 1215T499 1245Q434 1245 387 1212T308 1099L263 1112Q291 1199 334 1255T435 1339T565 1367Q653
1367 710 1321T767 1196Q767 1160 757 1125T719 1051T636 960T493 838L298 686L305 736H664L556 685Z" />
<glyph unicode="&#xb3;" horiz-adv-x="634" d="M370 953L373 1002Q465 1025 514 1052T581 1110T599 1177Q599 1218 573 1241T499 1264Q442 1264 402 1235T335 1137L294 1151Q328 1250 389 1308T555 1366Q634 1366 679 1330T725 1226Q725 1184 704 1145T637 1075T521
1025L531 1031Q612 1031 654 992T696 883Q696 801 648 735T514 630T311 590Q215 590 180 617T145 676Q145 698 159 716T206 735Q226 735 241 723T272 696T310 668T368 655Q407 655 442 672T505 718T549 787T565 871Q565 928 528 953T411 962L370 953Z" />
<glyph unicode="&#xb4;" horiz-adv-x="1000" d="M622 1031L859 1361H1086L1084 1340L691 1031H622Z" />
<glyph unicode="&#xb5;" horiz-adv-x="1110" d="M739 612L827 881H972L725 79L719 114Q754 110 799 122T895 162T995 232L1026 193Q911 69 827 25T678 -20Q623 -20 604 -5T594 44L707 402H708Q631 268 570 184T459 56T363 -4T270 -20Q224 -20 192 2T149 68T153
176L173 202L39 -493L-113 -509H-128L374 881H517L285 236Q278 214 274 195T269 161Q269 136 285 122T337 107Q378 107 432 141T542 242T650 401T739 612Z" />
<glyph unicode="&#xb6;" horiz-adv-x="1167" d="M461 -249H363L853 1352H1124L1094 1255H921L461 -249ZM704 -249H606L1096 1352H1350L1337 1307L1165 1262L704 -249ZM922 1352L719 687H513Q370 687 299 748T228 936Q228 1011 252 1085T329 1219T465 1316T668 1352H922Z" />
<glyph unicode="&#xb7;" horiz-adv-x="483" d="M263 573Q312 573 341 545T370 473Q370 434 352 401T301 348T223 328Q174 328 145 356T116 428Q116 467 134 500T186 553T263 573Z" />
<glyph unicode="&#xb8;" horiz-adv-x="1000" d="M171 -519Q109 -519 82 -497T54 -447Q54 -423 70 -405T115 -387Q138 -387 152 -402T183 -433T232 -449Q289 -449 323 -417T357 -333Q357 -292 317 -265T175 -225L181 -206L385 45H462L255 -208L284 -123Q387 -142
424 -184T462 -277Q462 -344 424 -399T320 -486T171 -519Z" />
<glyph unicode="&#xb9;" horiz-adv-x="514" d="M293 672L484 1295L499 1229L277 1171L275 1218L570 1357H634L424 672L524 642L512 604H161L172 642L293 672Z" />
<glyph unicode="&#xba;" horiz-adv-x="857" d="M150 472L180 569H772L743 472H150ZM688 1372Q798 1372 854 1314T911 1150Q911 1061 883 980T802 834T678 732T520 694Q412 694 355 752T297 917Q297 1005 326 1087T407 1233T531 1334T688 1372ZM526 766Q579 766
624 802T704 898T756 1029T775 1172Q775 1240 753 1270T683 1301Q630 1301 585 1265T505 1168T452 1037T433 894Q433 827 455 797T526 766Z" />
<glyph unicode="&#xbb;" horiz-adv-x="1017" d="M365 383L218 834L277 861L543 473L527 419L26 31L-17 85L414 543L365 383ZM755 383L608 834L667 861L933 473L917 419L416 31L373 85L804 543L755 383Z" />
<glyph unicode="&#xbc;" horiz-adv-x="1540" d="M318 672L509 1295L524 1229L302 1171L300 1218L595 1357H659L449 672L549 642L537 604H186L197 642L318 672ZM145 0L1446 1352H1556L255 0H145ZM1246 691L1293 676L886 289L880 323H1322L1452 350L1373 219H785L805
278L1287 753H1396L1187 68L1286 38L1275 0H923L934 38L1056 68L1246 691Z" />
<glyph unicode="&#xbd;" horiz-adv-x="1622" d="M142 0L1443 1352H1553L252 0H142ZM1301 81L1467 249H1503L1376 -25H1355L1304 0H903L913 31L1170 257Q1248 324 1288 372T1344 457T1360 530Q1360 581 1330 611T1244 641Q1179 641 1132 608T1053 495L1008 508Q1036
595 1079 651T1180 735T1310 763Q1398 763 1455 717T1512 592Q1512 556 1502 521T1464 447T1381 356T1238 234L1043 82L1050 132H1409L1301 81ZM316 672L507 1295L522 1229L300 1171L298 1218L593 1357H657L447 672L547 642L535 604H184L195 642L316 672Z" />
<glyph unicode="&#xbe;" horiz-adv-x="1545" d="M144 0L1445 1352H1555L254 0H144ZM386 953L389 1002Q481 1025 530 1052T597 1110T615 1177Q615 1218 589 1241T515 1264Q458 1264 418 1235T351 1137L310 1151Q344 1250 405 1308T571 1366Q650 1366 695 1330T741
1226Q741 1184 720 1145T653 1075T537 1025L547 1031Q628 1031 670 992T712 883Q712 801 664 735T530 630T327 590Q231 590 196 617T161 676Q161 698 175 716T222 735Q242 735 257 723T288 696T326 668T384 655Q423 655 458 672T521 718T565 787T581 871Q581 928
544 953T427 962L386 953ZM1251 691L1298 676L891 289L885 323H1327L1457 350L1378 219H790L810 278L1292 753H1401L1192 68L1291 38L1280 0H928L939 38L1061 68L1251 691Z" />
<glyph unicode="&#xbf;" horiz-adv-x="884" d="M581 651Q532 651 503 679T474 751Q474 789 492 822T544 875T620 895Q669 895 698 867T728 796Q728 757 710 724T659 671T581 651ZM354 -492Q274 -492 204 -463T81 -383T-3 -261T-33 -109Q-33 7 15 91T176 218T484
252L391 144L497 478H550L503 119Q342 127 245 102T105 16T62 -141Q62 -207 87 -263T157 -352T266 -386Q324 -386 362 -374T425 -344T471 -315T518 -302Q554 -302 574 -321T595 -373Q595 -406 574 -433T500 -476T354 -492Z" />
<glyph unicode="&#xc0;" horiz-adv-x="1354" d="M375 500L406 593H1044L1012 500H375ZM1121 95L1251 48L1236 0H761L775 48L959 93L856 1219H913L169 93L310 48L296 0H-132L-117 48L48 93L913 1372H994L1121 95ZM1013 1487H955L764 1720L766 1742H957L1013 1487Z" />
<glyph unicode="&#xc1;" horiz-adv-x="1354" d="M375 500L406 593H1044L1012 500H375ZM1121 95L1251 48L1236 0H761L775 48L959 93L856 1219H913L169 93L310 48L296 0H-132L-117 48L48 93L913 1372H994L1121 95ZM936 1487L1113 1742H1342L1340 1720L1001 1487H936Z" />
<glyph unicode="&#xc2;" horiz-adv-x="1354" d="M375 500L406 593H1044L1012 500H375ZM1121 95L1251 48L1236 0H761L775 48L959 93L856 1219H913L169 93L310 48L296 0H-132L-117 48L48 93L913 1372H994L1121 95ZM694 1487L979 1742H1127L1256 1487H1183L1016 1634H1043L787
1487H694Z" />
<glyph unicode="&#xc3;" horiz-adv-x="1354" d="M375 500L406 593H1044L1012 500H375ZM1121 95L1251 48L1236 0H761L775 48L959 93L856 1219H913L169 93L310 48L296 0H-132L-117 48L48 93L913 1372H994L1121 95ZM1317 1739Q1274 1635 1240 1580T1173 1503T1100
1482Q1068 1482 1039 1501T984 1546T932 1591T883 1611Q867 1611 851 1603T818 1568T777 1490H708Q751 1595 785 1650T852 1726T925 1747Q957 1747 986 1728T1041 1683T1093 1638T1142 1618Q1158 1618 1174 1627T1208 1662T1248 1739H1317Z" />
<glyph unicode="&#xc4;" horiz-adv-x="1354" d="M375 500L406 593H1044L1012 500H375ZM1121 95L1251 48L1236 0H761L775 48L959 93L856 1219H913L169 93L310 48L296 0H-132L-117 48L48 93L913 1372H994L1121 95ZM829 1506Q780 1506 750 1536T720 1612Q720 1643
734 1668T774 1708T835 1724Q884 1724 914 1694T944 1618Q944 1587 930 1562T891 1521T829 1506ZM1190 1506Q1141 1506 1111 1536T1081 1612Q1081 1643 1095 1668T1135 1708T1195 1724Q1244 1724 1274 1694T1304 1618Q1304 1587 1290 1562T1251 1521T1190 1506Z"
/>
<glyph unicode="&#xc5;" horiz-adv-x="1354" d="M375 500L406 593H1044L1012 500H375ZM1121 95L1251 48L1236 0H761L775 48L959 93L856 1219H913L169 93L310 48L296 0H-132L-117 48L48 93L913 1372H994L1121 95ZM1037 1791Q1108 1791 1151 1751T1195 1643Q1195
1560 1141 1500T989 1439Q918 1439 875 1479T831 1587Q831 1670 886 1730T1037 1791ZM996 1500Q1058 1500 1093 1540T1128 1632Q1128 1680 1103 1705T1030 1730Q968 1730 933 1690T898 1598Q898 1551 923 1526T996 1500Z" />
<glyph unicode="&#xc6;" horiz-adv-x="1924" d="M167 93L308 48L294 0H-143L-128 48L37 93L1053 1257L917 1303L932 1352H1366L955 0H641L656 48L823 96L1180 1270L1187 1265L167 93ZM1603 -61L1517 0H855L887 98H1581L1495 69L1794 388L1845 370L1636 -61H1603ZM473
502L504 598H1049L1019 502H473ZM1466 448L1511 661H1057L1086 757H1540L1625 969H1705L1625 708L1546 448H1466ZM1893 971L1850 1283L1892 1255H1236L1268 1352H1887L2005 1405H2035L1955 971H1893Z" />
<glyph unicode="&#xc7;" horiz-adv-x="1363" d="M1070 131L996 82L1208 367H1271L1162 55Q1083 21 970 1T750 -20Q557 -20 425 44T226 226T159 509Q159 659 202 790T324 1029T514 1213T761 1331T1052 1372Q1107 1372 1159 1368T1263 1353T1362 1323L1304 1324L1445
1412H1478L1380 940H1321L1277 1238L1321 1189Q1247 1238 1179 1257T1016 1276Q890 1276 784 1239T594 1133T452 972T363 769T332 536Q332 384 382 282T529 127T761 75Q840 75 915 88T1070 131ZM546 -449Q602 -449 636 -417T671 -333Q671 -292 631 -265T488 -225L494
-206L699 45H775L568 -208L597 -123Q701 -142 738 -184T775 -277Q775 -344 737 -399T634 -486T485 -519Q422 -519 395 -497T367 -447Q367 -423 383 -405T428 -387Q451 -387 465 -402T496 -433T546 -449Z" />
<glyph unicode="&#xc8;" horiz-adv-x="1248" d="M500 1259L354 1304L369 1352H690L279 0H-35L-20 48L147 96L500 1259ZM1174 1283L1216 1255H560L592 1352H1211L1329 1405H1359L1279 971H1217L1174 1283ZM927 -61L841 0H179L211 98H905L819 69L1118 388L1169 370L960
-61H927ZM870 448H790L835 661H381L410 757H864L949 969H1029L949 708L870 448ZM942 1487H884L693 1720L695 1742H886L942 1487Z" />
<glyph unicode="&#xc9;" horiz-adv-x="1248" d="M500 1259L354 1304L369 1352H690L279 0H-35L-20 48L147 96L500 1259ZM1174 1283L1216 1255H560L592 1352H1211L1329 1405H1359L1279 971H1217L1174 1283ZM927 -61L841 0H179L211 98H905L819 69L1118 388L1169 370L960
-61H927ZM870 448H790L835 661H381L410 757H864L949 969H1029L949 708L870 448ZM865 1487L1042 1742H1271L1269 1720L930 1487H865Z" />
<glyph unicode="&#xca;" horiz-adv-x="1248" d="M500 1259L354 1304L369 1352H690L279 0H-35L-20 48L147 96L500 1259ZM1174 1283L1216 1255H560L592 1352H1211L1329 1405H1359L1279 971H1217L1174 1283ZM927 -61L841 0H179L211 98H905L819 69L1118 388L1169 370L960
-61H927ZM870 448H790L835 661H381L410 757H864L949 969H1029L949 708L870 448ZM623 1487L908 1742H1056L1185 1487H1112L945 1634H972L716 1487H623Z" />
<glyph unicode="&#xcb;" horiz-adv-x="1248" d="M500 1259L354 1304L369 1352H690L279 0H-35L-20 48L147 96L500 1259ZM1174 1283L1216 1255H560L592 1352H1211L1329 1405H1359L1279 971H1217L1174 1283ZM927 -61L841 0H179L211 98H905L819 69L1118 388L1169 370L960
-61H927ZM870 448H790L835 661H381L410 757H864L949 969H1029L949 708L870 448ZM758 1506Q709 1506 679 1536T649 1612Q649 1643 663 1668T703 1708T764 1724Q813 1724 843 1694T873 1618Q873 1587 859 1562T820 1521T758 1506ZM1119 1506Q1070 1506 1040 1536T1010
1612Q1010 1643 1024 1668T1064 1708T1124 1724Q1173 1724 1203 1694T1233 1618Q1233 1587 1219 1562T1180 1521T1119 1506Z" />
<glyph unicode="&#xcc;" horiz-adv-x="666" d="M500 1259L354 1304L369 1352H843L828 1304L661 1257L307 93L453 48L438 0H-35L-20 48L147 96L500 1259ZM672 1487H614L423 1720L425 1742H616L672 1487Z" />
<glyph unicode="&#xcd;" horiz-adv-x="666" d="M500 1259L354 1304L369 1352H843L828 1304L661 1257L307 93L453 48L438 0H-35L-20 48L147 96L500 1259ZM595 1487L772 1742H1001L999 1720L660 1487H595Z" />
<glyph unicode="&#xce;" horiz-adv-x="666" d="M500 1259L354 1304L369 1352H843L828 1304L661 1257L307 93L453 48L438 0H-35L-20 48L147 96L500 1259ZM353 1487L638 1742H786L915 1487H842L675 1634H702L446 1487H353Z" />
<glyph unicode="&#xcf;" horiz-adv-x="666" d="M500 1259L354 1304L369 1352H843L828 1304L661 1257L307 93L453 48L438 0H-35L-20 48L147 96L500 1259ZM488 1506Q439 1506 409 1536T379 1612Q379 1643 393 1668T433 1708T494 1724Q543 1724 573 1694T603 1618Q603
1587 589 1562T550 1521T488 1506ZM849 1506Q800 1506 770 1536T740 1612Q740 1643 754 1668T794 1708T854 1724Q903 1724 933 1694T963 1618Q963 1587 949 1562T910 1521T849 1506Z" />
<glyph unicode="&#xd0;" horiz-adv-x="1488" d="M154 636L185 736H813L783 636H154ZM529 98Q674 98 793 131T1006 227T1162 381T1259 586T1292 838Q1292 972 1241 1065T1083 1207T806 1255H561L594 1352H849Q1065 1352 1201 1294T1403 1120T1469 834Q1469 658
1408 506T1228 241T935 64T533 0H180L212 98H529ZM502 1259L355 1304L371 1352H691L281 0H-34L-19 48L148 96L502 1259Z" />
<glyph unicode="&#xd1;" horiz-adv-x="1484" d="M1110 205L1076 188L1404 1259L1258 1304L1272 1352H1683L1668 1304L1501 1257L1112 -17H1034L561 1252L596 1231L248 93L394 48L380 0H-31L-16 48L151 96L502 1245L343 1304L357 1352H686L1110 205ZM1388 1739Q1345
1635 1311 1580T1244 1503T1171 1482Q1139 1482 1110 1501T1055 1546T1003 1591T954 1611Q938 1611 922 1603T889 1568T848 1490H779Q822 1595 856 1650T923 1726T996 1747Q1028 1747 1057 1728T1112 1683T1164 1638T1213 1618Q1229 1618 1245 1627T1279 1662T1319
1739H1388Z" />
<glyph unicode="&#xd2;" horiz-adv-x="1506" d="M332 499Q332 294 427 186T705 77Q789 77 866 104T1012 183T1136 304T1232 462T1294 648T1316 854Q1316 1059 1221 1167T943 1275Q859 1275 782 1248T636 1169T511 1048T415 891T354 705T332 499ZM1486 832Q1486
696 1448 570T1338 337T1169 149T952 25T699 -20Q533 -20 413 45T227 231T162 521Q162 657 200 783T310 1016T478 1203T695 1328T949 1372Q1115 1372 1235 1308T1421 1122T1486 832ZM1046 1487H988L797 1720L799 1742H990L1046 1487Z" />
<glyph unicode="&#xd3;" horiz-adv-x="1506" d="M332 499Q332 294 427 186T705 77Q789 77 866 104T1012 183T1136 304T1232 462T1294 648T1316 854Q1316 1059 1221 1167T943 1275Q859 1275 782 1248T636 1169T511 1048T415 891T354 705T332 499ZM1486 832Q1486
696 1448 570T1338 337T1169 149T952 25T699 -20Q533 -20 413 45T227 231T162 521Q162 657 200 783T310 1016T478 1203T695 1328T949 1372Q1115 1372 1235 1308T1421 1122T1486 832ZM969 1487L1146 1742H1375L1373 1720L1034 1487H969Z" />
<glyph unicode="&#xd4;" horiz-adv-x="1506" d="M332 499Q332 294 427 186T705 77Q789 77 866 104T1012 183T1136 304T1232 462T1294 648T1316 854Q1316 1059 1221 1167T943 1275Q859 1275 782 1248T636 1169T511 1048T415 891T354 705T332 499ZM1486 832Q1486
696 1448 570T1338 337T1169 149T952 25T699 -20Q533 -20 413 45T227 231T162 521Q162 657 200 783T310 1016T478 1203T695 1328T949 1372Q1115 1372 1235 1308T1421 1122T1486 832ZM727 1487L1012 1742H1160L1289 1487H1216L1049 1634H1076L820 1487H727Z" />
<glyph unicode="&#xd5;" horiz-adv-x="1506" d="M332 499Q332 294 427 186T705 77Q789 77 866 104T1012 183T1136 304T1232 462T1294 648T1316 854Q1316 1059 1221 1167T943 1275Q859 1275 782 1248T636 1169T511 1048T415 891T354 705T332 499ZM1486 832Q1486
696 1448 570T1338 337T1169 149T952 25T699 -20Q533 -20 413 45T227 231T162 521Q162 657 200 783T310 1016T478 1203T695 1328T949 1372Q1115 1372 1235 1308T1421 1122T1486 832ZM1350 1739Q1307 1635 1273 1580T1206 1503T1133 1482Q1101 1482 1072 1501T1017
1546T965 1591T916 1611Q900 1611 884 1603T851 1568T810 1490H741Q784 1595 818 1650T885 1726T958 1747Q990 1747 1019 1728T1074 1683T1126 1638T1175 1618Q1191 1618 1207 1627T1241 1662T1281 1739H1350Z" />
<glyph unicode="&#xd6;" horiz-adv-x="1506" d="M332 499Q332 294 427 186T705 77Q789 77 866 104T1012 183T1136 304T1232 462T1294 648T1316 854Q1316 1059 1221 1167T943 1275Q859 1275 782 1248T636 1169T511 1048T415 891T354 705T332 499ZM1486 832Q1486
696 1448 570T1338 337T1169 149T952 25T699 -20Q533 -20 413 45T227 231T162 521Q162 657 200 783T310 1016T478 1203T695 1328T949 1372Q1115 1372 1235 1308T1421 1122T1486 832ZM862 1506Q813 1506 783 1536T753 1612Q753 1643 767 1668T807 1708T868 1724Q917
1724 947 1694T977 1618Q977 1587 963 1562T924 1521T862 1506ZM1223 1506Q1174 1506 1144 1536T1114 1612Q1114 1643 1128 1668T1168 1708T1228 1724Q1277 1724 1307 1694T1337 1618Q1337 1587 1323 1562T1284 1521T1223 1506Z" />
<glyph unicode="&#xd7;" horiz-adv-x="1033" d="M115 194L875 772L921 704L162 126L115 194ZM287 720L358 772L750 178L678 126L287 720Z" />
<glyph unicode="&#xd8;" horiz-adv-x="1531" d="M1701 1352L1405 1098L1342 1052L365 206L326 169L129 0H-26L277 260L325 297L1306 1146L1351 1185L1546 1352H1701ZM345 499Q345 294 440 186T718 77Q802 77 879 104T1025 183T1149 304T1245 462T1307 648T1329
854Q1329 1059 1234 1167T956 1275Q872 1275 795 1248T649 1169T524 1048T428 891T367 705T345 499ZM1499 832Q1499 696 1461 570T1351 337T1182 149T965 25T712 -20Q546 -20 426 45T240 231T175 521Q175 657 213 783T323 1016T491 1203T708 1328T962 1372Q1128
1372 1248 1308T1434 1122T1499 832Z" />
<glyph unicode="&#xd9;" horiz-adv-x="1474" d="M405 515Q363 378 379 286T473 148T689 102Q799 102 892 138T1058 260T1174 491L1409 1259L1262 1304L1277 1352H1687L1673 1304L1506 1257L1267 472Q1214 296 1127 188T920 30T650 -20Q477 -20 367 39T225 222T250
535L471 1259L325 1304L340 1352H813L798 1304L631 1257L405 515ZM1094 1487H1036L845 1720L847 1742H1038L1094 1487Z" />
<glyph unicode="&#xda;" horiz-adv-x="1474" d="M405 515Q363 378 379 286T473 148T689 102Q799 102 892 138T1058 260T1174 491L1409 1259L1262 1304L1277 1352H1687L1673 1304L1506 1257L1267 472Q1214 296 1127 188T920 30T650 -20Q477 -20 367 39T225 222T250
535L471 1259L325 1304L340 1352H813L798 1304L631 1257L405 515ZM1017 1487L1194 1742H1423L1421 1720L1082 1487H1017Z" />
<glyph unicode="&#xdb;" horiz-adv-x="1474" d="M405 515Q363 378 379 286T473 148T689 102Q799 102 892 138T1058 260T1174 491L1409 1259L1262 1304L1277 1352H1687L1673 1304L1506 1257L1267 472Q1214 296 1127 188T920 30T650 -20Q477 -20 367 39T225 222T250
535L471 1259L325 1304L340 1352H813L798 1304L631 1257L405 515ZM775 1487L1060 1742H1208L1337 1487H1264L1097 1634H1124L868 1487H775Z" />
<glyph unicode="&#xdc;" horiz-adv-x="1474" d="M405 515Q363 378 379 286T473 148T689 102Q799 102 892 138T1058 260T1174 491L1409 1259L1262 1304L1277 1352H1687L1673 1304L1506 1257L1267 472Q1214 296 1127 188T920 30T650 -20Q477 -20 367 39T225 222T250
535L471 1259L325 1304L340 1352H813L798 1304L631 1257L405 515ZM910 1506Q861 1506 831 1536T801 1612Q801 1643 815 1668T855 1708T916 1724Q965 1724 995 1694T1025 1618Q1025 1587 1011 1562T972 1521T910 1506ZM1271 1506Q1222 1506 1192 1536T1162 1612Q1162
1643 1176 1668T1216 1708T1276 1724Q1325 1724 1355 1694T1385 1618Q1385 1587 1371 1562T1332 1521T1271 1506Z" />
<glyph unicode="&#xdd;" horiz-adv-x="1304" d="M1267 1265L1119 1304L1134 1352H1559L1544 1304L1386 1262L788 589L638 93L784 48L769 0H295L311 48L478 96L625 581L387 1259L252 1304L267 1352H739L724 1304L556 1261L771 633L722 634L1267 1265ZM909 1487L1086
1742H1315L1313 1720L974 1487H909Z" />
<glyph unicode="&#xde;" horiz-adv-x="1201" d="M648 409Q736 409 807 432T929 501T1006 611T1033 760Q1033 832 1005 881T913 957T749 983H431L474 1080H786Q934 1080 1025 1042T1159 936T1202 782Q1202 678 1163 592T1048 443T863 346T616 312H237L259 409H648ZM500
1259L354 1304L369 1352H843L828 1304L661 1257L307 93L453 48L438 0H-35L-20 48L147 96L500 1259Z" />
<glyph unicode="&#xdf;" horiz-adv-x="1139" d="M113 794L126 881H403L390 794H113ZM344 197Q305 -1 252 -138T132 -359T-13 -481T-179 -519Q-268 -519 -312 -485T-357 -396Q-357 -359 -332 -331T-263 -302Q-246 -312 -230 -332T-193 -377Q-172 -401 -148 -412T-97
-423Q-55 -423 -18 -403T53 -329T118 -180T178 66L343 910Q376 1078 443 1194T611 1370T844 1430Q939 1430 1005 1398T1106 1312T1141 1191Q1141 1104 1092 1041T932 914Q860 872 823 840T774 779T761 719Q761 697 770 673T804 613T880 523Q954 443 983 381T1012
259Q1012 178 971 115T861 16T703 -20Q589 -20 537 21T485 115Q485 140 496 159T529 190T583 201Q595 188 607 171T641 119Q664 84 688 69T746 54Q790 54 824 71T879 120T899 198Q899 243 874 292T772 419Q695 497 669 553T642 664Q642 713 660 755T719 839T830
930Q900 980 938 1023T992 1107T1007 1192Q1007 1266 964 1314T830 1363Q749 1363 685 1326T576 1215T508 1026L344 197Z" />
<glyph unicode="&#xe0;" horiz-adv-x="988" d="M534 53L646 389H664Q583 269 519 190T403 66T306 1T220 -18Q162 -18 119 3T51 70T27 188Q27 267 57 360T140 546T266 716T425 840T605 887Q671 887 712 861T784 784L750 729Q736 763 704 785T625 807Q550 807 484
762T362 645T266 490T204 331T182 201Q182 153 209 130T278 106Q315 106 371 139T486 231T597 367T679 533L781 850L902 881H936L670 72L649 114Q684 109 729 121T825 162T925 232L956 193Q839 72 756 26T608 -20Q561 -20 542 -1T534 53ZM734 1030H667L470 1339L472
1360H665L734 1030Z" />
<glyph unicode="&#xe1;" horiz-adv-x="988" d="M534 53L646 389H664Q583 269 519 190T403 66T306 1T220 -18Q162 -18 119 3T51 70T27 188Q27 267 57 360T140 546T266 716T425 840T605 887Q671 887 712 861T784 784L750 729Q736 763 704 785T625 807Q550 807 484
762T362 645T266 490T204 331T182 201Q182 153 209 130T278 106Q315 106 371 139T486 231T597 367T679 533L781 850L902 881H936L670 72L649 114Q684 109 729 121T825 162T925 232L956 193Q839 72 756 26T608 -20Q561 -20 542 -1T534 53ZM618 1030L855 1360H1082L1080
1339L687 1030H618Z" />
<glyph unicode="&#xe2;" horiz-adv-x="988" d="M534 53L646 389H664Q583 269 519 190T403 66T306 1T220 -18Q162 -18 119 3T51 70T27 188Q27 267 57 360T140 546T266 716T425 840T605 887Q671 887 712 861T784 784L750 729Q736 763 704 785T625 807Q550 807 484
762T362 645T266 490T204 331T182 201Q182 153 209 130T278 106Q315 106 371 139T486 231T597 367T679 533L781 850L902 881H936L670 72L649 114Q684 109 729 121T825 162T925 232L956 193Q839 72 756 26T608 -20Q561 -20 542 -1T534 53ZM403 1030L699 1360H854L949
1030H886L737 1238H765L489 1030H403Z" />
<glyph unicode="&#xe3;" horiz-adv-x="988" d="M534 53L646 389H664Q583 269 519 190T403 66T306 1T220 -18Q162 -18 119 3T51 70T27 188Q27 267 57 360T140 546T266 716T425 840T605 887Q671 887 712 861T784 784L750 729Q736 763 704 785T625 807Q550 807 484
762T362 645T266 490T204 331T182 201Q182 153 209 130T278 106Q315 106 371 139T486 231T597 367T679 533L781 850L902 881H936L670 72L649 114Q684 109 729 121T825 162T925 232L956 193Q839 72 756 26T608 -20Q561 -20 542 -1T534 53ZM1019 1346Q977 1233 942
1165T872 1065T797 1034Q763 1034 740 1061T698 1123T661 1185T619 1212Q603 1212 587 1200T551 1151T503 1044H433Q475 1158 510 1225T579 1324T655 1355Q689 1355 712 1328T754 1266T791 1204T833 1177Q848 1177 864 1190T900 1239T949 1346H1019Z" />
<glyph unicode="&#xe4;" horiz-adv-x="988" d="M534 53L646 389H664Q583 269 519 190T403 66T306 1T220 -18Q162 -18 119 3T51 70T27 188Q27 267 57 360T140 546T266 716T425 840T605 887Q671 887 712 861T784 784L750 729Q736 763 704 785T625 807Q550 807 484
762T362 645T266 490T204 331T182 201Q182 153 209 130T278 106Q315 106 371 139T486 231T597 367T679 533L781 850L902 881H936L670 72L649 114Q684 109 729 121T825 162T925 232L956 193Q839 72 756 26T608 -20Q561 -20 542 -1T534 53ZM543 1086Q494 1086 464
1116T434 1193Q434 1223 448 1248T488 1289T548 1304Q598 1304 627 1274T657 1198Q657 1167 643 1142T604 1102T543 1086ZM903 1086Q854 1086 825 1116T795 1193Q795 1223 809 1248T848 1289T909 1304Q958 1304 988 1274T1018 1198Q1018 1167 1004 1142T965 1102T903
1086Z" />
<glyph unicode="&#xe5;" horiz-adv-x="988" d="M534 53L646 389H664Q583 269 519 190T403 66T306 1T220 -18Q162 -18 119 3T51 70T27 188Q27 267 57 360T140 546T266 716T425 840T605 887Q671 887 712 861T784 784L750 729Q736 763 704 785T625 807Q550 807 484
762T362 645T266 490T204 331T182 201Q182 153 209 130T278 106Q315 106 371 139T486 231T597 367T679 533L781 850L902 881H936L670 72L649 114Q684 109 729 121T825 162T925 232L956 193Q839 72 756 26T608 -20Q561 -20 542 -1T534 53ZM750 1372Q821 1372 864
1332T908 1223Q908 1141 853 1080T702 1019Q631 1019 588 1059T544 1168Q544 1250 599 1311T750 1372ZM709 1081Q771 1081 806 1121T841 1213Q841 1260 815 1285T742 1311Q680 1311 645 1271T610 1178Q610 1131 636 1106T709 1081Z" />
<glyph unicode="&#xe6;" horiz-adv-x="1366" d="M895 756L844 734Q897 803 970 852T1145 901Q1215 901 1257 875T1321 807T1342 714Q1342 670 1324 626T1277 554Q1214 530 1151 507T1024 464T897 424T771 387L775 464Q883 491 958 517T1082 567T1156 617T1192
669T1203 723Q1203 754 1191 776T1156 812T1099 825Q1039 825 990 792T902 702T838 577T799 435T785 297Q785 188 827 144T942 99Q991 99 1034 116T1116 173T1193 287H1257Q1205 169 1152 102T1037 8T897 -20Q795 -20 730 26T644 168T655 413L664 389Q583 269 519
190T403 66T306 1T220 -18Q162 -18 119 3T51 70T27 188Q27 267 57 360T140 546T266 716T425 840T605 887Q671 887 712 861T784 784L750 729Q736 763 704 785T625 807Q550 807 484 762T362 645T266 490T204 331T182 201Q182 153 209 130T278 106Q315 106 371 139T486
231T597 367T679 533L781 850L897 881H931L895 756Z" />
<glyph unicode="&#xe7;" horiz-adv-x="756" d="M132 -519Q70 -519 43 -497T15 -447Q15 -423 31 -405T76 -387Q99 -387 113 -402T144 -433T193 -449Q250 -449 284 -417T318 -333Q318 -292 278 -265T136 -225L142 -206L346 45H423L216 -208L245 -123Q348 -142 385
-184T423 -277Q423 -344 385 -399T281 -486T132 -519ZM494 817Q433 817 382 771T293 649T234 481T213 297Q213 188 249 144T356 99Q401 99 443 116T526 175T605 287H667Q615 173 561 106T447 9T311 -20Q191 -20 126 47T61 255Q61 389 101 506T210 712T372 851T569
901Q666 901 715 861T765 767Q765 725 739 703T677 680Q661 680 642 700T599 749Q575 777 549 797T494 817Z" />
<glyph unicode="&#xe8;" horiz-adv-x="794" d="M527 825Q467 825 418 792T331 702T266 577T227 435T213 297Q213 188 255 144T371 99Q419 99 462 116T544 173T621 287H685Q633 169 580 102T465 8T325 -20Q243 -20 184 11T93 103T61 255Q61 363 87 460T160 638T269
777T404 868T556 901Q632 901 679 875T748 807T770 714Q770 670 752 626T705 554Q642 530 579 507T452 464T325 424T199 387L203 464Q311 491 386 517T510 567T584 617T621 669T631 723Q631 754 619 776T584 812T527 825ZM616 1030H549L352 1339L354 1360H547L616
1030Z" />
<glyph unicode="&#xe9;" horiz-adv-x="794" d="M527 825Q467 825 418 792T331 702T266 577T227 435T213 297Q213 188 255 144T371 99Q419 99 462 116T544 173T621 287H685Q633 169 580 102T465 8T325 -20Q243 -20 184 11T93 103T61 255Q61 363 87 460T160 638T269
777T404 868T556 901Q632 901 679 875T748 807T770 714Q770 670 752 626T705 554Q642 530 579 507T452 464T325 424T199 387L203 464Q311 491 386 517T510 567T584 617T621 669T631 723Q631 754 619 776T584 812T527 825ZM500 1030L737 1360H964L962 1339L569 1030H500Z"
/>
<glyph unicode="&#xea;" horiz-adv-x="794" d="M527 825Q467 825 418 792T331 702T266 577T227 435T213 297Q213 188 255 144T371 99Q419 99 462 116T544 173T621 287H685Q633 169 580 102T465 8T325 -20Q243 -20 184 11T93 103T61 255Q61 363 87 460T160 638T269
777T404 868T556 901Q632 901 679 875T748 807T770 714Q770 670 752 626T705 554Q642 530 579 507T452 464T325 424T199 387L203 464Q311 491 386 517T510 567T584 617T621 669T631 723Q631 754 619 776T584 812T527 825ZM285 1030L581 1360H736L831 1030H768L619
1238H647L371 1030H285Z" />
<glyph unicode="&#xeb;" horiz-adv-x="794" d="M527 825Q467 825 418 792T331 702T266 577T227 435T213 297Q213 188 255 144T371 99Q419 99 462 116T544 173T621 287H685Q633 169 580 102T465 8T325 -20Q243 -20 184 11T93 103T61 255Q61 363 87 460T160 638T269
777T404 868T556 901Q632 901 679 875T748 807T770 714Q770 670 752 626T705 554Q642 530 579 507T452 464T325 424T199 387L203 464Q311 491 386 517T510 567T584 617T621 669T631 723Q631 754 619 776T584 812T527 825ZM425 1086Q376 1086 346 1116T316 1193Q316
1223 330 1248T370 1289T430 1304Q480 1304 509 1274T539 1198Q539 1167 525 1142T486 1102T425 1086ZM785 1086Q736 1086 707 1116T677 1193Q677 1223 691 1248T730 1289T791 1304Q840 1304 870 1274T900 1198Q900 1167 886 1142T847 1102T785 1086Z" />
<glyph unicode="&#xec;" horiz-adv-x="570" d="M79 53L347 791L378 762Q344 763 300 748T207 701T110 623L77 660Q155 757 218 809T333 881T430 901Q474 901 493 883T499 828L230 73L210 115Q245 112 290 124T384 163T482 232L513 192Q437 110 374 64T259 -1T161
-20Q103 -20 84 -3T79 53ZM512 1031H445L248 1340L250 1361H443L512 1031Z" />
<glyph unicode="&#xed;" horiz-adv-x="570" d="M79 53L347 791L378 762Q344 763 300 748T207 701T110 623L77 660Q155 757 218 809T333 881T430 901Q474 901 493 883T499 828L230 73L210 115Q245 112 290 124T384 163T482 232L513 192Q437 110 374 64T259 -1T161
-20Q103 -20 84 -3T79 53ZM396 1031L633 1361H860L858 1340L465 1031H396Z" />
<glyph unicode="&#xee;" horiz-adv-x="570" d="M79 53L347 791L378 762Q344 763 300 748T207 701T110 623L77 660Q155 757 218 809T333 881T430 901Q474 901 493 883T499 828L230 73L210 115Q245 112 290 124T384 163T482 232L513 192Q437 110 374 64T259 -1T161
-20Q103 -20 84 -3T79 53ZM181 1031L477 1361H632L727 1031H664L515 1239H543L267 1031H181Z" />
<glyph unicode="&#xef;" horiz-adv-x="570" d="M79 53L347 791L378 762Q344 763 300 748T207 701T110 623L77 660Q155 757 218 809T333 881T430 901Q474 901 493 883T499 828L230 73L210 115Q245 112 290 124T384 163T482 232L513 192Q437 110 374 64T259 -1T161
-20Q103 -20 84 -3T79 53ZM321 1087Q272 1087 242 1117T212 1194Q212 1224 226 1249T266 1290T326 1305Q376 1305 405 1275T435 1199Q435 1168 421 1143T382 1103T321 1087ZM681 1087Q632 1087 603 1117T573 1194Q573 1224 587 1249T626 1290T687 1305Q736 1305
766 1275T796 1199Q796 1168 782 1143T743 1103T681 1087Z" />
<glyph unicode="&#xf0;" horiz-adv-x="920" d="M749 597L714 630Q749 791 739 911T677 1118T536 1267T324 1374L358 1430Q503 1385 602 1317T759 1163T844 978T870 772Q870 610 829 467T714 214T546 42T343 -20Q257 -20 195 16T99 119T65 280Q65 401 101 511T202
708T352 845T536 895Q616 895 666 862T736 762T749 597ZM346 57Q401 57 452 90T545 182T619 314T668 470T686 632Q686 726 654 772T554 818Q499 818 448 785T355 693T281 562T232 406T214 244Q214 150 246 104T346 57ZM392 1004L355 1075L931 1380L968 1309L392
1004Z" />
<glyph unicode="&#xf1;" horiz-adv-x="1076" d="M90 607L59 620Q98 729 147 789T255 875T375 900Q394 900 412 898T448 893T484 883L352 462H353Q404 555 459 634T573 773T695 865T824 898Q911 898 945 860T980 762Q980 729 970 687T938 592L735 73L733 115Q768
114 810 127T900 168T993 232L1026 193Q949 112 885 65T767 -1T667 -20Q602 -20 587 0T595 80L810 626Q821 653 827 675T833 714Q833 741 815 756T754 772Q701 772 638 730T513 614T399 442T313 235L240 0H96L328 767Q324 767 321 767T314 767Q273 767 236 753T163
705T90 607ZM1062 1346Q1020 1233 985 1165T915 1065T840 1034Q806 1034 783 1061T741 1123T704 1185T662 1212Q646 1212 630 1200T594 1151T546 1044H476Q518 1158 553 1225T622 1324T698 1355Q732 1355 755 1328T797 1266T834 1204T876 1177Q891 1177 907 1190T943
1239T992 1346H1062Z" />
<glyph unicode="&#xf2;" horiz-adv-x="902" d="M557 901Q645 901 707 865T802 761T835 599Q835 478 798 367T694 168T538 31T343 -20Q257 -20 195 16T99 120T65 282Q65 403 102 514T207 712T363 850T557 901ZM346 57Q402 57 452 91T545 183T619 315T668 472T686
635Q686 731 654 777T555 824Q499 824 448 790T355 698T281 566T232 409T214 245Q214 151 246 104T346 57ZM671 1030H604L407 1339L409 1360H602L671 1030Z" />
<glyph unicode="&#xf3;" horiz-adv-x="902" d="M557 901Q645 901 707 865T802 761T835 599Q835 478 798 367T694 168T538 31T343 -20Q257 -20 195 16T99 120T65 282Q65 403 102 514T207 712T363 850T557 901ZM346 57Q402 57 452 91T545 183T619 315T668 472T686
635Q686 731 654 777T555 824Q499 824 448 790T355 698T281 566T232 409T214 245Q214 151 246 104T346 57ZM555 1030L792 1360H1019L1017 1339L624 1030H555Z" />
<glyph unicode="&#xf4;" horiz-adv-x="902" d="M557 901Q645 901 707 865T802 761T835 599Q835 478 798 367T694 168T538 31T343 -20Q257 -20 195 16T99 120T65 282Q65 403 102 514T207 712T363 850T557 901ZM346 57Q402 57 452 91T545 183T619 315T668 472T686
635Q686 731 654 777T555 824Q499 824 448 790T355 698T281 566T232 409T214 245Q214 151 246 104T346 57ZM340 1030L636 1360H791L886 1030H823L674 1238H702L426 1030H340Z" />
<glyph unicode="&#xf5;" horiz-adv-x="902" d="M557 901Q645 901 707 865T802 761T835 599Q835 478 798 367T694 168T538 31T343 -20Q257 -20 195 16T99 120T65 282Q65 403 102 514T207 712T363 850T557 901ZM346 57Q402 57 452 91T545 183T619 315T668 472T686
635Q686 731 654 777T555 824Q499 824 448 790T355 698T281 566T232 409T214 245Q214 151 246 104T346 57ZM956 1346Q914 1233 879 1165T809 1065T734 1034Q700 1034 677 1061T635 1123T598 1185T556 1212Q540 1212 524 1200T488 1151T440 1044H370Q412 1158 447
1225T516 1324T592 1355Q626 1355 649 1328T691 1266T728 1204T770 1177Q785 1177 801 1190T837 1239T886 1346H956Z" />
<glyph unicode="&#xf6;" horiz-adv-x="902" d="M557 901Q645 901 707 865T802 761T835 599Q835 478 798 367T694 168T538 31T343 -20Q257 -20 195 16T99 120T65 282Q65 403 102 514T207 712T363 850T557 901ZM346 57Q402 57 452 91T545 183T619 315T668 472T686
635Q686 731 654 777T555 824Q499 824 448 790T355 698T281 566T232 409T214 245Q214 151 246 104T346 57ZM480 1086Q431 1086 401 1116T371 1193Q371 1223 385 1248T425 1289T485 1304Q535 1304 564 1274T594 1198Q594 1167 580 1142T541 1102T480 1086ZM840 1086Q791
1086 762 1116T732 1193Q732 1223 746 1248T785 1289T846 1304Q895 1304 925 1274T955 1198Q955 1167 941 1142T902 1102T840 1086Z" />
<glyph unicode="&#xf7;" horiz-adv-x="1033" d="M165 495H900L872 404H137L165 495ZM618 880Q667 880 698 849T729 771Q729 724 697 691T614 658Q565 658 534 689T503 767Q503 814 535 847T618 880ZM423 240Q472 240 502 209T533 132Q533 84 501 52T419 19Q370
19 339 50T308 127Q308 175 340 207T423 240Z" />
<glyph unicode="&#xf8;" horiz-adv-x="931" d="M572 901Q660 901 722 865T817 761T851 599Q851 478 813 367T709 168T553 31T358 -20Q272 -20 210 16T114 120T80 282Q80 403 117 514T222 712T378 850T572 901ZM361 57Q417 57 467 91T560 183T634 315T683 472T701
635Q701 731 669 777T570 824Q514 824 464 790T371 698T296 566T247 409T230 245Q230 151 262 104T361 57ZM849 881H973L798 707L749 668L221 129L179 96L81 0H-43L130 170L177 208L711 752L753 787L849 881Z" />
<glyph unicode="&#xf9;" horiz-adv-x="1033" d="M588 44L701 402V402Q625 268 563 184T449 56T350 -4T256 -20Q180 -20 145 14T110 105Q110 138 121 183T157 293L352 807L378 763Q342 765 296 749T199 701T99 621L63 659Q142 754 206 806T326 879T429 901Q475
901 494 883T500 827L277 236Q269 213 264 194T259 159Q259 134 275 121T326 107Q367 107 421 141T533 242T643 401T733 612L821 881H966L719 79L713 114Q748 110 793 122T889 162T989 232L1019 193Q905 69 821 25T672 -20Q616 -20 597 -5T588 44ZM706 1030H639L442
1339L444 1360H637L706 1030Z" />
<glyph unicode="&#xfa;" horiz-adv-x="1033" d="M588 44L701 402V402Q625 268 563 184T449 56T350 -4T256 -20Q180 -20 145 14T110 105Q110 138 121 183T157 293L352 807L378 763Q342 765 296 749T199 701T99 621L63 659Q142 754 206 806T326 879T429 901Q475
901 494 883T500 827L277 236Q269 213 264 194T259 159Q259 134 275 121T326 107Q367 107 421 141T533 242T643 401T733 612L821 881H966L719 79L713 114Q748 110 793 122T889 162T989 232L1019 193Q905 69 821 25T672 -20Q616 -20 597 -5T588 44ZM590 1030L827
1360H1054L1052 1339L659 1030H590Z" />
<glyph unicode="&#xfb;" horiz-adv-x="1033" d="M588 44L701 402V402Q625 268 563 184T449 56T350 -4T256 -20Q180 -20 145 14T110 105Q110 138 121 183T157 293L352 807L378 763Q342 765 296 749T199 701T99 621L63 659Q142 754 206 806T326 879T429 901Q475
901 494 883T500 827L277 236Q269 213 264 194T259 159Q259 134 275 121T326 107Q367 107 421 141T533 242T643 401T733 612L821 881H966L719 79L713 114Q748 110 793 122T889 162T989 232L1019 193Q905 69 821 25T672 -20Q616 -20 597 -5T588 44ZM375 1030L671
1360H826L921 1030H858L709 1238H737L461 1030H375Z" />
<glyph unicode="&#xfc;" horiz-adv-x="1033" d="M588 44L701 402V402Q625 268 563 184T449 56T350 -4T256 -20Q180 -20 145 14T110 105Q110 138 121 183T157 293L352 807L378 763Q342 765 296 749T199 701T99 621L63 659Q142 754 206 806T326 879T429 901Q475
901 494 883T500 827L277 236Q269 213 264 194T259 159Q259 134 275 121T326 107Q367 107 421 141T533 242T643 401T733 612L821 881H966L719 79L713 114Q748 110 793 122T889 162T989 232L1019 193Q905 69 821 25T672 -20Q616 -20 597 -5T588 44ZM515 1086Q466
1086 436 1116T406 1193Q406 1223 420 1248T460 1289T520 1304Q570 1304 599 1274T629 1198Q629 1167 615 1142T576 1102T515 1086ZM875 1086Q826 1086 797 1116T767 1193Q767 1223 781 1248T820 1289T881 1304Q930 1304 960 1274T990 1198Q990 1167 976 1142T937
1102T875 1086Z" />
<glyph unicode="&#xfd;" horiz-adv-x="954" d="M110 524L62 530Q83 640 110 712T170 825T241 884T323 901Q346 901 362 890T393 851T419 771Q433 719 450 615T492 342T546 -71L414 -169Q394 -6 378 116T348 328T324 485T305 602Q293 669 285 701T271 742T253 752Q232
752 208 731T159 661T110 524ZM458 -65L496 -27Q572 88 624 191T709 399T757 621T774 883Q808 894 833 897T884 900Q912 900 927 889T941 852Q938 791 925 725T887 583T824 420T731 232T604 13Q484 -184 383 -301T191 -468T10 -519Q-65 -519 -98 -485T-131 -397Q-131
-353 -106 -326T-45 -298Q-37 -298 -25 -307T15 -345Q43 -371 66 -383T111 -395Q149 -395 206 -355T329 -241T458 -65ZM537 1030L774 1360H1001L999 1339L606 1030H537Z" />
<glyph unicode="&#xfe;" horiz-adv-x="941" d="M244 286Q234 245 231 221T228 183Q228 129 260 91T368 53Q418 53 470 84T569 171T652 298T710 450T732 612Q732 693 704 731T613 769Q573 769 530 746T447 684T371 593T309 487T268 378L244 286ZM296 529L294 554Q360
676 425 752T554 865T675 901Q787 901 838 829T889 659Q889 557 863 459T788 274T674 121T526 18T355 -20Q286 -20 219 6T122 86H193L55 -406L229 -454L213 -499H-253L-237 -454L-86 -406L382 1268Q364 1283 344 1296T301 1322T248 1345L257 1378L545 1430H571L296
529Z" />
<glyph unicode="&#xff;" horiz-adv-x="954" d="M110 524L62 530Q83 640 110 712T170 825T241 884T323 901Q346 901 362 890T393 851T419 771Q433 719 450 615T492 342T546 -71L414 -169Q394 -6 378 116T348 328T324 485T305 602Q293 669 285 701T271 742T253 752Q232
752 208 731T159 661T110 524ZM458 -65L496 -27Q572 88 624 191T709 399T757 621T774 883Q808 894 833 897T884 900Q912 900 927 889T941 852Q938 791 925 725T887 583T824 420T731 232T604 13Q484 -184 383 -301T191 -468T10 -519Q-65 -519 -98 -485T-131 -397Q-131
-353 -106 -326T-45 -298Q-37 -298 -25 -307T15 -345Q43 -371 66 -383T111 -395Q149 -395 206 -355T329 -241T458 -65ZM462 1086Q413 1086 383 1116T353 1193Q353 1223 367 1248T407 1289T467 1304Q517 1304 546 1274T576 1198Q576 1167 562 1142T523 1102T462
1086ZM822 1086Q773 1086 744 1116T714 1193Q714 1223 728 1248T767 1289T828 1304Q877 1304 907 1274T937 1198Q937 1167 923 1142T884 1102T822 1086Z" />
<glyph unicode="&#x2013;" horiz-adv-x="998" d="M126 497H906L877 403H97L126 497Z" />
<glyph unicode="&#x2014;" horiz-adv-x="1312" d="M126 497H1220L1190 403H97L126 497Z" />
<glyph unicode="&#x2018;" horiz-adv-x="468" d="M649 1306Q559 1267 507 1233T433 1166T411 1099Q411 1070 425 1053T458 1026T492 1008T507 990Q507 954 490 924T442 877T367 859Q323 859 291 888T258 982Q258 1052 291 1116T405 1242T628 1364L649 1306Z" />
<glyph unicode="&#x2019;" horiz-adv-x="471" d="M230 916Q319 955 371 989T445 1056T468 1123Q468 1152 454 1169T420 1196T387 1214T372 1232Q372 1269 389 1298T437 1345T511 1363Q556 1363 588 1334T620 1240Q620 1170 587 1106T474 980T251 858L230 916Z" />
<glyph unicode="&#x201a;" horiz-adv-x="460" d="M-120 -219Q-30 -179 21 -145T95 -79T118 -12Q118 17 104 34T71 61T37 79T22 97Q22 134 39 163T87 210T162 228Q207 228 239 199T271 106Q271 36 238 -29T125 -155T-99 -277L-120 -219Z" />
<glyph unicode="&#x201c;" horiz-adv-x="815" d="M649 1306Q559 1267 507 1233T433 1166T411 1099Q411 1070 425 1053T458 1026T492 1008T507 990Q507 954 490 924T442 877T367 859Q323 859 291 888T258 982Q258 1052 291 1116T405 1242T628 1364L649 1306ZM996
1306Q906 1267 854 1233T780 1166T758 1099Q758 1070 772 1053T805 1026T839 1008T854 990Q854 954 837 924T789 877T714 859Q670 859 638 888T605 982Q605 1052 638 1116T752 1242T975 1364L996 1306Z" />
<glyph unicode="&#x201d;" horiz-adv-x="818" d="M230 916Q319 955 371 989T445 1056T468 1123Q468 1152 454 1169T420 1196T387 1214T372 1232Q372 1269 389 1298T437 1345T511 1363Q556 1363 588 1334T620 1240Q620 1170 587 1106T474 980T251 858L230 916ZM577
916Q666 955 718 989T792 1056T815 1123Q815 1152 801 1169T767 1196T734 1214T719 1232Q719 1269 736 1298T784 1345T858 1363Q903 1363 935 1334T967 1240Q967 1170 934 1106T821 980T598 858L577 916Z" />
<glyph unicode="&#x201e;" horiz-adv-x="806" d="M-120 -219Q-30 -179 21 -145T95 -79T118 -12Q118 17 104 34T71 61T37 79T22 97Q22 134 39 163T87 210T162 228Q207 228 239 199T271 106Q271 36 238 -29T125 -155T-99 -277L-120 -219ZM227 -219Q317 -179 368
-145T442 -79T465 -12Q465 17 451 34T418 61T384 79T369 97Q369 134 386 163T434 210T509 228Q554 228 586 199T618 106Q618 36 585 -29T472 -155T248 -277L227 -219Z" />
<glyph unicode="&#x2022;" horiz-adv-x="838" d="M421 693Q494 693 549 661T637 575T669 450Q669 381 637 326T550 240T421 208Q349 208 293 239T206 326T174 450Q174 520 205 574T293 661T421 693Z" />
<glyph unicode="&#x2039;" horiz-adv-x="593" d="M242 510L389 59L330 31L63 419L80 473L581 861L623 807L192 350L242 510Z" />
<glyph unicode="&#x203a;" horiz-adv-x="627" d="M365 383L218 834L277 861L543 473L527 419L26 31L-17 85L414 543L365 383Z" />
</font>
</defs>
</svg>
