<?xml version="1.0" standalone="no"?>
<!DOCTYPE svg PUBLIC "-//W3C//DTD SVG 1.1//EN" "http://www.w3.org/Graphics/SVG/1.1/DTD/svg11.dtd">
<svg xmlns="http://www.w3.org/2000/svg">
<defs >
<font id="Newsreader" horiz-adv-x="1042" ><font-face
    font-family="Newsreader 16pt 16pt"
    units-per-em="2000"
    panose-1="2 0 0 0 0 0 0 0 0 0"
    ascent="1470"
    descent="-530"
    alphabetic="0" />
<glyph unicode=" " horiz-adv-x="434" />
<glyph unicode="!" horiz-adv-x="572" d="M709 1269L686 1200Q679 1175 664 1141T626 1060T575 955T511 824T432 664T339 473H249Q262 577 273 664T292 823T307 954T320 1059T332 1140T346 1200L365 1270Q376 1306 403 1329T470 1364T563 1375Q616 1375 653 1364T705
1330T709 1269ZM224 314Q293 314 330 275T367 176Q367 121 342 76T271 5T165 -21Q97 -21 60 17T23 116Q23 172 48 216T119 287T224 314Z" />
<glyph unicode="&quot;" horiz-adv-x="808" d="M260 817L330 1296L347 1352H615L598 1296L372 817H260ZM647 817L717 1296L734 1352H1002L985 1296L759 817H647Z" />
<glyph unicode="#" horiz-adv-x="1268" d="M950 1352L248 0H124L825 1352H950ZM1294 1352L593 0H469L1170 1352H1294ZM1278 788H287L320 898H1312L1278 788ZM1092 461H100L134 570H1126L1092 461Z" />
<glyph unicode="$" horiz-adv-x="1268" d="M498 -200L1034 1553H1138L603 -200H498ZM269 -200L804 1553H909L374 -200H269ZM525 95Q634 95 705 126T811 216T846 352Q845 419 809 461T714 533T592 594T470 665T376 769T339 929Q339 1022 372 1103T472 1247T644
1344T893 1379Q1022 1379 1105 1354T1228 1288T1268 1197Q1268 1141 1233 1109T1146 1076Q1116 1076 1094 1095T1050 1141T1003 1196T937 1243T839 1262Q746 1262 688 1234T603 1157T575 1044Q575 978 611 936T706 861T829 798T951 725T1046 618T1083 455Q1083
349 1044 261T929 108T745 9T498 -26Q356 -26 270 -2T144 65T104 158Q104 195 118 222T159 264T219 279Q249 279 271 261T315 215T364 160T430 114T525 95Z" />
<glyph unicode="%" horiz-adv-x="1757" d="M220 0L1521 1352H1660L359 0H220ZM464 695Q505 695 543 727T613 811T670 925T707 1048T721 1157Q721 1213 704 1237T653 1261Q612 1261 574 1230T504 1146T448 1031T410 909T396 799Q396 743 414 719T464 695ZM664 1369Q742
1369 797 1340T882 1252T912 1110Q912 1020 880 928T787 759T643 635T454 587Q376 587 321 617T235 704T205 846Q205 937 237 1029T330 1198T475 1322T664 1369ZM1244 91Q1285 91 1323 123T1393 207T1450 321T1487 444T1501 553Q1501 609 1484 633T1433 657Q1392
657 1354 626T1284 542T1228 427T1190 305T1176 195Q1176 139 1194 115T1244 91ZM1444 765Q1522 765 1577 736T1662 648T1692 506Q1692 416 1660 324T1567 155T1423 31T1234 -17Q1156 -17 1101 13T1015 100T985 242Q985 333 1017 425T1110 594T1255 718T1444 765Z"
/>
<glyph unicode="&amp;" horiz-adv-x="1442" d="M1026 235L903 149Q818 84 742 46T594 -9T454 -26Q315 -26 227 16T96 135T54 311Q54 389 78 454T158 575T306 676T532 761L721 840Q797 885 844 936T914 1044T936 1156Q936 1212 907 1241T823 1270Q768 1270 731
1248T676 1189T658 1105Q658 1053 676 998T738 863L1164 110L1326 55L1310 0H900L495 724Q461 786 440 838T409 940T399 1038Q399 1134 448 1211T596 1334T845 1379Q955 1379 1026 1349T1133 1266T1169 1147Q1169 1070 1131 1007T1002 889T753 788L555 704Q474
665 427 615T359 506T339 384Q339 271 405 206T600 141Q668 141 736 159T863 222L985 307Q1019 347 1048 405T1103 542T1147 725L1022 768L1039 822H1502L1485 768L1348 725Q1270 561 1190 441T1026 235Z" />
<glyph unicode="&apos;" horiz-adv-x="422" d="M260 817L330 1296L347 1352H615L598 1296L372 817H260Z" />
<glyph unicode="(" horiz-adv-x="590" d="M825 1370Q657 1206 549 1052T381 750T297 460T273 178Q273 112 279 46T300 -89T338 -235L254 -270Q199 -165 161 -65T102 134T82 329Q82 428 98 526T157 726T277 938T474 1172T768 1436L825 1370Z" />
<glyph unicode=")" horiz-adv-x="590" d="M-152 -204Q17 -40 124 114T292 416T376 706T400 989Q400 1055 394 1120T373 1256T336 1402L420 1436Q475 1332 513 1231T571 1033T591 837Q591 739 575 641T517 440T397 228T200 -6T-95 -270L-152 -204Z" />
<glyph unicode="*" horiz-adv-x="869" d="M778 724L698 690L579 912L370 772L314 838L488 1020L290 1174L335 1247L562 1138L647 1375L731 1355L697 1105L948 1099L955 1012L708 965L778 724Z" />
<glyph unicode="+" horiz-adv-x="1033" d="M327 62L564 838H708L471 62H327ZM153 519H924L881 381H111L153 519Z" />
<glyph unicode="," horiz-adv-x="509" d="M-141 -299Q-44 -235 9 -184T84 -93T105 -18Q105 14 91 36T58 77T25 110T10 143Q10 190 35 229T103 292T198 316Q268 316 308 276T348 161Q348 105 330 48T264 -73T130 -209T-94 -373L-141 -299Z" />
<glyph unicode="-" horiz-adv-x="710" d="M144 548H627L571 364H88L144 548Z" />
<glyph unicode="." horiz-adv-x="501" d="M209 319Q278 319 315 280T352 180Q352 124 326 78T255 6T149 -21Q81 -21 44 18T6 117Q6 174 32 220T104 292T209 319Z" />
<glyph unicode="/" horiz-adv-x="827" d="M-64 0L878 1352H1032L89 0H-64Z" />
<glyph unicode="0" horiz-adv-x="1268" d="M393 319Q393 202 427 150T533 98Q598 98 659 144T774 268T872 445T948 648T997 853T1015 1034Q1015 1151 981 1202T875 1254Q810 1254 749 1209T634 1084T536 908T460 705T411 500T393 319ZM880 1379Q1011 1379 1101
1326T1238 1170T1285 923Q1285 796 1251 663T1153 406T996 186T785 31T528 -26Q397 -26 307 27T170 183T123 430Q123 557 157 690T255 946T412 1167T623 1322T880 1379Z" />
<glyph unicode="1" horiz-adv-x="1268" d="M463 113L810 1247L855 1131L379 998L352 1081L979 1359H1148L765 111L1015 52L997 1H149L166 52L463 113Z" />
<glyph unicode="2" horiz-adv-x="1268" d="M336 887L248 913Q321 1153 463 1266T793 1379Q907 1379 992 1338T1124 1223T1172 1049Q1172 985 1155 928T1095 811T976 681T781 520L342 188L369 266H1024L750 168L1095 464H1164L935 -50H884L800 0H43L57 51L492 439Q606
540 678 612T789 739T844 839T860 932Q860 1022 807 1078T642 1135Q538 1135 464 1080T336 887Z" />
<glyph unicode="3" horiz-adv-x="1268" d="M484 83Q554 83 611 112T709 193T772 313T795 461Q795 550 743 600T576 637L510 629L507 729Q644 756 725 793T843 883T879 1005Q879 1086 830 1130T697 1175Q603 1175 534 1127T420 956L331 986Q369 1109 436 1197T599
1332T815 1379Q931 1379 1007 1342T1122 1242T1160 1097Q1160 997 1107 926T962 812T751 751L768 767Q878 765 954 727T1068 623T1107 468Q1107 370 1064 281T938 123T734 14T457 -26Q328 -26 243 0T115 70T72 168Q72 216 101 246T187 277Q220 277 243 258T286
210T332 152T393 103T484 83Z" />
<glyph unicode="4" horiz-adv-x="1268" d="M846 1177L955 1207L213 522L196 589H1081L1271 617L1149 381H29L74 529L950 1358H1205L821 106L986 50L970 0H296L311 50L514 108L846 1177Z" />
<glyph unicode="5" horiz-adv-x="1268" d="M527 1086L708 1229L500 821L523 920Q682 887 787 841T953 737T1040 616T1066 484Q1066 381 1024 289T903 126T714 15T469 -26Q298 -26 195 26T92 169Q92 212 121 244T210 277Q245 277 268 258T310 210T354 153T413 105T505
85Q570 85 626 103T725 158T792 247T816 371Q816 419 793 463T714 546T561 620T316 681L617 1352H1031L1300 1390L1158 1086H527Z" />
<glyph unicode="6" horiz-adv-x="1268" d="M1272 1399L1290 1303Q1097 1262 955 1194T714 1034T558 833T473 601T447 345Q447 206 489 148T606 90Q673 90 730 133T824 262T860 471Q860 557 820 602T695 647Q652 647 605 638T510 609T420 553L364 570Q462 645 533
693T659 770T762 809T861 820Q957 820 1024 783T1127 681T1163 530Q1163 410 1118 309T994 132T810 16T586 -26Q448 -26 354 25T210 173T161 408Q161 523 193 644T301 881T503 1099T820 1278T1272 1399Z" />
<glyph unicode="7" horiz-adv-x="1327" d="M444 1088L716 1180L384 873H311L523 1404H565L650 1352H1442L1433 1322L589 0H276L1279 1229L1212 1088H444Z" />
<glyph unicode="8" horiz-adv-x="1268" d="M769 753L745 794Q898 829 971 912T1044 1092Q1044 1169 994 1217T826 1265Q745 1265 689 1240T604 1169T575 1065Q575 999 610 953T703 869T828 792Q878 763 929 729T1021 651T1088 549T1114 413Q1114 282 1047 183T857
29T560 -26Q405 -26 305 17T156 133T107 297Q107 401 164 487T345 632T670 717L687 676Q556 647 476 593T358 468T320 317Q320 247 349 197T433 119T569 91Q658 91 722 120T822 202T858 328Q858 397 821 445T726 531T603 610Q555 641 510 674T428 750T369 847T347
975Q347 1092 404 1183T572 1327T839 1379Q983 1379 1074 1341T1208 1240T1252 1098Q1252 997 1193 924T1025 808T769 753Z" />
<glyph unicode="9" horiz-adv-x="1268" d="M140 -47L122 50Q316 91 458 159T699 319T855 519T940 752T967 1008Q967 1101 943 1156T879 1237T788 1262Q720 1262 665 1222T579 1105T547 915Q547 809 591 761T722 712Q765 712 810 720T901 749T992 805L1048 788Q951
714 882 666T761 591T661 552T563 540Q464 540 393 579T284 690T246 855Q246 970 287 1066T404 1232T580 1340T800 1379Q942 1379 1043 1327T1198 1178T1252 944Q1252 830 1220 709T1113 471T910 254T593 74T140 -47Z" />
<glyph unicode=":" horiz-adv-x="551" d="M212 317Q282 317 319 277T357 177Q357 122 332 77T261 6T157 -21Q87 -21 50 18T12 118Q12 174 37 219T108 290T212 317ZM394 914Q464 914 501 875T539 774Q539 720 514 675T443 603T338 576Q269 576 232 616T194 716Q194
771 219 816T290 887T394 914Z" />
<glyph unicode=";" horiz-adv-x="558" d="M-134 -299Q-37 -235 16 -184T91 -93T112 -18Q112 14 98 36T64 77T31 110T17 143Q17 190 42 229T109 292T204 316Q275 316 315 276T355 161Q355 105 337 48T271 -73T137 -209T-87 -373L-134 -299ZM396 914Q466 914 503
875T541 774Q541 720 515 675T445 603T340 576Q271 576 233 616T195 716Q195 771 220 816T291 887T396 914Z" />
<glyph unicode="&lt;" horiz-adv-x="1033" d="M141 391L168 478L857 120L814 -19L43 391L79 508L1101 919L1049 749L141 391Z" />
<glyph unicode="=" horiz-adv-x="1033" d="M206 695H977L935 557H164L206 695ZM99 343H870L828 205H57L99 343Z" />
<glyph unicode="&gt;" horiz-adv-x="1033" d="M893 509L867 422L178 780L220 919L991 508L956 391L-67 -20L-15 151L893 509Z" />
<glyph unicode="?" horiz-adv-x="1018" d="M403 314Q472 314 509 275T546 176Q546 121 521 76T450 5T344 -21Q276 -21 239 17T202 116Q202 172 227 216T298 287T403 314ZM590 1379Q705 1379 793 1347T941 1260T1031 1131T1062 977Q1062 855 1009 770T836 646T511
620L647 765L502 469H418L487 843Q640 835 727 856T852 926T890 1052Q890 1104 866 1145T800 1211T704 1236Q649 1236 609 1218T536 1175T473 1132T403 1113Q358 1113 326 1143T294 1220Q294 1265 323 1300T417 1357T590 1379Z" />
<glyph unicode="@" horiz-adv-x="1818" d="M1366 282Q1430 282 1489 319T1594 426T1668 589T1695 797Q1695 902 1663 993T1563 1153T1389 1260T1135 1299Q973 1299 837 1253T595 1122T414 926T301 680T262 403Q262 230 331 106T538 -85T881 -152Q976 -152 1074
-137T1272 -86T1475 6L1516 -75Q1417 -133 1311 -175T1086 -239T834 -262Q600 -262 436 -187T184 34T97 385Q97 550 146 701T287 979T510 1199T803 1344T1154 1396Q1377 1396 1531 1321T1765 1117T1845 821Q1845 685 1805 568T1692 364T1517 227T1290 178Q1161
178 1103 227T1045 358Q1045 381 1049 407T1062 462L1092 563H1108Q1042 448 988 374T886 259T795 202T704 185Q601 185 551 242T500 394Q500 471 526 555T598 721T708 867T846 971T1005 1010Q1074 1010 1123 980T1214 882L1170 815Q1158 846 1140 866T1079 887Q1038
887 996 855T916 770T849 657T802 536T785 429Q785 393 799 378T843 362Q866 362 897 381T960 437T1024 525T1078 641L1169 889L1240 993H1461L1314 485Q1301 442 1295 411T1289 356Q1289 314 1308 298T1366 282Z" />
<glyph unicode="A" horiz-adv-x="1486" d="M345 441L386 565H1041L1000 441H345ZM1261 111L1394 52L1378 0H767L784 52L956 108L853 1184L914 1190L189 105L327 52L310 0H-139L-122 52L36 105L892 1359H1124L1261 111Z" />
<glyph unicode="B" horiz-adv-x="1373" d="M625 1223L680 1352H1013Q1150 1352 1233 1317T1354 1219T1393 1079Q1393 972 1341 895T1193 774T962 719L961 735Q1127 725 1207 652T1287 462Q1287 330 1220 226T1020 61T685 0H268L298 131H630Q734 131 810 173T928
292T970 474Q970 554 923 603T765 653H452L496 780H820Q900 780 960 818T1053 921T1087 1067Q1087 1117 1067 1152T1007 1205T904 1223H625ZM465 1247L335 1300L351 1352H808L395 0H-58L-42 53L116 109L465 1247Z" />
<glyph unicode="C" horiz-adv-x="1405" d="M1077 150L980 82L1251 403H1335L1196 39Q1110 13 997 -6T772 -26Q567 -26 426 41T213 230T140 516Q140 667 184 798T311 1037T511 1220T773 1338T1085 1379Q1149 1379 1207 1374T1321 1357T1433 1324L1283 1316L1433
1426H1485L1437 908H1357L1250 1269L1334 1151Q1276 1197 1217 1219T1077 1242Q967 1242 872 1209T701 1113T570 963T486 767T457 535Q457 396 505 301T642 158T850 110Q900 110 957 119T1077 150Z" />
<glyph unicode="D" horiz-adv-x="1532" d="M582 129Q700 129 799 166T977 272T1110 435T1194 642T1223 882Q1223 991 1181 1067T1055 1184T841 1224H621L637 1352H920Q1141 1352 1276 1290T1474 1116T1537 853Q1537 671 1471 516T1278 245T973 65T569 0H223L290
129H582ZM465 1249L334 1300L350 1352H808L395 0H-57L-41 52L116 108L465 1249Z" />
<glyph unicode="E" horiz-adv-x="1330" d="M465 1249L334 1300L350 1352H808L395 0H-57L-41 52L116 108L465 1249ZM1230 1277L1274 1224H608L650 1352H1264L1404 1422H1448L1375 954H1297L1230 1277ZM985 -76L894 0H236L278 129H970L855 78L1213 437L1281 416L1036
-76H985ZM947 448H843L884 646H434L472 771H921L1003 969H1106L1026 708L947 448Z" />
<glyph unicode="F" horiz-adv-x="1224" d="M1083 925L1003 664L923 403H820L861 602H411L448 727H898L979 925H1083ZM1351 948H1273L1208 1276L1252 1224H598L639 1352H1242L1381 1422H1426L1351 948ZM426 103L557 52L542 0H-57L-41 52L116 108L465 1249L334 1300L350
1352H808L426 103Z" />
<glyph unicode="G" horiz-adv-x="1521" d="M848 110Q882 110 919 115T993 132T1060 157L942 67L1078 508L925 559L940 611H1539L1523 559L1388 504L1286 167L1318 88L1306 53Q1234 27 1152 9T977 -17T780 -26Q574 -26 431 40T213 229T139 515Q139 667 184 799T315
1037T518 1220T783 1338T1098 1379Q1162 1379 1221 1374T1337 1358T1451 1324L1305 1316L1456 1426H1508L1459 908H1380L1272 1269L1352 1151Q1294 1197 1233 1219T1089 1242Q977 1242 881 1209T706 1113T572 963T486 767T456 536Q456 396 505 302T642 159T848
110Z" />
<glyph unicode="H" horiz-adv-x="1636" d="M416 626L454 755H1367L1330 626H416ZM465 1249L334 1300L350 1352H948L932 1300L775 1245L426 103L557 52L542 0H-57L-41 52L116 108L465 1249ZM1350 1249L1219 1300L1235 1352H1833L1817 1300L1660 1245L1311 103L1443
52L1427 0H828L844 52L1001 108L1350 1249Z" />
<glyph unicode="I" horiz-adv-x="751" d="M465 1249L334 1300L350 1352H948L932 1300L775 1245L426 103L557 52L542 0H-57L-41 52L116 108L465 1249Z" />
<glyph unicode="J" horiz-adv-x="941" d="M749 436Q718 335 659 251T517 104T336 9T125 -25Q17 -25 -37 14T-91 117Q-91 167 -60 200T21 233Q41 233 61 216T103 175T151 135T209 117Q271 117 317 154T393 288L687 1249L556 1300L572 1352H1170L1154 1300L997 1245L749
436Z" />
<glyph unicode="K" horiz-adv-x="1517" d="M1313 102L1430 53L1413 0H831L847 51L963 92L705 638H481L521 765H777L1382 1253L1250 1300L1266 1352H1722L1706 1300L1545 1251L886 715L949 834L1313 102ZM465 1249L334 1300L350 1352H948L932 1300L775 1245L426
103L557 52L542 0H-57L-41 52L116 108L465 1249Z" />
<glyph unicode="L" horiz-adv-x="1243" d="M775 1242L396 0H-57L-41 54L117 110L463 1243L335 1299L351 1352H950L933 1299L775 1242ZM791 81L1150 463L1219 442L972 -82H921L828 0H191L233 129H899L791 81Z" />
<glyph unicode="M" horiz-adv-x="2002" d="M633 1233L223 113L359 54L343 0H-94L-78 54L90 113L505 1231L364 1300L379 1352H895L958 186L857 150L1643 1352H1770L1762 1317L886 -6H663L589 1206L633 1233ZM1684 1352H2145L2129 1300L1970 1243L1711 103L1839
52L1823 0H1230L1245 52L1401 108L1684 1352Z" />
<glyph unicode="N" horiz-adv-x="1504" d="M1166 219L1087 150L1423 1248L1283 1300L1298 1352H1721L1705 1300L1548 1248L1164 -6H937L539 1218L591 1237L245 104L385 52L369 0H-53L-38 52L120 105L463 1225L322 1305L336 1352H794L1166 219Z" />
<glyph unicode="O" horiz-adv-x="1552" d="M440 432Q440 266 509 189T706 111Q785 111 855 143T987 233T1097 367T1180 535T1233 724T1251 921Q1251 1087 1183 1164T986 1242Q907 1242 836 1210T704 1120T595 985T512 818T459 629T440 432ZM1553 840Q1553 701
1513 573T1398 335T1219 145T986 19T709 -26Q525 -26 398 37T205 221T139 512Q139 651 179 780T293 1018T472 1208T706 1334T983 1379Q1167 1379 1294 1315T1487 1131T1553 840Z" />
<glyph unicode="P" horiz-adv-x="1294" d="M786 683Q867 683 928 709T1030 783T1090 895T1111 1035Q1111 1095 1088 1137T1013 1201T881 1224H578L615 1352H958Q1127 1352 1226 1311T1370 1198T1415 1036Q1415 935 1377 847T1261 694T1068 591T794 554H369L413
683H786ZM426 103L557 52L542 0H-57L-41 52L116 108L465 1249L334 1300L350 1352H808L426 103Z" />
<glyph unicode="Q" horiz-adv-x="1544" d="M626 -213L303 94Q249 149 213 211T157 347T138 509Q138 649 178 778T294 1016T474 1207T705 1334T976 1379Q1158 1379 1285 1315T1480 1132T1547 843Q1547 706 1506 577T1389 337T1206 148T970 31T693 9L643 80L988
-152Q1052 -195 1099 -223T1187 -266T1276 -286T1385 -285L1360 -370Q1318 -381 1276 -390T1184 -404T1073 -409Q966 -409 893 -390T759 -327T626 -213ZM448 450Q448 278 517 195T712 111Q788 111 856 142T982 228T1088 358T1168 521T1219 706T1237 902Q1237 1074
1168 1157T974 1241Q898 1241 830 1210T703 1124T597 994T517 831T466 646T448 450Z" />
<glyph unicode="R" horiz-adv-x="1409" d="M811 738Q910 738 976 783T1077 902T1112 1063Q1112 1141 1064 1182T905 1224H533L620 1352H997Q1149 1352 1241 1316T1376 1216T1418 1067Q1418 956 1364 869T1203 731T934 673V678Q1013 672 1058 643T1127 562T1165
435L1206 228Q1220 160 1235 130T1275 93T1334 85L1313 0Q1188 -10 1112 -6T996 20T937 85T906 195L861 450Q850 520 835 554T792 601T718 613H384L377 738H811ZM426 103L557 52L542 0H-57L-41 52L116 108L465 1249L334 1300L350 1352H808L426 103Z" />
<glyph unicode="S" horiz-adv-x="1159" d="M1063 1153Q1011 1203 942 1228T790 1254Q702 1254 643 1231T556 1162T527 1054Q527 1002 555 966T641 898T792 822Q884 781 945 731T1038 616T1070 460Q1070 310 991 201T768 33T425 -26Q322 -26 236 -9T74 39L79 431H152L317
41L168 164Q235 135 301 120T439 105Q558 105 637 133T756 213T797 338Q797 387 778 423T723 488T634 543T516 600Q428 640 373 687T290 795T263 935Q263 1070 331 1170T525 1324T821 1379Q898 1379 968 1367T1102 1328L1036 1331L1171 1426H1223L1159 936H1081L983
1282L1063 1153Z" />
<glyph unicode="T" horiz-adv-x="1361" d="M1403 1216H392L533 1252L261 925L188 943L376 1429H429L542 1327L440 1352H1461L1340 1327L1519 1429H1573L1474 930H1403L1341 1256L1403 1216ZM775 1266H1087L731 103L862 52L846 0H248L264 52L421 108L775 1266Z" />
<glyph unicode="U" horiz-adv-x="1519" d="M528 539Q490 414 508 333T598 213T795 174Q902 174 985 209T1130 324T1232 535L1450 1248L1310 1300L1326 1352H1748L1732 1300L1575 1248L1341 481Q1288 307 1199 195T984 28T690 -26Q496 -26 370 39T202 228T212 527L433
1249L302 1300L318 1352H916L901 1300L744 1245L528 539Z" />
<glyph unicode="V" horiz-adv-x="1430" d="M365 1241L232 1300L248 1352H862L845 1300L673 1244L748 168L684 163L1381 1247L1242 1300L1258 1352H1707L1691 1300L1534 1247L706 -7H474L365 1241Z" />
<glyph unicode="W" horiz-adv-x="2024" d="M1975 1246L1833 1300L1849 1352H2295L2279 1300L2125 1246L1443 -6H1204L1183 1077L1242 1087L556 -6H319L373 1239L240 1300L256 1352H867L850 1300L681 1242L628 240L579 241L1262 1358H1500L1505 224L1442 216L1975 1246Z" />
<glyph unicode="X" horiz-adv-x="1470" d="M770 624L218 109L343 52L327 0H-129L-113 52L50 111L722 722L839 777L1332 1243L1205 1300L1221 1352H1673L1657 1300L1494 1241L887 681L770 624ZM900 110L690 597L672 636L408 1241L278 1300L295 1352H940L924 1300L756
1244L936 828L952 792L1248 114L1379 52L1362 0H713L730 52L900 110Z" />
<glyph unicode="Y" horiz-adv-x="1419" d="M1355 1248L1214 1300L1231 1352H1677L1660 1300L1506 1248L930 594L780 103L911 52L895 0H297L313 52L470 108L618 591L373 1240L238 1300L254 1352H865L848 1300L682 1243L890 646H833L1355 1248Z" />
<glyph unicode="Z" horiz-adv-x="1294" d="M1453 1352L1430 1279L358 75L223 129H905L1168 412L1235 400L1031 -69H985L883 0H-22L0 73L1068 1277L1231 1224H561L281 931L215 954L420 1424H465L579 1352H1453Z" />
<glyph unicode="[" horiz-adv-x="638" d="M-38 -247L468 1410H897L865 1305H636L194 -142H422L391 -247H-38Z" />
<glyph unicode="\" horiz-adv-x="772" d="M589 0H458L323 1352H454L589 0Z" />
<glyph unicode="]" horiz-adv-x="639" d="M759 1410L253 -247H-176L-144 -142H85L527 1305H298L331 1410H759Z" />
<glyph unicode="^" horiz-adv-x="1033" d="M740 1251H814L331 601H170L732 1352H858L964 601H828L740 1251Z" />
<glyph unicode="_" horiz-adv-x="782" d="M-193 -186H588L551 -307H-230L-193 -186Z" />
<glyph unicode="`" horiz-adv-x="1000" d="M737 1031H648L418 1321L428 1361H679L737 1031Z" />
<glyph unicode="a" horiz-adv-x="1147" d="M586 86L696 409H713Q630 274 564 189T441 57T335 -8T232 -26Q170 -26 121 -2T42 71T13 194Q13 282 45 381T133 574T264 745T428 867T611 913Q688 913 744 879T842 767L796 700Q783 737 753 760T675 783Q621 783 568
743T466 639T382 499T324 354T302 233Q302 195 318 179T369 162Q401 162 443 187T530 259T614 367T684 500L803 802L916 894H1109L838 72L794 151Q841 151 887 165T983 211T1088 294L1129 248Q1011 103 905 39T702 -26Q622 -26 594 0T586 86Z" />
<glyph unicode="b" horiz-adv-x="1059" d="M337 322Q325 282 319 249T313 188Q313 132 338 104T412 76Q454 76 499 107T585 191T660 313T713 457T733 608Q733 665 713 691T651 718Q621 718 587 700T519 650T453 574T396 480T353 373L337 322ZM340 1203Q322 1222
300 1240T254 1276T201 1312L216 1366L657 1436H694L397 566L387 574Q464 701 536 777T676 886T807 920Q913 920 973 851T1034 670Q1034 567 1002 466T910 277T772 120T598 13T399 -26Q252 -26 165 54T77 265Q77 296 82 329T98 397L340 1203Z" />
<glyph unicode="c" horiz-adv-x="872" d="M566 813Q519 813 477 776T403 675T353 528T335 354Q335 248 371 205T487 161Q534 161 575 177T656 232T733 336H802Q746 198 684 119T546 7T375 -26Q215 -26 133 59T50 304Q50 437 96 549T223 745T409 874T633 920Q768
920 829 873T890 759Q890 704 852 673T755 641Q742 641 725 661T680 724Q652 767 624 790T566 813Z" />
<glyph unicode="d" horiz-adv-x="1145" d="M793 703Q779 740 750 763T672 787Q617 787 564 747T464 641T381 501T325 355T304 234Q304 195 320 179T371 162Q397 162 432 180T508 233T587 318T661 432T721 572L925 1193Q908 1216 886 1237T839 1278T790 1312L805
1366L1244 1436H1281L836 72L791 151Q838 151 885 165T981 211T1085 294L1127 248Q1009 103 903 39T700 -26Q620 -26 591 0T582 86L693 409H710Q627 273 561 188T441 56T336 -8T234 -26Q172 -26 123 -2T44 72T15 195Q15 283 46 382T132 576T263 748T425 870T608
916Q685 916 741 882T839 771L793 703Z" />
<glyph unicode="e" horiz-adv-x="913" d="M590 818Q549 818 511 793T440 722T385 618T348 492T334 354Q334 248 376 205T497 161Q550 161 594 177T680 230T760 333H830Q771 194 706 116T562 6T386 -26Q278 -26 203 12T88 124T49 299Q49 405 78 499T162 671T289
804T448 890T629 920Q727 920 787 894T874 823T901 722Q901 675 884 628T835 544Q772 520 702 498T559 456T411 418T265 385L269 473Q371 503 441 529T555 578T623 626T656 676T665 734Q665 761 657 779T632 808T590 818Z" />
<glyph unicode="f" horiz-adv-x="740" d="M101 785L116 894H860L844 785H101ZM484 299Q432 68 365 -89T216 -341T43 -477T-150 -519Q-267 -519 -321 -474T-375 -358Q-375 -304 -341 -271T-251 -238Q-235 -249 -217 -272T-169 -334Q-140 -373 -114 -387T-62 -402Q-30
-402 -3 -390T48 -346T90 -261T127 -123L322 840Q362 1037 457 1169T684 1369T966 1436Q1058 1436 1116 1415T1201 1356T1228 1273Q1228 1217 1190 1183T1092 1149Q1077 1158 1057 1184T1007 1245Q978 1279 943 1297T867 1315Q812 1315 772 1292T704 1213T654 1061L484
299Z" />
<glyph unicode="g" horiz-adv-x="981" d="M1006 738Q981 738 961 751T917 784T862 820T784 844T670 843L669 905Q780 894 856 900T986 917T1078 928Q1101 928 1115 917T1129 882Q1129 856 1119 831T1092 785T1053 751T1006 738ZM419 343Q454 343 485 367T541 433T585
525T614 629T624 728Q624 785 607 809T555 834Q520 834 489 810T433 744T389 652T360 548T350 449Q350 392 368 368T419 343ZM564 920Q668 920 736 887T837 794T872 658Q872 574 838 502T742 374T596 288T410 257Q307 257 239 290T137 383T103 519Q103 603 137
675T233 803T379 889T564 920ZM277 -519Q161 -519 79 -504T-56 -461T-132 -395T-156 -310Q-156 -256 -120 -211T5 -133T255 -83L338 -78L344 -98Q271 -102 216 -115T123 -152T66 -206T46 -276Q46 -317 76 -352T170 -407T337 -428Q423 -428 480 -410T565 -360T594
-290Q594 -265 580 -246T531 -209T436 -175T284 -139Q177 -117 119 -85T38 -13T15 76Q15 141 52 189T162 267T335 305L357 279Q283 276 251 252T219 198Q219 183 228 171T264 146T340 120T470 90Q609 62 687 21T798 -71T831 -184Q831 -257 796 -318T691 -424T518
-494T277 -519Z" />
<glyph unicode="h" horiz-adv-x="1146" d="M339 201L278 0H0L365 1203Q347 1223 326 1241T279 1277T226 1312L241 1366L682 1436H719L363 407L359 423Q422 559 484 653T607 806T732 892T860 919Q965 919 1010 873T1056 754Q1056 716 1045 667T1010 554L824 75L781
151Q829 151 875 165T971 210T1080 292L1121 245Q1038 147 961 87T811 1T668 -26Q582 -26 555 5T554 107L730 557Q746 600 753 624T760 667Q760 689 747 703T703 717Q664 717 618 685T523 589T427 428T339 201Z" />
<glyph unicode="i" horiz-adv-x="676" d="M77 107L339 802L396 743Q343 745 294 730T196 682T91 594L48 639Q130 744 207 805T357 893T499 920Q585 920 612 888T614 787L352 75L297 150Q351 148 400 160T498 203T601 280L642 233Q560 140 483 83T334 0T192 -26Q106
-26 78 5T77 107ZM433 1270Q433 1318 454 1354T515 1412T608 1433Q683 1433 729 1391T776 1279Q776 1232 755 1195T694 1137T601 1116Q526 1116 480 1159T433 1270Z" />
<glyph unicode="j" horiz-adv-x="626" d="M416 1270Q416 1318 437 1354T497 1412T590 1433Q666 1433 712 1391T758 1279Q758 1232 737 1195T676 1137T583 1116Q508 1116 462 1159T416 1270ZM378 54Q321 -141 224 -268T9 -457T-234 -519Q-343 -519 -393 -476T-443
-367Q-443 -317 -412 -284T-326 -251Q-315 -251 -299 -267T-255 -323Q-228 -362 -204 -380T-160 -398Q-131 -398 -105 -385T-54 -339T-5 -253T43 -116L321 802L378 743Q326 745 279 730T183 682T79 595L35 640Q114 740 189 802T337 892T481 920Q538 920 567 907T603
864T596 787L378 54Z" />
<glyph unicode="k" horiz-adv-x="1133" d="M714 1436L278 0H0L365 1203Q347 1223 326 1241T280 1277T226 1312L242 1366L676 1436H714ZM411 486L432 525Q557 649 645 726T798 846T914 904T1014 920Q1086 920 1124 879T1163 781Q1163 730 1140 694T1080 639T1001
619Q987 619 974 634T942 680Q925 711 909 726T872 741Q845 741 809 726T728 682T632 610T524 511L618 643Q677 483 717 387T783 243T829 179T867 163Q885 163 909 175T965 215T1039 291L1083 249Q1016 155 953 94T830 4T713 -26Q679 -26 649 -7T585 66T510 221T411
486Z" />
<glyph unicode="l" horiz-adv-x="633" d="M383 1206Q366 1225 345 1243T300 1278T247 1312L263 1366L703 1436H740L307 76L257 154Q313 149 364 160T467 201T575 281L616 234Q532 137 453 80T298 -1T150 -26Q69 -26 40 5T34 107L383 1206Z" />
<glyph unicode="m" horiz-adv-x="1736" d="M1413 75L1370 151Q1418 151 1464 165T1560 210T1669 292L1710 245Q1627 147 1550 87T1400 1T1257 -26Q1171 -26 1144 5T1143 107L1320 559Q1337 602 1343 626T1350 667Q1350 690 1338 703T1296 717Q1263 717 1223 689T1137
601T1046 444T954 213L887 0H603L790 568Q800 597 805 616T813 649T815 671Q815 694 803 705T763 717Q727 717 686 686T602 590T516 429T432 201L370 0H92L313 730Q310 730 307 730T299 730Q256 730 223 718T158 670T88 561L39 580Q81 711 137 784T263 888T418
919Q451 919 477 917T531 912T590 901L447 410V425Q513 574 573 670T689 821T799 898T907 920Q993 920 1033 882T1074 774Q1074 746 1067 712T1047 635L983 416H974Q1039 564 1099 662T1218 816T1334 896T1452 920Q1555 920 1600 875T1646 759Q1646 721 1635 671T1598
554L1413 75Z" />
<glyph unicode="n" horiz-adv-x="1239" d="M88 561L39 580Q81 711 137 784T263 888T418 919Q451 919 478 917T532 912T593 901L447 402L448 415Q511 553 573 649T698 804T824 891T952 919Q1058 919 1103 873T1149 754Q1149 716 1138 667T1102 554L917 75L874 151Q922
151 968 165T1064 210T1173 292L1214 245Q1131 147 1054 87T904 1T760 -26Q675 -26 648 5T647 107L823 557Q839 600 846 624T853 667Q853 689 840 703T796 717Q757 717 711 685T615 589T519 428T432 201L370 0H92L313 730Q310 730 307 730T299 730Q256 730 223
718T158 670T88 561Z" />
<glyph unicode="o" horiz-adv-x="1025" d="M613 920Q731 920 810 877T930 755T971 572Q971 449 929 341T811 151T633 21T411 -26Q293 -26 214 17T94 139T54 322Q54 444 96 552T214 743T391 873T613 920ZM414 86Q456 86 497 121T575 216T640 351T684 507T700 667Q700
744 678 775T611 807Q569 807 528 772T450 678T385 543T341 386T324 227Q324 150 346 118T414 86Z" />
<glyph unicode="p" horiz-adv-x="1171" d="M445 306Q435 267 431 239T427 191Q427 136 453 106T532 75Q571 75 612 103T692 182T761 298T809 438T827 589Q827 654 807 686T739 719Q708 719 675 699T610 644T548 564T497 470T462 372L445 306ZM274 97H406L265 -393L405
-442L388 -493H-165L-149 -443L-17 -393L311 730Q308 730 305 730T298 730Q255 730 221 718T156 670T85 561L38 580Q80 711 136 785T262 889T416 920Q466 920 503 916T588 902L481 524L468 528Q535 666 603 752T741 879T887 920Q1000 920 1067 844T1134 645Q1134
545 1106 448T1027 265T905 114T747 11T559 -26Q455 -26 379 4T274 97Z" />
<glyph unicode="q" horiz-adv-x="1083" d="M426 -393L678 404H707Q626 271 560 187T439 56T333 -8T232 -26Q170 -26 121 -2T42 71T13 194Q13 282 45 381T133 574T264 745T428 867T611 913Q688 913 744 879T842 767L796 700Q783 737 753 760T675 783Q621 783 568
743T466 639T382 499T324 354T302 233Q302 195 318 179T370 162Q402 162 444 187T532 257T617 365T685 502L787 778L872 894H1097L711 -392L816 -443L800 -493H245L261 -442L426 -393Z" />
<glyph unicode="r" horiz-adv-x="961" d="M313 730Q310 730 307 730T299 730Q256 730 223 718T158 670T88 561L39 580Q81 711 137 784T263 888T418 919Q452 919 479 917T534 911T593 901L454 422L452 437Q531 615 605 721T751 873T893 920Q968 920 1005 882T1043
780Q1043 733 1020 695T959 635T879 613Q867 613 854 625T824 660Q806 684 789 695T752 707Q726 707 695 686T630 624T563 522T495 380T432 201L371 0H92L313 730Z" />
<glyph unicode="s" horiz-adv-x="793" d="M127 239Q137 228 151 209T197 146Q229 103 260 86T327 69Q368 69 398 81T446 116T463 173Q463 200 452 225T410 281T319 354Q260 395 224 435T171 519T155 616Q155 701 200 770T330 879T535 920Q628 920 685 900T768
845T794 767Q794 734 780 710T737 672T667 659Q658 669 643 687T600 743Q573 781 542 802T480 823Q428 823 402 799T375 733Q375 709 386 685T429 630T522 551Q582 504 617 462T667 377T682 291Q682 202 630 130T486 16T271 -26Q172 -26 111 -6T21 50T-8 127Q-8
161 7 186T53 225T127 239Z" />
<glyph unicode="t" horiz-adv-x="757" d="M112 785L128 894H827L811 785H112ZM455 375Q438 323 430 292T420 244T417 214Q417 193 425 185T449 177Q469 177 497 193T565 246T655 340L707 296Q644 205 585 144T471 45T366 -9T269 -26Q204 -26 166 9T128 134Q128
172 139 229T174 362L408 1117H690L455 375Z" />
<glyph unicode="u" horiz-adv-x="1182" d="M652 84L767 474L781 459Q715 325 657 232T541 82T425 0T299 -26Q200 -26 156 19T112 135Q112 173 123 223T160 341L333 819L386 744Q331 746 282 730T185 681T83 594L38 638Q115 741 191 802T341 892T486 920Q569 920
596 887T599 786L433 329Q418 287 411 263T404 223Q404 201 418 188T460 175Q492 175 530 200T607 276T685 403T755 583L853 894H1131L879 74L836 151Q883 152 930 166T1027 212T1132 295L1174 249Q1060 105 951 40T756 -26Q685 -26 660 -1T652 84Z" />
<glyph unicode="v" horiz-adv-x="1078" d="M1047 732Q1047 619 1011 509T911 303T764 132T584 16T386 -26Q270 -26 210 26T149 172Q149 229 170 295L312 730Q308 730 305 730T297 730Q255 730 223 717T161 668T91 561L42 583Q77 678 117 742T208 845T320 901T462
918Q501 918 532 916T592 911T646 901L459 325Q450 299 446 276T441 233Q441 187 466 164T536 140Q581 140 629 164T722 231T801 329T856 445T877 570Q877 616 858 646T814 696T770 733T751 769Q751 836 793 878T898 920Q964 920 1005 874T1047 732Z" />
<glyph unicode="w" horiz-adv-x="1555" d="M862 894H1136L975 324Q967 294 963 270T958 226Q958 181 979 161T1040 140Q1081 140 1125 164T1210 231T1284 328T1337 445T1356 570Q1356 616 1337 645T1292 695T1247 732T1227 768Q1227 834 1271 877T1376 920Q1419
920 1452 900T1503 839T1522 732Q1522 616 1488 506T1393 299T1253 129T1083 15T901 -26Q807 -26 758 8T708 128Q708 156 713 189T731 263L781 436L796 429Q750 298 698 210T588 70T473 -4T357 -26Q256 -26 202 25T147 169Q147 228 171 303L310 730Q306 730 303
730T295 730Q253 730 222 717T159 668T90 561L40 583Q75 678 115 742T206 845T319 901T461 918Q502 918 534 916T594 910T644 901L454 315Q443 280 438 255T433 210Q433 175 449 160T497 145Q539 145 583 183T668 297T743 488L862 894Z" />
<glyph unicode="x" horiz-adv-x="1083" d="M588 397L528 411L359 178Q301 100 255 55T165 -8T73 -26Q3 -26 -34 12T-71 106Q-71 151 -51 184T-1 236T62 255Q77 255 89 245T117 215Q132 196 147 187T181 177Q201 177 227 191T288 240T372 339L498 507L562 494L722
711Q781 790 829 836T922 901T1014 920Q1084 920 1121 882T1158 788Q1158 744 1139 711T1089 658T1025 639Q1012 639 1000 647T971 677Q955 698 940 707T907 717Q884 717 853 700T785 647T707 556L588 397ZM1032 331Q968 192 905 114T774 5T625 -26Q584 -26 558
-14T515 24T488 95L355 692Q349 719 346 725T333 732Q300 732 259 692T170 547L99 558Q147 695 204 774T328 886T472 920Q513 920 539 908T582 869T607 798L738 200Q746 169 750 162T763 154Q790 154 819 170T885 228T968 344L1032 331Z" />
<glyph unicode="y" horiz-adv-x="1050" d="M105 491L34 498Q63 615 97 696T171 826T261 898T369 920Q404 920 428 906T473 858T513 764Q533 704 555 605T604 359T660 13L453 -250Q429 -100 409 18T370 229T337 394T307 528Q287 610 276 647T257 695T239 706Q219
706 197 687T151 620T105 491ZM531 -41L567 -35Q637 71 686 176T767 391T813 626T828 895Q860 904 905 908T993 913Q1025 913 1040 901T1055 863Q1054 809 1040 740T997 587T927 410T830 213T704 1Q585 -183 477 -297T269 -465T73 -519Q-22 -519 -65 -477T-108
-368Q-108 -309 -70 -272T21 -234Q32 -234 47 -247T89 -291Q116 -321 141 -336T187 -352Q233 -352 290 -317T410 -212T531 -41Z" />
<glyph unicode="z" horiz-adv-x="928" d="M-16 49L902 932L970 859L53 -21L-16 49ZM126 551L72 580Q122 692 168 762T261 868T360 908T475 896L827 796L624 583L396 651Q342 667 306 671T242 665T187 628T126 551ZM459 7L159 149L365 344L567 242Q610 221 642
213T704 214T770 253T854 335L900 298Q817 172 756 101T647 2T554 -22T459 7Z" />
<glyph unicode="{" horiz-adv-x="628" d="M66 532L95 629L161 632Q205 634 235 647T284 687T316 758Q332 814 337 884T349 1026T375 1163Q404 1265 497 1339T757 1426L870 1434L851 1338L783 1332Q703 1326 661 1283T596 1164Q581 1112 569 1052T544 927T511 796Q484
706 420 647T245 568L253 591Q304 579 333 556T376 501T389 431Q389 383 370 317T325 180T280 43T260 -72Q260 -116 279 -142T340 -178L386 -186L349 -273L271 -263Q171 -249 118 -185T65 -38Q65 16 89 82T144 217T200 347T224 454Q224 491 202 509T131 529L66
532Z" />
<glyph unicode="|" horiz-adv-x="488" d="M-111 -519L480 1481H620L29 -519H-111Z" />
<glyph unicode="}" horiz-adv-x="628" d="M644 629L615 532L549 529Q505 528 475 515T427 474T394 403Q379 347 373 277T361 135T335 -2Q306 -103 213 -177T-47 -264L-160 -273L-141 -177L-73 -171Q7 -164 49 -121T114 -3Q129 50 141 110T166 235T199 365Q227
456 291 515T464 594L457 570Q407 583 377 606T334 660T321 731Q321 779 340 844T385 981T430 1118T450 1233Q450 1278 432 1304T370 1339L324 1347L361 1434L438 1424Q540 1410 592 1346T645 1199Q645 1145 621 1079T566 944T510 814T486 707Q486 671 508 653T579
632L644 629Z" />
<glyph unicode="~" horiz-adv-x="1033" d="M944 579Q916 481 876 423T786 339T671 313Q616 313 575 333T498 381T430 428T359 448Q314 448 284 421T230 321H91Q120 418 159 476T250 561T367 587Q420 587 461 567T537 519T605 472T676 451Q722 451 751 478T805 579H944Z" />
<glyph unicode="&#xa0;" horiz-adv-x="434" />
<glyph unicode="&#xa1;" horiz-adv-x="543" d="M-154 -383L-131 -314Q-123 -289 -108 -255T-71 -174T-20 -69T45 62T124 222T217 413H307Q294 310 283 223T264 63T249 -69T236 -174T223 -254T210 -314L190 -384Q180 -420 153 -443T86 -478T-8 -489Q-60 -489 -97
-478T-149 -444T-154 -383ZM331 572Q263 572 226 611T188 710Q188 765 213 810T284 881T390 907Q459 907 496 869T533 770Q533 715 508 670T437 599T331 572Z" />
<glyph unicode="&#xa2;" horiz-adv-x="1268" d="M273 0L1116 1352H1224L381 0H273ZM824 1036Q776 1036 735 999T661 897T611 750T593 576Q593 471 628 427T745 383Q792 383 833 399T913 454T991 559H1060Q1004 421 942 342T804 229T633 196Q473 196 391 281T308
526Q308 659 354 771T481 967T667 1096T891 1142Q1026 1142 1087 1095T1148 981Q1148 926 1110 895T1013 863Q999 863 983 883T938 947Q910 989 882 1012T824 1036Z" />
<glyph unicode="&#xa3;" horiz-adv-x="1268" d="M1036 732L1003 625H163L196 732H1036ZM360 266H1029L766 167L1110 464H1178L943 -50H895L808 0H44L59 55Q184 156 260 227T377 351T430 447T444 536Q444 586 428 629T391 717T353 819T337 950Q337 1064 392 1162T558
1319T838 1379Q972 1379 1059 1326T1194 1173T1249 929L1151 914Q1133 1035 1075 1092T912 1149Q821 1149 766 1117T687 1034T662 923Q661 864 670 818T687 730T693 636Q691 601 673 555T612 454T497 335T316 200L360 266Z" />
<glyph unicode="&#xa4;" horiz-adv-x="929" d="M188 734L304 818L405 669L287 582L188 734ZM794 787L867 683L718 567L644 668L794 787ZM743 166L627 82L526 231L644 317L743 166ZM64 217L213 332L287 232L137 113L64 217ZM516 751Q594 751 653 718T745 628T779
498Q779 406 736 327T612 198T414 149Q338 149 279 182T185 272T151 402Q151 494 194 573T319 702T516 751ZM431 271Q502 271 549 300T621 378T646 482Q646 547 607 588T500 629Q429 629 382 600T310 522T285 418Q285 353 324 312T431 271Z" />
<glyph unicode="&#xa5;" horiz-adv-x="1268" d="M599 1244L477 1297L493 1352H1104L1087 1297L949 1255L1173 907L1116 920L1511 1256L1396 1297L1413 1352H1821L1804 1297L1663 1256L1186 865L953 106L1111 50L1096 0H444L459 50L650 106L881 858L599 1244ZM1404
587L1371 479H458L491 587H1404ZM1494 881L1461 773H549L582 881H1494Z" />
<glyph unicode="&#xa6;" horiz-adv-x="488" d="M392 708H252L480 1481H620L392 708ZM-111 -519L138 324H278L29 -519H-111Z" />
<glyph unicode="&#xa7;" horiz-adv-x="1153" d="M577 759Q500 747 454 722T386 661T365 585Q365 534 400 502T492 445T611 396T730 337T821 248T857 109Q857 7 803 -80T636 -221T350 -275Q232 -275 156 -253T43 -193T6 -108Q6 -55 37 -25T116 6Q156 6 180 -19T230
-79T296 -138T412 -164Q476 -164 517 -143T578 -87T598 -15Q598 39 562 71T469 128T348 176T227 233T134 320T97 456Q97 588 196 684T512 814L577 759ZM852 529Q852 579 817 611T725 666T606 714T487 773T396 862T361 1000Q361 1100 414 1186T580 1325T869 1379Q992
1379 1066 1355T1175 1292T1210 1209Q1210 1158 1179 1127T1098 1096Q1057 1096 1033 1121T984 1181T920 1240T811 1266Q744 1266 702 1246T639 1192T618 1120Q618 1067 654 1034T748 977T870 930T991 873T1085 787T1121 652Q1121 518 1021 423T706 296L641 352Q715
364 761 389T830 450T852 529Z" />
<glyph unicode="&#xa8;" horiz-adv-x="1000" d="M518 1065Q460 1065 424 1101T388 1190Q388 1227 405 1258T453 1308T529 1327Q588 1327 623 1291T659 1201Q659 1164 642 1134T594 1084T518 1065ZM927 1065Q869 1065 834 1101T798 1190Q798 1227 815 1258T863
1308T938 1327Q997 1327 1032 1291T1068 1201Q1068 1164 1051 1134T1003 1084T927 1065Z" />
<glyph unicode="&#xa9;" horiz-adv-x="1679" d="M924 372Q959 372 988 379T1056 406L962 344L1147 545H1199L1094 320Q1037 304 987 296T869 288Q752 288 670 326T545 435T503 600Q503 696 538 781T642 933T814 1037T1054 1075Q1099 1075 1143 1069T1232 1051L1172
1037L1269 1100H1305L1247 795L1193 788L1141 1003L1187 940Q1160 965 1123 976T1042 988Q973 988 919 954T826 861T769 728T749 573Q749 476 793 424T924 372ZM833 75Q985 75 1111 129T1329 280T1470 504T1520 777Q1520 926 1457 1038T1274 1214T986 1277Q834
1277 708 1223T490 1072T349 848T299 575Q299 427 362 314T545 138T833 75ZM994 1379Q1193 1379 1337 1306T1559 1102T1637 792Q1637 622 1579 474T1412 214T1155 38T825 -26Q627 -26 483 46T261 251T182 560Q182 730 240 878T407 1139T664 1315T994 1379Z" />
<glyph unicode="&#xaa;" horiz-adv-x="975" d="M153 450L192 577H871L832 450H153ZM649 771L724 998H741Q662 868 603 800T495 708T395 683Q326 683 281 722T235 844Q235 926 269 1017T363 1187T501 1317T665 1367Q723 1367 763 1340T831 1256L795 1202Q785 1232
765 1250T711 1268Q674 1268 638 1240T570 1167T514 1070T475 968T461 882Q461 854 470 843T504 831Q526 831 552 847T607 894T662 967T708 1061L797 1288L890 1352H1042L848 753L800 818Q850 817 899 829T1016 879L1040 835Q975 777 923 744T827 696T737 682Q678
682 656 702T649 771Z" />
<glyph unicode="&#xab;" d="M301 491L412 48L329 8L42 398L73 499L589 890L651 822L261 358L301 491ZM740 491L850 48L767 8L481 398L511 499L1027 890L1089 822L699 358L740 491Z" />
<glyph unicode="&#xac;" horiz-adv-x="1033" d="M195 693H969L820 206H677L784 554H152L195 693Z" />
<glyph unicode="&#xad;" horiz-adv-x="710" d="M144 548H627L571 364H88L144 548Z" />
<glyph unicode="&#xae;" horiz-adv-x="1138" d="M912 762L900 725Q833 719 801 722T759 745T752 804L754 866Q755 893 748 903T709 914H612L630 974H750Q791 974 814 1001T837 1070Q837 1091 825 1102T787 1113H680L687 1174H838Q909 1174 938 1147T968 1081Q968
1023 926 988T797 949L793 955Q842 953 861 933T879 868L878 807Q878 777 883 770T912 762ZM751 1174L629 777L670 758L660 725H434L444 758L499 777L605 1124L561 1142L571 1174H751ZM673 584Q801 584 892 641T1033 792T1082 997Q1082 1090 1045 1156T935 1259T759
1295Q632 1295 540 1238T399 1088T350 882Q350 790 387 723T497 620T673 584ZM768 1379Q960 1379 1068 1278T1177 1009Q1177 872 1115 756T938 570T664 500Q472 500 364 601T255 870Q255 1008 317 1123T494 1309T768 1379Z" />
<glyph unicode="&#xaf;" horiz-adv-x="1000" d="M441 1128L482 1264H1017L976 1128H441Z" />
<glyph unicode="&#xb0;" horiz-adv-x="756" d="M598 1369Q724 1369 798 1299T873 1113Q873 1018 830 938T707 809T523 761Q398 761 323 831T248 1017Q248 1113 291 1193T414 1321T598 1369ZM534 858Q610 858 662 893T740 983T767 1102Q767 1183 721 1227T588 1272Q511
1272 459 1237T381 1147T354 1028Q354 947 401 903T534 858Z" />
<glyph unicode="&#xb1;" horiz-adv-x="1033" d="M581 894H724L487 117H344L581 894ZM170 575H941L898 436H127L170 575ZM37 139H808L766 0H-5L37 139Z" />
<glyph unicode="&#xb2;" horiz-adv-x="732" d="M562 695L786 896H828L676 574H650L591 604H142L161 668L389 851Q466 911 507 957T565 1039T582 1108Q582 1151 555 1176T478 1201Q422 1201 379 1170T302 1065L240 1090Q274 1185 322 1247T435 1340T587 1371Q691
1371 752 1323T813 1189Q813 1146 799 1107T749 1028T649 941T485 834L329 738L352 789H751L562 695Z" />
<glyph unicode="&#xb3;" horiz-adv-x="678" d="M368 937L364 1002Q452 1021 498 1043T562 1093T580 1154Q580 1192 556 1211T490 1231Q437 1231 401 1204T336 1115L279 1140Q322 1255 395 1314T591 1374Q683 1374 728 1332T774 1227Q774 1183 752 1145T682 1078T560
1037L563 1042Q653 1045 704 1001T756 882Q756 800 705 733T561 626T342 586Q216 586 171 619T126 691Q126 721 144 743T201 765Q225 765 241 751T273 719T312 686T370 671Q408 671 440 685T496 726T534 789T547 868Q547 916 515 935T410 943L368 937Z" />
<glyph unicode="&#xb4;" horiz-adv-x="1000" d="M620 1031L832 1361H1129L1118 1321L725 1031H620Z" />
<glyph unicode="&#xb5;" horiz-adv-x="1235" d="M736 583L835 894H1112L860 74L818 151Q864 152 911 166T1008 212T1113 295L1156 249Q1041 105 932 40T738 -26Q666 -26 641 -1T633 84L749 474L762 459Q698 324 641 231T529 81T417 -1T296 -26Q232 -26 192 -4T135
61T124 160L166 163L105 -483L-87 -510H-129L327 894H605L413 335Q398 292 392 266T386 223Q386 202 400 189T443 175Q475 175 512 200T589 276T666 403T736 583Z" />
<glyph unicode="&#xb6;" horiz-adv-x="1249" d="M524 -246H398L888 1352H1192L1156 1236H977L524 -246ZM795 -246H670L1159 1352H1447L1430 1295L1250 1243L795 -246ZM959 1352L737 627H520Q356 627 283 695T209 883Q209 970 238 1053T327 1204T484 1312T713 1352H959Z" />
<glyph unicode="&#xb7;" horiz-adv-x="524" d="M294 625Q363 625 400 586T437 486Q437 430 411 384T340 312T234 285Q166 285 129 324T91 423Q91 480 117 526T189 598T294 625Z" />
<glyph unicode="&#xb8;" horiz-adv-x="1000" d="M162 -519Q89 -519 54 -495T18 -434Q18 -408 35 -389T82 -369Q106 -369 123 -385T160 -419T217 -436Q265 -436 292 -411T319 -346Q319 -312 280 -286T123 -239L128 -222L370 48H464L230 -215L259 -101Q376 -126
420 -172T465 -274Q465 -338 428 -394T324 -484T162 -519Z" />
<glyph unicode="&#xb9;" horiz-adv-x="558" d="M281 680L468 1292L501 1212L264 1147L251 1205L568 1354H694L488 680L581 648L568 604H147L160 648L281 680Z" />
<glyph unicode="&#xba;" horiz-adv-x="927" d="M129 450L168 577H847L808 450H129ZM722 1373Q863 1373 935 1306T1007 1122Q1007 1032 974 953T880 814T738 719T560 685Q419 685 347 752T275 936Q275 1026 308 1105T402 1244T543 1339T722 1373ZM569 785Q612 785
651 820T720 913T768 1038T786 1173Q786 1229 768 1251T713 1274Q670 1274 631 1239T562 1146T513 1021T495 886Q495 830 514 808T569 785Z" />
<glyph unicode="&#xbb;" horiz-adv-x="1082" d="M318 407L207 849L290 890L577 500L546 398L30 8L-32 76L358 540L318 407ZM756 407L645 849L728 890L1015 500L984 398L468 8L406 76L797 540L756 407Z" />
<glyph unicode="&#xbc;" horiz-adv-x="1678" d="M316 680L503 1292L536 1212L299 1147L286 1205L603 1354H729L523 680L616 648L603 604H182L195 648L316 680ZM173 0L1474 1352H1613L312 0H173ZM1305 688L1347 660L963 291L949 345H1475L1601 365L1517 208H840L868
299L1331 750H1531L1325 76L1418 44L1405 0H984L997 44L1118 76L1305 688Z" />
<glyph unicode="&#xbd;" horiz-adv-x="1726" d="M171 0L1472 1352H1611L310 0H171ZM1357 91L1581 292H1623L1471 -30H1445L1386 0H937L956 64L1184 247Q1261 307 1302 353T1360 435T1377 504Q1377 547 1350 572T1273 597Q1217 597 1174 566T1097 461L1035 486Q1069
581 1117 643T1230 736T1382 767Q1486 767 1547 719T1608 585Q1608 542 1594 503T1544 424T1444 337T1280 230L1124 134L1147 185H1546L1357 91ZM315 680L502 1292L535 1212L298 1147L285 1205L602 1354H728L522 680L615 648L602 604H181L194 648L315 680Z" />
<glyph unicode="&#xbe;" horiz-adv-x="1706" d="M199 0L1500 1352H1639L338 0H199ZM395 937L391 1002Q479 1021 525 1043T589 1093T607 1154Q607 1192 583 1211T517 1231Q464 1231 428 1204T363 1115L306 1140Q349 1255 422 1314T618 1374Q710 1374 755 1332T801
1227Q801 1183 779 1145T709 1078T587 1037L590 1042Q680 1045 731 1001T783 882Q783 800 732 733T588 626T369 586Q243 586 198 619T153 691Q153 721 171 743T228 765Q252 765 268 751T300 719T339 686T397 671Q435 671 467 685T523 726T561 789T574 868Q574 916
542 935T437 943L395 937ZM1333 688L1375 660L991 291L977 345H1503L1629 365L1545 208H868L896 299L1359 750H1559L1353 76L1446 44L1433 0H1012L1025 44L1146 76L1333 688Z" />
<glyph unicode="&#xbf;" horiz-adv-x="1025" d="M639 574Q570 574 533 612T496 711Q496 767 521 811T592 882T698 909Q767 909 803 870T840 771Q840 716 815 671T744 600T639 574ZM452 -492Q337 -492 249 -460T101 -373T11 -244T-20 -90Q-20 33 33 117T206 241T531
267L395 122L540 418H624L555 45Q403 53 315 32T190 -39T152 -165Q152 -216 176 -258T242 -324T338 -349Q393 -349 433 -331T506 -288T569 -245T639 -226Q685 -226 716 -256T748 -333Q748 -377 719 -413T625 -470T452 -492Z" />
<glyph unicode="&#xc0;" horiz-adv-x="1486" d="M345 441L386 565H1041L1000 441H345ZM1261 111L1394 52L1378 0H767L784 52L956 108L853 1184L914 1190L189 105L327 52L310 0H-139L-122 52L36 105L892 1359H1124L1261 111ZM1077 1487H980L749 1703L759 1742H1020L1077
1487Z" />
<glyph unicode="&#xc1;" horiz-adv-x="1486" d="M345 441L386 565H1041L1000 441H345ZM1261 111L1394 52L1378 0H767L784 52L956 108L853 1184L914 1190L189 105L327 52L310 0H-139L-122 52L36 105L892 1359H1124L1261 111ZM974 1487L1152 1742H1447L1437 1703L1092
1487H974Z" />
<glyph unicode="&#xc2;" horiz-adv-x="1486" d="M345 441L386 565H1041L1000 441H345ZM1261 111L1394 52L1378 0H767L784 52L956 108L853 1184L914 1190L189 105L327 52L310 0H-139L-122 52L36 105L892 1359H1124L1261 111ZM708 1487L993 1742H1214L1344 1487H1221L1056
1621H1106L859 1487H708Z" />
<glyph unicode="&#xc3;" horiz-adv-x="1486" d="M345 441L386 565H1041L1000 441H345ZM1261 111L1394 52L1378 0H767L784 52L956 108L853 1184L914 1190L189 105L327 52L310 0H-139L-122 52L36 105L892 1359H1124L1261 111ZM1400 1741Q1350 1635 1312 1579T1236
1502T1153 1481Q1119 1481 1090 1496T1035 1531T984 1566T934 1581Q917 1581 902 1574T870 1547T833 1488H728Q778 1594 816 1650T892 1727T975 1748Q1009 1748 1038 1733T1093 1698T1144 1663T1194 1648Q1211 1648 1226 1655T1258 1682T1295 1741H1400Z" />
<glyph unicode="&#xc4;" horiz-adv-x="1486" d="M345 441L386 565H1041L1000 441H345ZM1261 111L1394 52L1378 0H767L784 52L956 108L853 1184L914 1190L189 105L327 52L310 0H-139L-122 52L36 105L892 1359H1124L1261 111ZM845 1483Q787 1483 751 1519T715 1608Q715
1646 732 1677T780 1727T856 1746Q915 1746 950 1710T986 1620Q986 1583 969 1552T921 1502T845 1483ZM1272 1483Q1214 1483 1179 1519T1143 1608Q1143 1646 1160 1677T1208 1727T1283 1746Q1342 1746 1377 1710T1413 1620Q1413 1583 1397 1552T1349 1502T1272
1483Z" />
<glyph unicode="&#xc5;" horiz-adv-x="1486" d="M345 441L386 565H1041L1000 441H345ZM1261 111L1394 52L1378 0H767L784 52L956 108L853 1184L914 1190L189 105L327 52L310 0H-139L-122 52L36 105L892 1359H1124L1261 111ZM1073 1801Q1152 1801 1203 1752T1254
1625Q1254 1543 1199 1487T1056 1430Q977 1430 926 1479T875 1606Q875 1689 930 1745T1073 1801ZM1059 1499Q1113 1499 1146 1534T1180 1621Q1180 1673 1150 1703T1070 1734Q1016 1734 983 1699T949 1609Q949 1560 979 1530T1059 1499Z" />
<glyph unicode="&#xc6;" horiz-adv-x="2043" d="M175 105L313 52L297 0H-155L-139 52L19 105L1022 1233L853 1300L868 1352H1521L1108 0H656L672 52L829 108L1179 1253L1189 1246L175 105ZM1698 -76L1607 0H949L991 129H1683L1568 78L1926 437L1994 416L1749 -76H1698ZM433
447L475 572H1052L1011 447H433ZM1556 448L1597 646H1147L1184 771H1634L1715 969H1819L1739 708L1659 448H1556ZM2010 954L1943 1277L1987 1224H1321L1362 1352H1977L2116 1422H2161L2088 954H2010Z" />
<glyph unicode="&#xc7;" horiz-adv-x="1405" d="M1077 150L980 82L1250 403H1334L1196 39Q1109 13 997 -6T772 -26Q567 -26 426 41T212 230T139 516Q139 667 183 798T311 1037T510 1220T772 1338T1085 1379Q1148 1379 1206 1374T1321 1357T1432 1324L1283 1316L1433
1426H1485L1437 908H1357L1249 1269L1334 1151Q1276 1197 1217 1219T1077 1242Q967 1242 872 1209T701 1113T570 963T486 767T457 535Q457 396 505 301T642 158T849 110Q900 110 957 119T1077 150ZM573 -436Q622 -436 648 -411T675 -346Q675 -312 636 -286T479
-239L485 -222L726 48H821L586 -215L616 -101Q733 -126 777 -172T822 -274Q822 -338 785 -394T680 -484T518 -519Q446 -519 410 -495T374 -434Q374 -408 391 -389T439 -369Q463 -369 479 -385T517 -419T573 -436Z" />
<glyph unicode="&#xc8;" horiz-adv-x="1330" d="M465 1249L334 1300L350 1352H808L395 0H-57L-41 52L116 108L465 1249ZM1230 1277L1274 1224H608L650 1352H1264L1404 1422H1448L1375 954H1297L1230 1277ZM985 -76L894 0H236L278 129H970L855 78L1213 437L1281
416L1036 -76H985ZM947 448H843L884 646H434L472 771H921L1003 969H1106L1026 708L947 448ZM988 1487H891L660 1703L670 1742H931L988 1487Z" />
<glyph unicode="&#xc9;" horiz-adv-x="1330" d="M465 1249L334 1300L350 1352H808L395 0H-57L-41 52L116 108L465 1249ZM1230 1277L1274 1224H608L650 1352H1264L1404 1422H1448L1375 954H1297L1230 1277ZM985 -76L894 0H236L278 129H970L855 78L1213 437L1281
416L1036 -76H985ZM947 448H843L884 646H434L472 771H921L1003 969H1106L1026 708L947 448ZM885 1487L1063 1742H1358L1348 1703L1003 1487H885Z" />
<glyph unicode="&#xca;" horiz-adv-x="1330" d="M465 1249L334 1300L350 1352H808L395 0H-57L-41 52L116 108L465 1249ZM1230 1277L1274 1224H608L650 1352H1264L1404 1422H1448L1375 954H1297L1230 1277ZM985 -76L894 0H236L278 129H970L855 78L1213 437L1281
416L1036 -76H985ZM947 448H843L884 646H434L472 771H921L1003 969H1106L1026 708L947 448ZM619 1487L904 1742H1125L1255 1487H1132L967 1621H1017L770 1487H619Z" />
<glyph unicode="&#xcb;" horiz-adv-x="1330" d="M465 1249L334 1300L350 1352H808L395 0H-57L-41 52L116 108L465 1249ZM1230 1277L1274 1224H608L650 1352H1264L1404 1422H1448L1375 954H1297L1230 1277ZM985 -76L894 0H236L278 129H970L855 78L1213 437L1281
416L1036 -76H985ZM947 448H843L884 646H434L472 771H921L1003 969H1106L1026 708L947 448ZM756 1483Q698 1483 662 1519T626 1608Q626 1646 643 1677T691 1727T767 1746Q826 1746 861 1710T897 1620Q897 1583 880 1552T832 1502T756 1483ZM1183 1483Q1125 1483
1090 1519T1054 1608Q1054 1646 1071 1677T1119 1727T1194 1746Q1253 1746 1288 1710T1324 1620Q1324 1583 1308 1552T1260 1502T1183 1483Z" />
<glyph unicode="&#xcc;" horiz-adv-x="751" d="M465 1249L334 1300L350 1352H948L932 1300L775 1245L426 103L557 52L542 0H-57L-41 52L116 108L465 1249ZM739 1487H642L411 1703L421 1742H682L739 1487Z" />
<glyph unicode="&#xcd;" horiz-adv-x="751" d="M465 1249L334 1300L350 1352H948L932 1300L775 1245L426 103L557 52L542 0H-57L-41 52L116 108L465 1249ZM636 1487L814 1742H1109L1099 1703L754 1487H636Z" />
<glyph unicode="&#xce;" horiz-adv-x="751" d="M465 1249L334 1300L350 1352H948L932 1300L775 1245L426 103L557 52L542 0H-57L-41 52L116 108L465 1249ZM370 1487L655 1742H876L1006 1487H883L718 1621H768L521 1487H370Z" />
<glyph unicode="&#xcf;" horiz-adv-x="751" d="M465 1249L334 1300L350 1352H948L932 1300L775 1245L426 103L557 52L542 0H-57L-41 52L116 108L465 1249ZM507 1483Q449 1483 413 1519T377 1608Q377 1646 394 1677T442 1727T518 1746Q577 1746 612 1710T648 1620Q648
1583 631 1552T583 1502T507 1483ZM934 1483Q876 1483 841 1519T805 1608Q805 1646 822 1677T870 1727T945 1746Q1004 1746 1039 1710T1075 1620Q1075 1583 1059 1552T1011 1502T934 1483Z" />
<glyph unicode="&#xd0;" horiz-adv-x="1535" d="M134 621L174 750H886L846 621H134ZM586 129Q703 129 802 166T980 272T1114 435T1198 642T1227 882Q1227 991 1185 1067T1059 1184T845 1224H625L640 1352H924Q1145 1352 1280 1290T1478 1116T1540 853Q1540 671
1474 516T1281 245T977 65T573 0H227L294 129H586ZM469 1249L338 1300L353 1352H812L399 0H-53L-37 52L120 108L469 1249Z" />
<glyph unicode="&#xd1;" horiz-adv-x="1504" d="M1166 219L1087 150L1423 1248L1283 1300L1298 1352H1721L1705 1300L1548 1248L1164 -6H937L539 1218L591 1237L245 104L385 52L369 0H-53L-38 52L120 105L463 1225L322 1305L336 1352H794L1166 219ZM1441 1741Q1391
1635 1353 1579T1277 1502T1194 1481Q1160 1481 1131 1496T1076 1531T1025 1566T975 1581Q958 1581 943 1574T911 1547T874 1488H769Q819 1594 857 1650T933 1727T1016 1748Q1050 1748 1079 1733T1134 1698T1185 1663T1235 1648Q1252 1648 1267 1655T1299 1682T1336
1741H1441Z" />
<glyph unicode="&#xd2;" horiz-adv-x="1552" d="M440 432Q440 266 509 189T706 111Q785 111 855 143T987 233T1097 367T1180 535T1233 724T1251 921Q1251 1087 1183 1164T986 1242Q907 1242 836 1210T704 1120T595 985T512 818T459 629T440 432ZM1553 840Q1553
701 1513 573T1398 335T1219 145T986 19T709 -26Q525 -26 398 37T205 221T139 512Q139 651 179 780T293 1018T472 1208T706 1334T983 1379Q1167 1379 1294 1315T1487 1131T1553 840ZM1116 1487H1019L788 1703L798 1742H1059L1116 1487Z" />
<glyph unicode="&#xd3;" horiz-adv-x="1552" d="M440 432Q440 266 509 189T706 111Q785 111 855 143T987 233T1097 367T1180 535T1233 724T1251 921Q1251 1087 1183 1164T986 1242Q907 1242 836 1210T704 1120T595 985T512 818T459 629T440 432ZM1553 840Q1553
701 1513 573T1398 335T1219 145T986 19T709 -26Q525 -26 398 37T205 221T139 512Q139 651 179 780T293 1018T472 1208T706 1334T983 1379Q1167 1379 1294 1315T1487 1131T1553 840ZM1013 1487L1191 1742H1486L1476 1703L1131 1487H1013Z" />
<glyph unicode="&#xd4;" horiz-adv-x="1552" d="M440 432Q440 266 509 189T706 111Q785 111 855 143T987 233T1097 367T1180 535T1233 724T1251 921Q1251 1087 1183 1164T986 1242Q907 1242 836 1210T704 1120T595 985T512 818T459 629T440 432ZM1553 840Q1553
701 1513 573T1398 335T1219 145T986 19T709 -26Q525 -26 398 37T205 221T139 512Q139 651 179 780T293 1018T472 1208T706 1334T983 1379Q1167 1379 1294 1315T1487 1131T1553 840ZM747 1487L1032 1742H1253L1383 1487H1260L1095 1621H1145L898 1487H747Z" />
<glyph unicode="&#xd5;" horiz-adv-x="1552" d="M440 432Q440 266 509 189T706 111Q785 111 855 143T987 233T1097 367T1180 535T1233 724T1251 921Q1251 1087 1183 1164T986 1242Q907 1242 836 1210T704 1120T595 985T512 818T459 629T440 432ZM1553 840Q1553
701 1513 573T1398 335T1219 145T986 19T709 -26Q525 -26 398 37T205 221T139 512Q139 651 179 780T293 1018T472 1208T706 1334T983 1379Q1167 1379 1294 1315T1487 1131T1553 840ZM1439 1741Q1389 1635 1351 1579T1275 1502T1192 1481Q1158 1481 1129 1496T1074
1531T1023 1566T973 1581Q956 1581 941 1574T909 1547T872 1488H767Q817 1594 855 1650T931 1727T1014 1748Q1048 1748 1077 1733T1132 1698T1183 1663T1233 1648Q1250 1648 1265 1655T1297 1682T1334 1741H1439Z" />
<glyph unicode="&#xd6;" horiz-adv-x="1552" d="M440 432Q440 266 509 189T706 111Q785 111 855 143T987 233T1097 367T1180 535T1233 724T1251 921Q1251 1087 1183 1164T986 1242Q907 1242 836 1210T704 1120T595 985T512 818T459 629T440 432ZM1553 840Q1553
701 1513 573T1398 335T1219 145T986 19T709 -26Q525 -26 398 37T205 221T139 512Q139 651 179 780T293 1018T472 1208T706 1334T983 1379Q1167 1379 1294 1315T1487 1131T1553 840ZM884 1483Q826 1483 790 1519T754 1608Q754 1646 771 1677T819 1727T895 1746Q954
1746 989 1710T1025 1620Q1025 1583 1008 1552T960 1502T884 1483ZM1311 1483Q1253 1483 1218 1519T1182 1608Q1182 1646 1199 1677T1247 1727T1322 1746Q1381 1746 1416 1710T1452 1620Q1452 1583 1436 1552T1388 1502T1311 1483Z" />
<glyph unicode="&#xd7;" horiz-adv-x="1033" d="M86 202L879 803L950 698L156 97L86 202ZM253 717L372 803L783 182L664 97L253 717Z" />
<glyph unicode="&#xd8;" horiz-adv-x="1570" d="M1764 1352L1439 1083L1342 1015L425 230L344 168L142 0H-53L274 271L365 335L1283 1121L1367 1185L1569 1352H1764ZM449 432Q449 266 518 189T715 111Q794 111 865 143T997 233T1106 367T1189 535T1242 724T1261
921Q1261 1087 1192 1164T995 1242Q917 1242 846 1210T714 1120T604 985T521 818T468 629T449 432ZM1562 840Q1562 701 1522 573T1408 335T1229 145T995 19T718 -26Q534 -26 407 37T214 221T148 512Q148 651 188 780T303 1018T482 1208T715 1334T992 1379Q1177
1379 1304 1315T1496 1131T1562 840Z" />
<glyph unicode="&#xd9;" horiz-adv-x="1519" d="M528 539Q490 414 508 333T598 213T795 174Q902 174 985 209T1130 324T1232 535L1450 1248L1310 1300L1326 1352H1748L1732 1300L1575 1248L1341 481Q1288 307 1199 195T984 28T690 -26Q496 -26 370 39T202 228T212
527L433 1249L302 1300L318 1352H916L901 1300L744 1245L528 539ZM1146 1487H1049L818 1703L828 1742H1089L1146 1487Z" />
<glyph unicode="&#xda;" horiz-adv-x="1519" d="M528 539Q490 414 508 333T598 213T795 174Q902 174 985 209T1130 324T1232 535L1450 1248L1310 1300L1326 1352H1748L1732 1300L1575 1248L1341 481Q1288 307 1199 195T984 28T690 -26Q496 -26 370 39T202 228T212
527L433 1249L302 1300L318 1352H916L901 1300L744 1245L528 539ZM1043 1487L1221 1742H1516L1506 1703L1161 1487H1043Z" />
<glyph unicode="&#xdb;" horiz-adv-x="1519" d="M528 539Q490 414 508 333T598 213T795 174Q902 174 985 209T1130 324T1232 535L1450 1248L1310 1300L1326 1352H1748L1732 1300L1575 1248L1341 481Q1288 307 1199 195T984 28T690 -26Q496 -26 370 39T202 228T212
527L433 1249L302 1300L318 1352H916L901 1300L744 1245L528 539ZM777 1487L1062 1742H1283L1413 1487H1290L1125 1621H1175L928 1487H777Z" />
<glyph unicode="&#xdc;" horiz-adv-x="1519" d="M528 539Q490 414 508 333T598 213T795 174Q902 174 985 209T1130 324T1232 535L1450 1248L1310 1300L1326 1352H1748L1732 1300L1575 1248L1341 481Q1288 307 1199 195T984 28T690 -26Q496 -26 370 39T202 228T212
527L433 1249L302 1300L318 1352H916L901 1300L744 1245L528 539ZM914 1483Q856 1483 820 1519T784 1608Q784 1646 801 1677T849 1727T925 1746Q984 1746 1019 1710T1055 1620Q1055 1583 1038 1552T990 1502T914 1483ZM1341 1483Q1283 1483 1248 1519T1212 1608Q1212
1646 1229 1677T1277 1727T1352 1746Q1411 1746 1446 1710T1482 1620Q1482 1583 1466 1552T1418 1502T1341 1483Z" />
<glyph unicode="&#xdd;" horiz-adv-x="1419" d="M1355 1248L1214 1300L1231 1352H1677L1660 1300L1506 1248L930 594L780 103L911 52L895 0H297L313 52L470 108L618 591L373 1240L238 1300L254 1352H865L848 1300L682 1243L890 646H833L1355 1248ZM955 1487L1133
1742H1428L1418 1703L1073 1487H955Z" />
<glyph unicode="&#xde;" horiz-adv-x="1322" d="M711 425Q792 425 853 451T954 525T1015 637T1035 777Q1035 836 1012 878T938 943T805 965H502L539 1094H883Q1051 1094 1151 1053T1295 939T1339 778Q1339 676 1301 589T1185 436T992 333T718 296H293L337 425H711ZM465
1249L334 1300L350 1352H948L932 1300L775 1245L426 103L557 52L542 0H-57L-41 52L116 108L465 1249Z" />
<glyph unicode="&#xdf;" horiz-adv-x="1328" d="M101 785L116 894H475L459 785H101ZM484 299Q432 68 365 -89T216 -341T43 -477T-150 -519Q-267 -519 -321 -474T-375 -358Q-375 -304 -341 -271T-251 -238Q-235 -249 -217 -272T-169 -334Q-140 -373 -114 -387T-62
-402Q-30 -402 -3 -390T48 -346T90 -261T127 -123L322 840Q363 1041 455 1173T676 1371T961 1436Q1075 1436 1150 1405T1262 1321T1299 1197Q1299 1126 1257 1070T1111 951Q1042 910 1006 880T957 825T944 772Q944 749 954 725T992 668T1075 589Q1157 519 1190
454T1224 316Q1224 218 1173 141T1031 19T818 -26Q674 -26 611 18T548 123Q548 157 563 181T608 219T680 233Q690 221 704 204T747 145Q778 103 808 86T873 69Q918 69 951 83T1002 126T1020 196Q1020 242 990 284T876 391Q793 455 761 514T729 636Q729 686 747
732T805 825T912 926Q979 980 1015 1023T1067 1105T1082 1182Q1082 1250 1042 1292T922 1335Q852 1335 800 1309T712 1222T654 1061L484 299Z" />
<glyph unicode="&#xe0;" horiz-adv-x="1147" d="M586 86L696 409H713Q630 274 564 189T441 57T335 -8T232 -26Q170 -26 121 -2T42 71T13 194Q13 282 45 381T133 574T264 745T428 867T611 913Q688 913 744 879T842 767L796 700Q783 737 753 760T675 783Q621 783
568 743T466 639T382 499T324 354T302 233Q302 195 318 179T369 162Q401 162 443 187T530 259T614 367T684 500L803 802L916 894H1109L838 72L794 151Q841 151 887 165T983 211T1088 294L1129 248Q1011 103 905 39T702 -26Q622 -26 594 0T586 86ZM826 1031H737L507
1321L517 1361H768L826 1031Z" />
<glyph unicode="&#xe1;" horiz-adv-x="1147" d="M586 86L696 409H713Q630 274 564 189T441 57T335 -8T232 -26Q170 -26 121 -2T42 71T13 194Q13 282 45 381T133 574T264 745T428 867T611 913Q688 913 744 879T842 767L796 700Q783 737 753 760T675 783Q621 783
568 743T466 639T382 499T324 354T302 233Q302 195 318 179T369 162Q401 162 443 187T530 259T614 367T684 500L803 802L916 894H1109L838 72L794 151Q841 151 887 165T983 211T1088 294L1129 248Q1011 103 905 39T702 -26Q622 -26 594 0T586 86ZM709 1031L921
1361H1218L1207 1321L814 1031H709Z" />
<glyph unicode="&#xe2;" horiz-adv-x="1147" d="M586 86L696 409H713Q630 274 564 189T441 57T335 -8T232 -26Q170 -26 121 -2T42 71T13 194Q13 282 45 381T133 574T264 745T428 867T611 913Q688 913 744 879T842 767L796 700Q783 737 753 760T675 783Q621 783
568 743T466 639T382 499T324 354T302 233Q302 195 318 179T369 162Q401 162 443 187T530 259T614 367T684 500L803 802L916 894H1109L838 72L794 151Q841 151 887 165T983 211T1088 294L1129 248Q1011 103 905 39T702 -26Q622 -26 594 0T586 86ZM458 1031L767
1361H970L1077 1031H972L802 1235H887L587 1031H458Z" />
<glyph unicode="&#xe3;" horiz-adv-x="1147" d="M586 86L696 409H713Q630 274 564 189T441 57T335 -8T232 -26Q170 -26 121 -2T42 71T13 194Q13 282 45 381T133 574T264 745T428 867T611 913Q688 913 744 879T842 767L796 700Q783 737 753 760T675 783Q621 783
568 743T466 639T382 499T324 354T302 233Q302 195 318 179T369 162Q401 162 443 187T530 259T614 367T684 500L803 802L916 894H1109L838 72L794 151Q841 151 887 165T983 211T1088 294L1129 248Q1011 103 905 39T702 -26Q622 -26 594 0T586 86ZM1149 1348Q1100
1225 1060 1157T982 1062T899 1034Q865 1034 839 1056T790 1106T746 1157T702 1179Q683 1179 666 1168T629 1127T583 1043H486Q536 1167 575 1235T653 1330T737 1357Q771 1357 797 1335T846 1285T890 1235T934 1213Q953 1213 970 1224T1006 1264T1052 1348H1149Z"
/>
<glyph unicode="&#xe4;" horiz-adv-x="1147" d="M586 86L696 409H713Q630 274 564 189T441 57T335 -8T232 -26Q170 -26 121 -2T42 71T13 194Q13 282 45 381T133 574T264 745T428 867T611 913Q688 913 744 879T842 767L796 700Q783 737 753 760T675 783Q621 783
568 743T466 639T382 499T324 354T302 233Q302 195 318 179T369 162Q401 162 443 187T530 259T614 367T684 500L803 802L916 894H1109L838 72L794 151Q841 151 887 165T983 211T1088 294L1129 248Q1011 103 905 39T702 -26Q622 -26 594 0T586 86ZM607 1065Q549
1065 513 1101T477 1190Q477 1227 494 1258T542 1308T618 1327Q677 1327 712 1291T748 1201Q748 1164 731 1134T683 1084T607 1065ZM1016 1065Q958 1065 923 1101T887 1190Q887 1227 904 1258T952 1308T1027 1327Q1086 1327 1121 1291T1157 1201Q1157 1164 1140
1134T1092 1084T1016 1065Z" />
<glyph unicode="&#xe5;" horiz-adv-x="1147" d="M586 86L696 409H713Q630 274 564 189T441 57T335 -8T232 -26Q170 -26 121 -2T42 71T13 194Q13 282 45 381T133 574T264 745T428 867T611 913Q688 913 744 879T842 767L796 700Q783 737 753 760T675 783Q621 783
568 743T466 639T382 499T324 354T302 233Q302 195 318 179T369 162Q401 162 443 187T530 259T614 367T684 500L803 802L916 894H1109L838 72L794 151Q841 151 887 165T983 211T1088 294L1129 248Q1011 103 905 39T702 -26Q622 -26 594 0T586 86ZM826 1382Q905
1382 956 1333T1007 1206Q1007 1124 952 1068T809 1011Q730 1011 679 1060T628 1187Q628 1270 683 1326T826 1382ZM812 1080Q866 1080 899 1115T933 1202Q933 1254 903 1284T823 1315Q769 1315 736 1280T702 1190Q702 1141 732 1111T812 1080Z" />
<glyph unicode="&#xe6;" horiz-adv-x="1548" d="M1038 768L1013 760Q1060 833 1140 876T1322 920Q1398 920 1445 894T1514 822T1536 722Q1536 670 1517 623T1470 544Q1404 520 1334 498T1190 455T1043 418T900 385L904 473Q1006 503 1076 529T1190 578T1258 626T1291
676T1300 734Q1300 761 1292 779T1267 808T1225 818Q1181 818 1143 791T1072 718T1017 612T982 486T969 354Q969 248 1011 205T1132 161Q1185 161 1229 177T1314 230T1395 333H1465Q1406 192 1340 114T1195 5T1021 -26Q902 -26 824 23T713 171T697 417L713 409Q632
277 567 192T445 60T338 -7T232 -26Q170 -26 121 -2T42 71T13 194Q13 282 45 381T133 574T264 745T428 867T611 913Q688 913 744 879T842 767L796 700Q783 737 753 760T675 783Q621 783 568 743T466 639T382 499T324 354T302 233Q302 195 318 179T369 162Q401 162
443 187T530 259T614 367T684 500L803 802L915 894H1075L1038 768Z" />
<glyph unicode="&#xe7;" horiz-adv-x="872" d="M191 -519Q118 -519 83 -495T47 -434Q47 -408 64 -389T111 -369Q135 -369 152 -385T189 -419T246 -436Q294 -436 321 -411T348 -346Q348 -312 309 -286T152 -239L157 -222L399 48H493L258 -215L288 -101Q405 -126
449 -172T494 -274Q494 -338 457 -394T352 -484T191 -519ZM566 813Q519 813 477 776T403 675T353 528T335 354Q335 248 371 205T487 161Q534 161 575 177T656 232T733 336H802Q746 198 684 119T546 7T375 -26Q215 -26 133 59T50 304Q50 437 96 549T223 745T409
874T633 920Q768 920 829 873T890 759Q890 704 852 673T755 641Q742 641 725 661T680 724Q652 767 624 790T566 813Z" />
<glyph unicode="&#xe8;" horiz-adv-x="913" d="M590 818Q549 818 511 793T440 722T385 618T348 492T334 354Q334 248 376 205T497 161Q550 161 594 177T680 230T760 333H830Q771 194 706 116T562 6T386 -26Q278 -26 203 12T88 124T49 299Q49 405 78 499T162 671T289
804T448 890T629 920Q727 920 787 894T874 823T901 722Q901 675 884 628T835 544Q772 520 702 498T559 456T411 418T265 385L269 473Q371 503 441 529T555 578T623 626T656 676T665 734Q665 761 657 779T632 808T590 818ZM681 1031H592L362 1321L372 1361H623L681
1031Z" />
<glyph unicode="&#xe9;" horiz-adv-x="913" d="M590 818Q549 818 511 793T440 722T385 618T348 492T334 354Q334 248 376 205T497 161Q550 161 594 177T680 230T760 333H830Q771 194 706 116T562 6T386 -26Q278 -26 203 12T88 124T49 299Q49 405 78 499T162 671T289
804T448 890T629 920Q727 920 787 894T874 823T901 722Q901 675 884 628T835 544Q772 520 702 498T559 456T411 418T265 385L269 473Q371 503 441 529T555 578T623 626T656 676T665 734Q665 761 657 779T632 808T590 818ZM564 1031L776 1361H1073L1062 1321L669
1031H564Z" />
<glyph unicode="&#xea;" horiz-adv-x="913" d="M590 818Q549 818 511 793T440 722T385 618T348 492T334 354Q334 248 376 205T497 161Q550 161 594 177T680 230T760 333H830Q771 194 706 116T562 6T386 -26Q278 -26 203 12T88 124T49 299Q49 405 78 499T162 671T289
804T448 890T629 920Q727 920 787 894T874 823T901 722Q901 675 884 628T835 544Q772 520 702 498T559 456T411 418T265 385L269 473Q371 503 441 529T555 578T623 626T656 676T665 734Q665 761 657 779T632 808T590 818ZM313 1031L622 1361H825L932 1031H827L657
1235H742L442 1031H313Z" />
<glyph unicode="&#xeb;" horiz-adv-x="913" d="M590 818Q549 818 511 793T440 722T385 618T348 492T334 354Q334 248 376 205T497 161Q550 161 594 177T680 230T760 333H830Q771 194 706 116T562 6T386 -26Q278 -26 203 12T88 124T49 299Q49 405 78 499T162 671T289
804T448 890T629 920Q727 920 787 894T874 823T901 722Q901 675 884 628T835 544Q772 520 702 498T559 456T411 418T265 385L269 473Q371 503 441 529T555 578T623 626T656 676T665 734Q665 761 657 779T632 808T590 818ZM462 1065Q404 1065 368 1101T332 1190Q332
1227 349 1258T397 1308T473 1327Q532 1327 567 1291T603 1201Q603 1164 586 1134T538 1084T462 1065ZM871 1065Q813 1065 778 1101T742 1190Q742 1227 759 1258T807 1308T882 1327Q941 1327 976 1291T1012 1201Q1012 1164 995 1134T947 1084T871 1065Z" />
<glyph unicode="&#xec;" horiz-adv-x="676" d="M77 107L339 802L396 743Q343 745 294 730T196 682T91 594L48 639Q130 744 207 805T357 893T499 920Q585 920 612 888T614 787L352 75L297 150Q351 148 400 160T498 203T601 280L642 233Q560 140 483 83T334 0T192
-26Q106 -26 78 5T77 107ZM573 1031H484L254 1321L264 1361H515L573 1031Z" />
<glyph unicode="&#xed;" horiz-adv-x="676" d="M77 107L339 802L396 743Q343 745 294 730T196 682T91 594L48 639Q130 744 207 805T357 893T499 920Q585 920 612 888T614 787L352 75L297 150Q351 148 400 160T498 203T601 280L642 233Q560 140 483 83T334 0T192
-26Q106 -26 78 5T77 107ZM456 1031L668 1361H965L954 1321L561 1031H456Z" />
<glyph unicode="&#xee;" horiz-adv-x="676" d="M77 107L339 802L396 743Q343 745 294 730T196 682T91 594L48 639Q130 744 207 805T357 893T499 920Q585 920 612 888T614 787L352 75L297 150Q351 148 400 160T498 203T601 280L642 233Q560 140 483 83T334 0T192
-26Q106 -26 78 5T77 107ZM205 1031L514 1361H717L824 1031H719L549 1235H634L334 1031H205Z" />
<glyph unicode="&#xef;" horiz-adv-x="676" d="M77 107L339 802L396 743Q343 745 294 730T196 682T91 594L48 639Q130 744 207 805T357 893T499 920Q585 920 612 888T614 787L352 75L297 150Q351 148 400 160T498 203T601 280L642 233Q560 140 483 83T334 0T192
-26Q106 -26 78 5T77 107ZM354 1065Q296 1065 260 1101T224 1190Q224 1227 241 1258T289 1308T365 1327Q424 1327 459 1291T495 1201Q495 1164 478 1134T430 1084T354 1065ZM763 1065Q705 1065 670 1101T634 1190Q634 1227 651 1258T699 1308T774 1327Q833 1327
868 1291T904 1201Q904 1164 887 1134T839 1084T763 1065Z" />
<glyph unicode="&#xf0;" horiz-adv-x="1036" d="M780 670L734 661Q758 808 749 919T694 1111T562 1250T345 1345L376 1436Q578 1397 705 1316T900 1126T986 891T990 634Q977 490 928 369T802 159T625 22T411 -26Q293 -26 213 16T93 136T53 317Q53 440 94 547T207
735T372 861T569 907Q644 907 691 879T760 798T780 670ZM414 86Q456 86 497 120T575 214T639 347T684 503T700 661Q700 737 678 768T610 799Q568 799 527 765T450 671T385 538T341 382T324 224Q324 149 346 118T414 86ZM412 980L368 1065L1002 1419L1045 1334L412
980Z" />
<glyph unicode="&#xf1;" horiz-adv-x="1239" d="M88 561L39 580Q81 711 137 784T263 888T418 919Q451 919 478 917T532 912T593 901L447 402L448 415Q511 553 573 649T698 804T824 891T952 919Q1058 919 1103 873T1149 754Q1149 716 1138 667T1102 554L917 75L874
151Q922 151 968 165T1064 210T1173 292L1214 245Q1131 147 1054 87T904 1T760 -26Q675 -26 648 5T647 107L823 557Q839 600 846 624T853 667Q853 689 840 703T796 717Q757 717 711 685T615 589T519 428T432 201L370 0H92L313 730Q310 730 307 730T299 730Q256
730 223 718T158 670T88 561ZM1166 1348Q1117 1225 1077 1157T999 1062T916 1034Q882 1034 856 1056T807 1106T763 1157T719 1179Q700 1179 683 1168T646 1127T600 1043H503Q553 1167 592 1235T670 1330T754 1357Q788 1357 814 1335T863 1285T907 1235T951 1213Q970
1213 987 1224T1023 1264T1069 1348H1166Z" />
<glyph unicode="&#xf2;" horiz-adv-x="1025" d="M613 920Q731 920 810 877T930 755T971 572Q971 449 929 341T811 151T633 21T411 -26Q293 -26 214 17T94 139T54 322Q54 444 96 552T214 743T391 873T613 920ZM414 86Q456 86 497 121T575 216T640 351T684 507T700
667Q700 744 678 775T611 807Q569 807 528 772T450 678T385 543T341 386T324 227Q324 150 346 118T414 86ZM739 1031H650L420 1321L430 1361H681L739 1031Z" />
<glyph unicode="&#xf3;" horiz-adv-x="1025" d="M613 920Q731 920 810 877T930 755T971 572Q971 449 929 341T811 151T633 21T411 -26Q293 -26 214 17T94 139T54 322Q54 444 96 552T214 743T391 873T613 920ZM414 86Q456 86 497 121T575 216T640 351T684 507T700
667Q700 744 678 775T611 807Q569 807 528 772T450 678T385 543T341 386T324 227Q324 150 346 118T414 86ZM622 1031L834 1361H1131L1120 1321L727 1031H622Z" />
<glyph unicode="&#xf4;" horiz-adv-x="1025" d="M613 920Q731 920 810 877T930 755T971 572Q971 449 929 341T811 151T633 21T411 -26Q293 -26 214 17T94 139T54 322Q54 444 96 552T214 743T391 873T613 920ZM414 86Q456 86 497 121T575 216T640 351T684 507T700
667Q700 744 678 775T611 807Q569 807 528 772T450 678T385 543T341 386T324 227Q324 150 346 118T414 86ZM371 1031L680 1361H883L990 1031H885L715 1235H800L500 1031H371Z" />
<glyph unicode="&#xf5;" horiz-adv-x="1025" d="M613 920Q731 920 810 877T930 755T971 572Q971 449 929 341T811 151T633 21T411 -26Q293 -26 214 17T94 139T54 322Q54 444 96 552T214 743T391 873T613 920ZM414 86Q456 86 497 121T575 216T640 351T684 507T700
667Q700 744 678 775T611 807Q569 807 528 772T450 678T385 543T341 386T324 227Q324 150 346 118T414 86ZM1062 1348Q1013 1225 973 1157T895 1062T812 1034Q778 1034 752 1056T703 1106T659 1157T615 1179Q596 1179 579 1168T542 1127T496 1043H399Q449 1167
488 1235T566 1330T650 1357Q684 1357 710 1335T759 1285T803 1235T847 1213Q866 1213 883 1224T919 1264T965 1348H1062Z" />
<glyph unicode="&#xf6;" horiz-adv-x="1025" d="M613 920Q731 920 810 877T930 755T971 572Q971 449 929 341T811 151T633 21T411 -26Q293 -26 214 17T94 139T54 322Q54 444 96 552T214 743T391 873T613 920ZM414 86Q456 86 497 121T575 216T640 351T684 507T700
667Q700 744 678 775T611 807Q569 807 528 772T450 678T385 543T341 386T324 227Q324 150 346 118T414 86ZM520 1065Q462 1065 426 1101T390 1190Q390 1227 407 1258T455 1308T531 1327Q590 1327 625 1291T661 1201Q661 1164 644 1134T596 1084T520 1065ZM929 1065Q871
1065 836 1101T800 1190Q800 1227 817 1258T865 1308T940 1327Q999 1327 1034 1291T1070 1201Q1070 1164 1053 1134T1005 1084T929 1065Z" />
<glyph unicode="&#xf7;" horiz-adv-x="1033" d="M153 519H924L882 381H111L153 519ZM621 904Q679 904 714 867T750 777Q750 720 712 679T610 638Q553 638 517 675T481 766Q481 823 520 863T621 904ZM425 261Q483 261 518 224T554 134Q554 77 516 37T414 -4Q356
-4 320 33T284 123Q284 180 323 220T425 261Z" />
<glyph unicode="&#xf8;" horiz-adv-x="1056" d="M629 920Q747 920 826 877T946 755T986 572Q986 449 944 341T826 151T649 21T427 -26Q309 -26 230 17T110 139T69 322Q69 444 111 552T229 743T407 873T629 920ZM429 86Q471 86 512 121T590 216T655 351T700 507T716
667Q716 744 694 775T626 807Q584 807 543 772T465 678T400 543T356 386T340 227Q340 150 362 118T429 86ZM966 894H1132L891 689L815 648L301 161L226 115L90 0H-77L163 203L239 244L755 733L830 779L966 894Z" />
<glyph unicode="&#xf9;" horiz-adv-x="1182" d="M652 84L767 474L781 459Q715 325 657 232T541 82T425 0T299 -26Q200 -26 156 19T112 135Q112 173 123 223T160 341L333 819L386 744Q331 746 282 730T185 681T83 594L38 638Q115 741 191 802T341 892T486 920Q569
920 596 887T599 786L433 329Q418 287 411 263T404 223Q404 201 418 188T460 175Q492 175 530 200T607 276T685 403T755 583L853 894H1131L879 74L836 151Q883 152 930 166T1027 212T1132 295L1174 249Q1060 105 951 40T756 -26Q685 -26 660 -1T652 84ZM789 1031H700L470
1321L480 1361H731L789 1031Z" />
<glyph unicode="&#xfa;" horiz-adv-x="1182" d="M652 84L767 474L781 459Q715 325 657 232T541 82T425 0T299 -26Q200 -26 156 19T112 135Q112 173 123 223T160 341L333 819L386 744Q331 746 282 730T185 681T83 594L38 638Q115 741 191 802T341 892T486 920Q569
920 596 887T599 786L433 329Q418 287 411 263T404 223Q404 201 418 188T460 175Q492 175 530 200T607 276T685 403T755 583L853 894H1131L879 74L836 151Q883 152 930 166T1027 212T1132 295L1174 249Q1060 105 951 40T756 -26Q685 -26 660 -1T652 84ZM672 1031L884
1361H1181L1170 1321L777 1031H672Z" />
<glyph unicode="&#xfb;" horiz-adv-x="1182" d="M652 84L767 474L781 459Q715 325 657 232T541 82T425 0T299 -26Q200 -26 156 19T112 135Q112 173 123 223T160 341L333 819L386 744Q331 746 282 730T185 681T83 594L38 638Q115 741 191 802T341 892T486 920Q569
920 596 887T599 786L433 329Q418 287 411 263T404 223Q404 201 418 188T460 175Q492 175 530 200T607 276T685 403T755 583L853 894H1131L879 74L836 151Q883 152 930 166T1027 212T1132 295L1174 249Q1060 105 951 40T756 -26Q685 -26 660 -1T652 84ZM421 1031L730
1361H933L1040 1031H935L765 1235H850L550 1031H421Z" />
<glyph unicode="&#xfc;" horiz-adv-x="1182" d="M652 84L767 474L781 459Q715 325 657 232T541 82T425 0T299 -26Q200 -26 156 19T112 135Q112 173 123 223T160 341L333 819L386 744Q331 746 282 730T185 681T83 594L38 638Q115 741 191 802T341 892T486 920Q569
920 596 887T599 786L433 329Q418 287 411 263T404 223Q404 201 418 188T460 175Q492 175 530 200T607 276T685 403T755 583L853 894H1131L879 74L836 151Q883 152 930 166T1027 212T1132 295L1174 249Q1060 105 951 40T756 -26Q685 -26 660 -1T652 84ZM570 1065Q512
1065 476 1101T440 1190Q440 1227 457 1258T505 1308T581 1327Q640 1327 675 1291T711 1201Q711 1164 694 1134T646 1084T570 1065ZM979 1065Q921 1065 886 1101T850 1190Q850 1227 867 1258T915 1308T990 1327Q1049 1327 1084 1291T1120 1201Q1120 1164 1103 1134T1055
1084T979 1065Z" />
<glyph unicode="&#xfd;" horiz-adv-x="1050" d="M105 491L34 498Q63 615 97 696T171 826T261 898T369 920Q404 920 428 906T473 858T513 764Q533 704 555 605T604 359T660 13L453 -250Q429 -100 409 18T370 229T337 394T307 528Q287 610 276 647T257 695T239 706Q219
706 197 687T151 620T105 491ZM531 -41L567 -35Q637 71 686 176T767 391T813 626T828 895Q860 904 905 908T993 913Q1025 913 1040 901T1055 863Q1054 809 1040 740T997 587T927 410T830 213T704 1Q585 -183 477 -297T269 -465T73 -519Q-22 -519 -65 -477T-108
-368Q-108 -309 -70 -272T21 -234Q32 -234 47 -247T89 -291Q116 -321 141 -336T187 -352Q233 -352 290 -317T410 -212T531 -41ZM597 1031L809 1361H1106L1095 1321L702 1031H597Z" />
<glyph unicode="&#xfe;" horiz-adv-x="1078" d="M353 306Q343 267 339 239T335 191Q335 136 361 106T439 75Q478 75 519 103T599 182T668 298T717 438T735 589Q735 654 715 686T646 719Q616 719 583 699T518 644T456 564T404 470T370 372L353 306ZM388 524L375
528Q443 666 511 752T649 879T795 920Q907 920 974 844T1041 645Q1041 545 1014 448T935 265T813 114T655 11T467 -26Q362 -26 286 4T182 97H314L172 -393L313 -442L296 -493H-257L-242 -443L-110 -393L357 1206Q341 1225 320 1243T274 1278T222 1312L237 1366L660
1436H697L388 524Z" />
<glyph unicode="&#xff;" horiz-adv-x="1050" d="M105 491L34 498Q63 615 97 696T171 826T261 898T369 920Q404 920 428 906T473 858T513 764Q533 704 555 605T604 359T660 13L453 -250Q429 -100 409 18T370 229T337 394T307 528Q287 610 276 647T257 695T239 706Q219
706 197 687T151 620T105 491ZM531 -41L567 -35Q637 71 686 176T767 391T813 626T828 895Q860 904 905 908T993 913Q1025 913 1040 901T1055 863Q1054 809 1040 740T997 587T927 410T830 213T704 1Q585 -183 477 -297T269 -465T73 -519Q-22 -519 -65 -477T-108
-368Q-108 -309 -70 -272T21 -234Q32 -234 47 -247T89 -291Q116 -321 141 -336T187 -352Q233 -352 290 -317T410 -212T531 -41ZM495 1065Q437 1065 401 1101T365 1190Q365 1227 382 1258T430 1308T506 1327Q565 1327 600 1291T636 1201Q636 1164 619 1134T571 1084T495
1065ZM904 1065Q846 1065 811 1101T775 1190Q775 1227 792 1258T840 1308T915 1327Q974 1327 1009 1291T1045 1201Q1045 1164 1028 1134T980 1084T904 1065Z" />
<glyph unicode="&#x2013;" horiz-adv-x="967" d="M114 516H895L858 395H77L114 516Z" />
<glyph unicode="&#x2014;" horiz-adv-x="1280" d="M114 516H1209L1171 395H77L114 516Z" />
<glyph unicode="&#x2018;" horiz-adv-x="511" d="M688 1290Q596 1252 544 1219T471 1155T449 1096Q449 1067 466 1047T507 1013T548 987T566 960Q566 915 543 876T477 811T377 786Q308 786 269 824T229 934Q229 1018 266 1093T396 1238T656 1373L688 1290Z" />
<glyph unicode="&#x2019;" horiz-adv-x="509" d="M207 868Q299 908 351 941T424 1004T445 1063Q445 1092 428 1111T387 1145T346 1171T328 1198Q328 1244 351 1283T417 1347T518 1372Q587 1372 626 1335T666 1224Q666 1140 629 1065T498 920T239 786L207 868Z" />
<glyph unicode="&#x201a;" horiz-adv-x="509" d="M-110 -188Q-18 -149 34 -116T107 -52T128 7Q128 35 111 55T70 89T29 115T11 142Q11 188 34 227T100 291T201 316Q270 316 309 279T349 168Q349 84 312 9T181 -136T-79 -270L-110 -188Z" />
<glyph unicode="&#x201c;" horiz-adv-x="949" d="M688 1290Q596 1252 544 1219T471 1155T449 1096Q449 1067 466 1047T507 1013T548 987T566 960Q566 915 543 876T477 811T377 786Q308 786 269 824T229 934Q229 1018 266 1093T396 1238T656 1373L688 1290ZM1126
1290Q1034 1252 982 1219T909 1155T887 1096Q887 1067 904 1047T945 1013T986 987T1004 960Q1004 915 981 876T915 811T815 786Q746 786 707 824T667 934Q667 1018 704 1093T834 1238T1094 1373L1126 1290Z" />
<glyph unicode="&#x201d;" horiz-adv-x="948" d="M207 868Q299 908 351 941T424 1004T445 1063Q445 1092 428 1111T387 1145T346 1171T328 1198Q328 1244 351 1283T417 1347T518 1372Q587 1372 626 1335T666 1224Q666 1140 629 1065T498 920T239 786L207 868ZM645
868Q737 908 789 941T862 1004T883 1063Q883 1092 866 1111T825 1145T784 1171T766 1198Q766 1244 789 1283T855 1347T956 1372Q1025 1372 1064 1335T1104 1224Q1104 1140 1067 1065T936 920T677 786L645 868Z" />
<glyph unicode="&#x201e;" horiz-adv-x="947" d="M-110 -188Q-18 -149 34 -116T107 -52T128 7Q128 35 111 55T70 89T29 115T11 142Q11 188 34 227T100 291T201 316Q270 316 309 279T349 168Q349 84 312 9T181 -136T-79 -270L-110 -188ZM328 -188Q420 -149 472
-116T545 -52T566 7Q566 35 549 55T508 89T467 115T449 142Q449 188 472 227T538 291T639 316Q708 316 747 279T787 168Q787 84 750 9T619 -136T359 -270L328 -188Z" />
<glyph unicode="&#x2022;" horiz-adv-x="862" d="M433 725Q514 725 576 690T673 593T709 456Q709 380 674 319T576 222T434 186Q353 186 291 221T193 318T158 456Q158 532 193 593T290 689T433 725Z" />
<glyph unicode="&#x2039;" horiz-adv-x="604" d="M301 491L412 48L329 8L42 398L73 499L589 890L651 822L261 358L301 491Z" />
<glyph unicode="&#x203a;" horiz-adv-x="644" d="M318 407L207 849L290 890L577 500L546 398L30 8L-32 76L358 540L318 407Z" />
</font>
</defs>
</svg>
